<?xml version="1.0" encoding="utf-8"?>
<svg xmlns="http://www.w3.org/2000/svg" xmlns:xlink="http://www.w3.org/1999/xlink" width="600" height="400" viewBox="0 0 2400 1600">
<defs>
  <clipPath id="clip660">
    <rect x="0" y="0" width="2400" height="1600"/>
  </clipPath>
</defs>
<path clip-path="url(#clip660)" d="M0 1600 L2400 1600 L2400 0 L0 0  Z" fill="#ffffff" fill-rule="evenodd" fill-opacity="1"/>
<defs>
  <clipPath id="clip661">
    <rect x="480" y="0" width="1681" height="1600"/>
  </clipPath>
</defs>
<path clip-path="url(#clip660)" d="M386.917 1264.17 L2211.02 1264.17 L2211.02 188.976 L386.917 188.976  Z" fill="#ffffff" fill-rule="evenodd" fill-opacity="1"/>
<defs>
  <clipPath id="clip662">
    <rect x="386" y="188" width="1825" height="1076"/>
  </clipPath>
</defs>
<polyline clip-path="url(#clip662)" style="stroke:#000000; stroke-linecap:round; stroke-linejoin:round; stroke-width:2; stroke-opacity:0.1; fill:none" points="438.542,1264.17 438.542,188.976 "/>
<polyline clip-path="url(#clip662)" style="stroke:#000000; stroke-linecap:round; stroke-linejoin:round; stroke-width:2; stroke-opacity:0.1; fill:none" points="868.756,1264.17 868.756,188.976 "/>
<polyline clip-path="url(#clip662)" style="stroke:#000000; stroke-linecap:round; stroke-linejoin:round; stroke-width:2; stroke-opacity:0.1; fill:none" points="1298.97,1264.17 1298.97,188.976 "/>
<polyline clip-path="url(#clip662)" style="stroke:#000000; stroke-linecap:round; stroke-linejoin:round; stroke-width:2; stroke-opacity:0.1; fill:none" points="1729.18,1264.17 1729.18,188.976 "/>
<polyline clip-path="url(#clip662)" style="stroke:#000000; stroke-linecap:round; stroke-linejoin:round; stroke-width:2; stroke-opacity:0.1; fill:none" points="2159.4,1264.17 2159.4,188.976 "/>
<polyline clip-path="url(#clip660)" style="stroke:#000000; stroke-linecap:round; stroke-linejoin:round; stroke-width:4; stroke-opacity:1; fill:none" points="386.917,1264.17 2211.02,1264.17 "/>
<polyline clip-path="url(#clip660)" style="stroke:#000000; stroke-linecap:round; stroke-linejoin:round; stroke-width:4; stroke-opacity:1; fill:none" points="438.542,1264.17 438.542,1245.27 "/>
<polyline clip-path="url(#clip660)" style="stroke:#000000; stroke-linecap:round; stroke-linejoin:round; stroke-width:4; stroke-opacity:1; fill:none" points="868.756,1264.17 868.756,1245.27 "/>
<polyline clip-path="url(#clip660)" style="stroke:#000000; stroke-linecap:round; stroke-linejoin:round; stroke-width:4; stroke-opacity:1; fill:none" points="1298.97,1264.17 1298.97,1245.27 "/>
<polyline clip-path="url(#clip660)" style="stroke:#000000; stroke-linecap:round; stroke-linejoin:round; stroke-width:4; stroke-opacity:1; fill:none" points="1729.18,1264.17 1729.18,1245.27 "/>
<polyline clip-path="url(#clip660)" style="stroke:#000000; stroke-linecap:round; stroke-linejoin:round; stroke-width:4; stroke-opacity:1; fill:none" points="2159.4,1264.17 2159.4,1245.27 "/>
<path clip-path="url(#clip660)" d="M319.46 1314.07 Q323.656 1314.97 326 1317.81 Q328.372 1320.64 328.372 1324.81 Q328.372 1331.2 323.974 1334.71 Q319.576 1338.21 311.474 1338.21 Q308.754 1338.21 305.861 1337.66 Q302.996 1337.14 299.929 1336.07 L299.929 1330.42 Q302.36 1331.84 305.253 1332.56 Q308.147 1333.29 311.301 1333.29 Q316.798 1333.29 319.663 1331.12 Q322.556 1328.95 322.556 1324.81 Q322.556 1320.99 319.865 1318.85 Q317.203 1316.68 312.429 1316.68 L307.394 1316.68 L307.394 1311.88 L312.661 1311.88 Q316.972 1311.88 319.258 1310.17 Q321.544 1308.43 321.544 1305.19 Q321.544 1301.86 319.171 1300.1 Q316.827 1298.31 312.429 1298.31 Q310.027 1298.31 307.279 1298.83 Q304.53 1299.35 301.231 1300.45 L301.231 1295.24 Q304.559 1294.31 307.452 1293.85 Q310.375 1293.39 312.95 1293.39 Q319.605 1293.39 323.482 1296.42 Q327.36 1299.43 327.36 1304.58 Q327.36 1308.17 325.305 1310.66 Q323.251 1313.12 319.46 1314.07 Z" fill="#000000" fill-rule="nonzero" fill-opacity="1" /><path clip-path="url(#clip660)" d="M344.489 1332.45 L364.888 1332.45 L364.888 1337.37 L337.458 1337.37 L337.458 1332.45 Q340.785 1329.01 346.515 1323.22 Q352.273 1317.4 353.748 1315.72 Q356.555 1312.57 357.654 1310.4 Q358.783 1308.2 358.783 1306.09 Q358.783 1302.65 356.352 1300.48 Q353.951 1298.31 350.074 1298.31 Q347.325 1298.31 344.258 1299.26 Q341.219 1300.21 337.747 1302.15 L337.747 1296.25 Q341.277 1294.83 344.344 1294.11 Q347.411 1293.39 349.958 1293.39 Q356.671 1293.39 360.664 1296.74 Q364.657 1300.1 364.657 1305.71 Q364.657 1308.37 363.644 1310.78 Q362.66 1313.15 360.027 1316.39 Q359.304 1317.23 355.426 1321.25 Q351.549 1325.24 344.489 1332.45 Z" fill="#000000" fill-rule="nonzero" fill-opacity="1" /><path clip-path="url(#clip660)" d="M400.507 1295.76 L400.507 1304.96 L411.474 1304.96 L411.474 1309.1 L400.507 1309.1 L400.507 1326.69 Q400.507 1330.65 401.578 1331.78 Q402.677 1332.91 406.005 1332.91 L411.474 1332.91 L411.474 1337.37 L406.005 1337.37 Q399.842 1337.37 397.498 1335.08 Q395.154 1332.77 395.154 1326.69 L395.154 1309.1 L391.248 1309.1 L391.248 1304.96 L395.154 1304.96 L395.154 1295.76 L400.507 1295.76 Z" fill="#000000" fill-rule="nonzero" fill-opacity="1" /><path clip-path="url(#clip660)" d="M431.034 1308.69 Q426.751 1308.69 424.263 1312.05 Q421.775 1315.38 421.775 1321.19 Q421.775 1327.01 424.234 1330.37 Q426.722 1333.69 431.034 1333.69 Q435.287 1333.69 437.776 1330.34 Q440.264 1326.98 440.264 1321.19 Q440.264 1315.43 437.776 1312.08 Q435.287 1308.69 431.034 1308.69 M431.034 1304.18 Q437.978 1304.18 441.942 1308.69 Q445.906 1313.21 445.906 1321.19 Q445.906 1329.15 441.942 1333.69 Q437.978 1338.21 431.034 1338.21 Q424.06 1338.21 420.096 1333.69 Q416.161 1329.15 416.161 1321.19 Q416.161 1313.21 420.096 1308.69 Q424.06 1304.18 431.034 1304.18 Z" fill="#000000" fill-rule="nonzero" fill-opacity="1" /><path clip-path="url(#clip660)" d="M475.333 1332.45 L484.882 1332.45 L484.882 1299.49 L474.494 1301.57 L474.494 1296.25 L484.824 1294.17 L490.669 1294.17 L490.669 1332.45 L500.217 1332.45 L500.217 1337.37 L475.333 1337.37 L475.333 1332.45 Z" fill="#000000" fill-rule="nonzero" fill-opacity="1" /><path clip-path="url(#clip660)" d="M524.523 1298.02 Q520.009 1298.02 517.723 1302.47 Q515.466 1306.9 515.466 1315.81 Q515.466 1324.69 517.723 1329.15 Q520.009 1333.58 524.523 1333.58 Q529.066 1333.58 531.323 1329.15 Q533.608 1324.69 533.608 1315.81 Q533.608 1306.9 531.323 1302.47 Q529.066 1298.02 524.523 1298.02 M524.523 1293.39 Q531.786 1293.39 535.605 1299.14 Q539.453 1304.87 539.453 1315.81 Q539.453 1326.72 535.605 1332.48 Q531.786 1338.21 524.523 1338.21 Q517.26 1338.21 513.412 1332.48 Q509.592 1326.72 509.592 1315.81 Q509.592 1304.87 513.412 1299.14 Q517.26 1293.39 524.523 1293.39 Z" fill="#000000" fill-rule="nonzero" fill-opacity="1" /><path clip-path="url(#clip660)" d="M562.225 1298.02 Q557.711 1298.02 555.425 1302.47 Q553.168 1306.9 553.168 1315.81 Q553.168 1324.69 555.425 1329.15 Q557.711 1333.58 562.225 1333.58 Q566.768 1333.58 569.025 1329.15 Q571.311 1324.69 571.311 1315.81 Q571.311 1306.9 569.025 1302.47 Q566.768 1298.02 562.225 1298.02 M562.225 1293.39 Q569.488 1293.39 573.307 1299.14 Q577.156 1304.87 577.156 1315.81 Q577.156 1326.72 573.307 1332.48 Q569.488 1338.21 562.225 1338.21 Q554.962 1338.21 551.114 1332.48 Q547.295 1326.72 547.295 1315.81 Q547.295 1304.87 551.114 1299.14 Q554.962 1293.39 562.225 1293.39 Z" fill="#000000" fill-rule="nonzero" fill-opacity="1" /><path clip-path="url(#clip660)" d="M713.129 1332.45 L722.678 1332.45 L722.678 1299.49 L712.29 1301.57 L712.29 1296.25 L722.62 1294.17 L728.465 1294.17 L728.465 1332.45 L738.013 1332.45 L738.013 1337.37 L713.129 1337.37 L713.129 1332.45 Z" fill="#000000" fill-rule="nonzero" fill-opacity="1" /><path clip-path="url(#clip660)" d="M762.319 1298.02 Q757.805 1298.02 755.519 1302.47 Q753.262 1306.9 753.262 1315.81 Q753.262 1324.69 755.519 1329.15 Q757.805 1333.58 762.319 1333.58 Q766.862 1333.58 769.118 1329.15 Q771.404 1324.69 771.404 1315.81 Q771.404 1306.9 769.118 1302.47 Q766.862 1298.02 762.319 1298.02 M762.319 1293.39 Q769.581 1293.39 773.401 1299.14 Q777.249 1304.87 777.249 1315.81 Q777.249 1326.72 773.401 1332.48 Q769.581 1338.21 762.319 1338.21 Q755.056 1338.21 751.208 1332.48 Q747.388 1326.72 747.388 1315.81 Q747.388 1304.87 751.208 1299.14 Q755.056 1293.39 762.319 1293.39 Z" fill="#000000" fill-rule="nonzero" fill-opacity="1" /><path clip-path="url(#clip660)" d="M788.534 1332.45 L798.082 1332.45 L798.082 1299.49 L787.695 1301.57 L787.695 1296.25 L798.025 1294.17 L803.869 1294.17 L803.869 1332.45 L813.418 1332.45 L813.418 1337.37 L788.534 1337.37 L788.534 1332.45 Z" fill="#000000" fill-rule="nonzero" fill-opacity="1" /><path clip-path="url(#clip660)" d="M848.574 1295.76 L848.574 1304.96 L859.54 1304.96 L859.54 1309.1 L848.574 1309.1 L848.574 1326.69 Q848.574 1330.65 849.645 1331.78 Q850.744 1332.91 854.072 1332.91 L859.54 1332.91 L859.54 1337.37 L854.072 1337.37 Q847.909 1337.37 845.565 1335.08 Q843.221 1332.77 843.221 1326.69 L843.221 1309.1 L839.315 1309.1 L839.315 1304.96 L843.221 1304.96 L843.221 1295.76 L848.574 1295.76 Z" fill="#000000" fill-rule="nonzero" fill-opacity="1" /><path clip-path="url(#clip660)" d="M879.101 1308.69 Q874.818 1308.69 872.33 1312.05 Q869.841 1315.38 869.841 1321.19 Q869.841 1327.01 872.301 1330.37 Q874.789 1333.69 879.101 1333.69 Q883.354 1333.69 885.842 1330.34 Q888.331 1326.98 888.331 1321.19 Q888.331 1315.43 885.842 1312.08 Q883.354 1308.69 879.101 1308.69 M879.101 1304.18 Q886.045 1304.18 890.009 1308.69 Q893.973 1313.21 893.973 1321.19 Q893.973 1329.15 890.009 1333.69 Q886.045 1338.21 879.101 1338.21 Q872.127 1338.21 868.163 1333.69 Q864.228 1329.15 864.228 1321.19 Q864.228 1313.21 868.163 1308.69 Q872.127 1304.18 879.101 1304.18 Z" fill="#000000" fill-rule="nonzero" fill-opacity="1" /><path clip-path="url(#clip660)" d="M927.422 1332.45 L947.821 1332.45 L947.821 1337.37 L920.391 1337.37 L920.391 1332.45 Q923.718 1329.01 929.447 1323.22 Q935.206 1317.4 936.681 1315.72 Q939.488 1312.57 940.587 1310.4 Q941.716 1308.2 941.716 1306.09 Q941.716 1302.65 939.285 1300.48 Q936.884 1298.31 933.006 1298.31 Q930.258 1298.31 927.191 1299.26 Q924.152 1300.21 920.68 1302.15 L920.68 1296.25 Q924.21 1294.83 927.277 1294.11 Q930.344 1293.39 932.891 1293.39 Q939.604 1293.39 943.597 1296.74 Q947.59 1300.1 947.59 1305.71 Q947.59 1308.37 946.577 1310.78 Q945.593 1313.15 942.96 1316.39 Q942.237 1317.23 938.359 1321.25 Q934.482 1325.24 927.422 1332.45 Z" fill="#000000" fill-rule="nonzero" fill-opacity="1" /><path clip-path="url(#clip660)" d="M972.59 1298.02 Q968.076 1298.02 965.79 1302.47 Q963.533 1306.9 963.533 1315.81 Q963.533 1324.69 965.79 1329.15 Q968.076 1333.58 972.59 1333.58 Q977.132 1333.58 979.389 1329.15 Q981.675 1324.69 981.675 1315.81 Q981.675 1306.9 979.389 1302.47 Q977.132 1298.02 972.59 1298.02 M972.59 1293.39 Q979.852 1293.39 983.672 1299.14 Q987.52 1304.87 987.52 1315.81 Q987.52 1326.72 983.672 1332.48 Q979.852 1338.21 972.59 1338.21 Q965.327 1338.21 961.479 1332.48 Q957.659 1326.72 957.659 1315.81 Q957.659 1304.87 961.479 1299.14 Q965.327 1293.39 972.59 1293.39 Z" fill="#000000" fill-rule="nonzero" fill-opacity="1" /><path clip-path="url(#clip660)" d="M1010.29 1298.02 Q1005.78 1298.02 1003.49 1302.47 Q1001.24 1306.9 1001.24 1315.81 Q1001.24 1324.69 1003.49 1329.15 Q1005.78 1333.58 1010.29 1333.58 Q1014.83 1333.58 1017.09 1329.15 Q1019.38 1324.69 1019.38 1315.81 Q1019.38 1306.9 1017.09 1302.47 Q1014.83 1298.02 1010.29 1298.02 M1010.29 1293.39 Q1017.55 1293.39 1021.37 1299.14 Q1025.22 1304.87 1025.22 1315.81 Q1025.22 1326.72 1021.37 1332.48 Q1017.55 1338.21 1010.29 1338.21 Q1003.03 1338.21 999.181 1332.48 Q995.361 1326.72 995.361 1315.81 Q995.361 1304.87 999.181 1299.14 Q1003.03 1293.39 1010.29 1293.39 Z" fill="#000000" fill-rule="nonzero" fill-opacity="1" /><path clip-path="url(#clip660)" d="M1148.45 1332.45 L1168.85 1332.45 L1168.85 1337.37 L1141.42 1337.37 L1141.42 1332.45 Q1144.75 1329.01 1150.48 1323.22 Q1156.23 1317.4 1157.71 1315.72 Q1160.52 1312.57 1161.62 1310.4 Q1162.74 1308.2 1162.74 1306.09 Q1162.74 1302.65 1160.31 1300.48 Q1157.91 1298.31 1154.03 1298.31 Q1151.29 1298.31 1148.22 1299.26 Q1145.18 1300.21 1141.71 1302.15 L1141.71 1296.25 Q1145.24 1294.83 1148.31 1294.11 Q1151.37 1293.39 1153.92 1293.39 Q1160.63 1293.39 1164.62 1296.74 Q1168.62 1300.1 1168.62 1305.71 Q1168.62 1308.37 1167.61 1310.78 Q1166.62 1313.15 1163.99 1316.39 Q1163.26 1317.23 1159.39 1321.25 Q1155.51 1325.24 1148.45 1332.45 Z" fill="#000000" fill-rule="nonzero" fill-opacity="1" /><path clip-path="url(#clip660)" d="M1193.62 1298.02 Q1189.1 1298.02 1186.82 1302.47 Q1184.56 1306.9 1184.56 1315.81 Q1184.56 1324.69 1186.82 1329.15 Q1189.1 1333.58 1193.62 1333.58 Q1198.16 1333.58 1200.42 1329.15 Q1202.7 1324.69 1202.7 1315.81 Q1202.7 1306.9 1200.42 1302.47 Q1198.16 1298.02 1193.62 1298.02 M1193.62 1293.39 Q1200.88 1293.39 1204.7 1299.14 Q1208.55 1304.87 1208.55 1315.81 Q1208.55 1326.72 1204.7 1332.48 Q1200.88 1338.21 1193.62 1338.21 Q1186.36 1338.21 1182.51 1332.48 Q1178.69 1326.72 1178.69 1315.81 Q1178.69 1304.87 1182.51 1299.14 Q1186.36 1293.39 1193.62 1293.39 Z" fill="#000000" fill-rule="nonzero" fill-opacity="1" /><path clip-path="url(#clip660)" d="M1219.83 1332.45 L1229.38 1332.45 L1229.38 1299.49 L1218.99 1301.57 L1218.99 1296.25 L1229.32 1294.17 L1235.17 1294.17 L1235.17 1332.45 L1244.72 1332.45 L1244.72 1337.37 L1219.83 1337.37 L1219.83 1332.45 Z" fill="#000000" fill-rule="nonzero" fill-opacity="1" /><path clip-path="url(#clip660)" d="M1279.87 1295.76 L1279.87 1304.96 L1290.84 1304.96 L1290.84 1309.1 L1279.87 1309.1 L1279.87 1326.69 Q1279.87 1330.65 1280.94 1331.78 Q1282.04 1332.91 1285.37 1332.91 L1290.84 1332.91 L1290.84 1337.37 L1285.37 1337.37 Q1279.21 1337.37 1276.86 1335.08 Q1274.52 1332.77 1274.52 1326.69 L1274.52 1309.1 L1270.61 1309.1 L1270.61 1304.96 L1274.52 1304.96 L1274.52 1295.76 L1279.87 1295.76 Z" fill="#000000" fill-rule="nonzero" fill-opacity="1" /><path clip-path="url(#clip660)" d="M1310.4 1308.69 Q1306.12 1308.69 1303.63 1312.05 Q1301.14 1315.38 1301.14 1321.19 Q1301.14 1327.01 1303.6 1330.37 Q1306.09 1333.69 1310.4 1333.69 Q1314.65 1333.69 1317.14 1330.34 Q1319.63 1326.98 1319.63 1321.19 Q1319.63 1315.43 1317.14 1312.08 Q1314.65 1308.69 1310.4 1308.69 M1310.4 1304.18 Q1317.34 1304.18 1321.31 1308.69 Q1325.27 1313.21 1325.27 1321.19 Q1325.27 1329.15 1321.31 1333.69 Q1317.34 1338.21 1310.4 1338.21 Q1303.43 1338.21 1299.46 1333.69 Q1295.53 1329.15 1295.53 1321.19 Q1295.53 1313.21 1299.46 1308.69 Q1303.43 1304.18 1310.4 1304.18 Z" fill="#000000" fill-rule="nonzero" fill-opacity="1" /><path clip-path="url(#clip660)" d="M1371.39 1314.07 Q1375.59 1314.97 1377.93 1317.81 Q1380.31 1320.64 1380.31 1324.81 Q1380.31 1331.2 1375.91 1334.71 Q1371.51 1338.21 1363.41 1338.21 Q1360.69 1338.21 1357.8 1337.66 Q1354.93 1337.14 1351.86 1336.07 L1351.86 1330.42 Q1354.29 1331.84 1357.19 1332.56 Q1360.08 1333.29 1363.23 1333.29 Q1368.73 1333.29 1371.6 1331.12 Q1374.49 1328.95 1374.49 1324.81 Q1374.49 1320.99 1371.8 1318.85 Q1369.14 1316.68 1364.36 1316.68 L1359.33 1316.68 L1359.33 1311.88 L1364.59 1311.88 Q1368.91 1311.88 1371.19 1310.17 Q1373.48 1308.43 1373.48 1305.19 Q1373.48 1301.86 1371.11 1300.1 Q1368.76 1298.31 1364.36 1298.31 Q1361.96 1298.31 1359.21 1298.83 Q1356.46 1299.35 1353.17 1300.45 L1353.17 1295.24 Q1356.49 1294.31 1359.39 1293.85 Q1362.31 1293.39 1364.88 1293.39 Q1371.54 1293.39 1375.42 1296.42 Q1379.29 1299.43 1379.29 1304.58 Q1379.29 1308.17 1377.24 1310.66 Q1375.19 1313.12 1371.39 1314.07 Z" fill="#000000" fill-rule="nonzero" fill-opacity="1" /><path clip-path="url(#clip660)" d="M1403.89 1298.02 Q1399.37 1298.02 1397.09 1302.47 Q1394.83 1306.9 1394.83 1315.81 Q1394.83 1324.69 1397.09 1329.15 Q1399.37 1333.58 1403.89 1333.58 Q1408.43 1333.58 1410.69 1329.15 Q1412.97 1324.69 1412.97 1315.81 Q1412.97 1306.9 1410.69 1302.47 Q1408.43 1298.02 1403.89 1298.02 M1403.89 1293.39 Q1411.15 1293.39 1414.97 1299.14 Q1418.82 1304.87 1418.82 1315.81 Q1418.82 1326.72 1414.97 1332.48 Q1411.15 1338.21 1403.89 1338.21 Q1396.63 1338.21 1392.78 1332.48 Q1388.96 1326.72 1388.96 1315.81 Q1388.96 1304.87 1392.78 1299.14 Q1396.63 1293.39 1403.89 1293.39 Z" fill="#000000" fill-rule="nonzero" fill-opacity="1" /><path clip-path="url(#clip660)" d="M1441.59 1298.02 Q1437.08 1298.02 1434.79 1302.47 Q1432.53 1306.9 1432.53 1315.81 Q1432.53 1324.69 1434.79 1329.15 Q1437.08 1333.58 1441.59 1333.58 Q1446.13 1333.58 1448.39 1329.15 Q1450.68 1324.69 1450.68 1315.81 Q1450.68 1306.9 1448.39 1302.47 Q1446.13 1298.02 1441.59 1298.02 M1441.59 1293.39 Q1448.85 1293.39 1452.67 1299.14 Q1456.52 1304.87 1456.52 1315.81 Q1456.52 1326.72 1452.67 1332.48 Q1448.85 1338.21 1441.59 1338.21 Q1434.33 1338.21 1430.48 1332.48 Q1426.66 1326.72 1426.66 1315.81 Q1426.66 1304.87 1430.48 1299.14 Q1434.33 1293.39 1441.59 1293.39 Z" fill="#000000" fill-rule="nonzero" fill-opacity="1" /><path clip-path="url(#clip660)" d="M1591.25 1314.07 Q1595.45 1314.97 1597.79 1317.81 Q1600.16 1320.64 1600.16 1324.81 Q1600.16 1331.2 1595.76 1334.71 Q1591.37 1338.21 1583.26 1338.21 Q1580.54 1338.21 1577.65 1337.66 Q1574.79 1337.14 1571.72 1336.07 L1571.72 1330.42 Q1574.15 1331.84 1577.04 1332.56 Q1579.94 1333.29 1583.09 1333.29 Q1588.59 1333.29 1591.45 1331.12 Q1594.35 1328.95 1594.35 1324.81 Q1594.35 1320.99 1591.66 1318.85 Q1588.99 1316.68 1584.22 1316.68 L1579.18 1316.68 L1579.18 1311.88 L1584.45 1311.88 Q1588.76 1311.88 1591.05 1310.17 Q1593.33 1308.43 1593.33 1305.19 Q1593.33 1301.86 1590.96 1300.1 Q1588.62 1298.31 1584.22 1298.31 Q1581.82 1298.31 1579.07 1298.83 Q1576.32 1299.35 1573.02 1300.45 L1573.02 1295.24 Q1576.35 1294.31 1579.24 1293.85 Q1582.17 1293.39 1584.74 1293.39 Q1591.4 1293.39 1595.27 1296.42 Q1599.15 1299.43 1599.15 1304.58 Q1599.15 1308.17 1597.1 1310.66 Q1595.04 1313.12 1591.25 1314.07 Z" fill="#000000" fill-rule="nonzero" fill-opacity="1" /><path clip-path="url(#clip660)" d="M1623.74 1298.02 Q1619.23 1298.02 1616.95 1302.47 Q1614.69 1306.9 1614.69 1315.81 Q1614.69 1324.69 1616.95 1329.15 Q1619.23 1333.58 1623.74 1333.58 Q1628.29 1333.58 1630.54 1329.15 Q1632.83 1324.69 1632.83 1315.81 Q1632.83 1306.9 1630.54 1302.47 Q1628.29 1298.02 1623.74 1298.02 M1623.74 1293.39 Q1631.01 1293.39 1634.83 1299.14 Q1638.68 1304.87 1638.68 1315.81 Q1638.68 1326.72 1634.83 1332.48 Q1631.01 1338.21 1623.74 1338.21 Q1616.48 1338.21 1612.63 1332.48 Q1608.81 1326.72 1608.81 1315.81 Q1608.81 1304.87 1612.63 1299.14 Q1616.48 1293.39 1623.74 1293.39 Z" fill="#000000" fill-rule="nonzero" fill-opacity="1" /><path clip-path="url(#clip660)" d="M1649.96 1332.45 L1659.51 1332.45 L1659.51 1299.49 L1649.12 1301.57 L1649.12 1296.25 L1659.45 1294.17 L1665.3 1294.17 L1665.3 1332.45 L1674.84 1332.45 L1674.84 1337.37 L1649.96 1337.37 L1649.96 1332.45 Z" fill="#000000" fill-rule="nonzero" fill-opacity="1" /><path clip-path="url(#clip660)" d="M1710 1295.76 L1710 1304.96 L1720.97 1304.96 L1720.97 1309.1 L1710 1309.1 L1710 1326.69 Q1710 1330.65 1711.07 1331.78 Q1712.17 1332.91 1715.5 1332.91 L1720.97 1332.91 L1720.97 1337.37 L1715.5 1337.37 Q1709.33 1337.37 1706.99 1335.08 Q1704.65 1332.77 1704.65 1326.69 L1704.65 1309.1 L1700.74 1309.1 L1700.74 1304.96 L1704.65 1304.96 L1704.65 1295.76 L1710 1295.76 Z" fill="#000000" fill-rule="nonzero" fill-opacity="1" /><path clip-path="url(#clip660)" d="M1740.53 1308.69 Q1736.24 1308.69 1733.76 1312.05 Q1731.27 1315.38 1731.27 1321.19 Q1731.27 1327.01 1733.73 1330.37 Q1736.22 1333.69 1740.53 1333.69 Q1744.78 1333.69 1747.27 1330.34 Q1749.76 1326.98 1749.76 1321.19 Q1749.76 1315.43 1747.27 1312.08 Q1744.78 1308.69 1740.53 1308.69 M1740.53 1304.18 Q1747.47 1304.18 1751.44 1308.69 Q1755.4 1313.21 1755.4 1321.19 Q1755.4 1329.15 1751.44 1333.69 Q1747.47 1338.21 1740.53 1338.21 Q1733.55 1338.21 1729.59 1333.69 Q1725.65 1329.15 1725.65 1321.19 Q1725.65 1313.21 1729.59 1308.69 Q1733.55 1304.18 1740.53 1304.18 Z" fill="#000000" fill-rule="nonzero" fill-opacity="1" /><path clip-path="url(#clip660)" d="M1799.87 1299.26 L1785.12 1322.32 L1799.87 1322.32 L1799.87 1299.26 M1798.34 1294.17 L1805.69 1294.17 L1805.69 1322.32 L1811.85 1322.32 L1811.85 1327.18 L1805.69 1327.18 L1805.69 1337.37 L1799.87 1337.37 L1799.87 1327.18 L1780.37 1327.18 L1780.37 1321.54 L1798.34 1294.17 Z" fill="#000000" fill-rule="nonzero" fill-opacity="1" /><path clip-path="url(#clip660)" d="M1834.02 1298.02 Q1829.5 1298.02 1827.22 1302.47 Q1824.96 1306.9 1824.96 1315.81 Q1824.96 1324.69 1827.22 1329.15 Q1829.5 1333.58 1834.02 1333.58 Q1838.56 1333.58 1840.82 1329.15 Q1843.1 1324.69 1843.1 1315.81 Q1843.1 1306.9 1840.82 1302.47 Q1838.56 1298.02 1834.02 1298.02 M1834.02 1293.39 Q1841.28 1293.39 1845.1 1299.14 Q1848.95 1304.87 1848.95 1315.81 Q1848.95 1326.72 1845.1 1332.48 Q1841.28 1338.21 1834.02 1338.21 Q1826.75 1338.21 1822.9 1332.48 Q1819.09 1326.72 1819.09 1315.81 Q1819.09 1304.87 1822.9 1299.14 Q1826.75 1293.39 1834.02 1293.39 Z" fill="#000000" fill-rule="nonzero" fill-opacity="1" /><path clip-path="url(#clip660)" d="M1871.72 1298.02 Q1867.2 1298.02 1864.92 1302.47 Q1862.66 1306.9 1862.66 1315.81 Q1862.66 1324.69 1864.92 1329.15 Q1867.2 1333.58 1871.72 1333.58 Q1876.26 1333.58 1878.52 1329.15 Q1880.8 1324.69 1880.8 1315.81 Q1880.8 1306.9 1878.52 1302.47 Q1876.26 1298.02 1871.72 1298.02 M1871.72 1293.39 Q1878.98 1293.39 1882.8 1299.14 Q1886.65 1304.87 1886.65 1315.81 Q1886.65 1326.72 1882.8 1332.48 Q1878.98 1338.21 1871.72 1338.21 Q1864.46 1338.21 1860.61 1332.48 Q1856.79 1326.72 1856.79 1315.81 Q1856.79 1304.87 1860.61 1299.14 Q1864.46 1293.39 1871.72 1293.39 Z" fill="#000000" fill-rule="nonzero" fill-opacity="1" /><path clip-path="url(#clip660)" d="M2020.63 1299.26 L2005.87 1322.32 L2020.63 1322.32 L2020.63 1299.26 M2019.09 1294.17 L2026.44 1294.17 L2026.44 1322.32 L2032.6 1322.32 L2032.6 1327.18 L2026.44 1327.18 L2026.44 1337.37 L2020.63 1337.37 L2020.63 1327.18 L2001.12 1327.18 L2001.12 1321.54 L2019.09 1294.17 Z" fill="#000000" fill-rule="nonzero" fill-opacity="1" /><path clip-path="url(#clip660)" d="M2054.77 1298.02 Q2050.26 1298.02 2047.97 1302.47 Q2045.71 1306.9 2045.71 1315.81 Q2045.71 1324.69 2047.97 1329.15 Q2050.26 1333.58 2054.77 1333.58 Q2059.31 1333.58 2061.57 1329.15 Q2063.85 1324.69 2063.85 1315.81 Q2063.85 1306.9 2061.57 1302.47 Q2059.31 1298.02 2054.77 1298.02 M2054.77 1293.39 Q2062.03 1293.39 2065.85 1299.14 Q2069.7 1304.87 2069.7 1315.81 Q2069.7 1326.72 2065.85 1332.48 Q2062.03 1338.21 2054.77 1338.21 Q2047.51 1338.21 2043.66 1332.48 Q2039.84 1326.72 2039.84 1315.81 Q2039.84 1304.87 2043.66 1299.14 Q2047.51 1293.39 2054.77 1293.39 Z" fill="#000000" fill-rule="nonzero" fill-opacity="1" /><path clip-path="url(#clip660)" d="M2080.98 1332.45 L2090.53 1332.45 L2090.53 1299.49 L2080.14 1301.57 L2080.14 1296.25 L2090.47 1294.17 L2096.32 1294.17 L2096.32 1332.45 L2105.87 1332.45 L2105.87 1337.37 L2080.98 1337.37 L2080.98 1332.45 Z" fill="#000000" fill-rule="nonzero" fill-opacity="1" /><path clip-path="url(#clip660)" d="M2141.02 1295.76 L2141.02 1304.96 L2151.99 1304.96 L2151.99 1309.1 L2141.02 1309.1 L2141.02 1326.69 Q2141.02 1330.65 2142.09 1331.78 Q2143.19 1332.91 2146.52 1332.91 L2151.99 1332.91 L2151.99 1337.37 L2146.52 1337.37 Q2140.36 1337.37 2138.01 1335.08 Q2135.67 1332.77 2135.67 1326.69 L2135.67 1309.1 L2131.77 1309.1 L2131.77 1304.96 L2135.67 1304.96 L2135.67 1295.76 L2141.02 1295.76 Z" fill="#000000" fill-rule="nonzero" fill-opacity="1" /><path clip-path="url(#clip660)" d="M2171.55 1308.69 Q2167.27 1308.69 2164.78 1312.05 Q2162.29 1315.38 2162.29 1321.19 Q2162.29 1327.01 2164.75 1330.37 Q2167.24 1333.69 2171.55 1333.69 Q2175.8 1333.69 2178.29 1330.34 Q2180.78 1326.98 2180.78 1321.19 Q2180.78 1315.43 2178.29 1312.08 Q2175.8 1308.69 2171.55 1308.69 M2171.55 1304.18 Q2178.5 1304.18 2182.46 1308.69 Q2186.42 1313.21 2186.42 1321.19 Q2186.42 1329.15 2182.46 1333.69 Q2178.5 1338.21 2171.55 1338.21 Q2164.58 1338.21 2160.61 1333.69 Q2156.68 1329.15 2156.68 1321.19 Q2156.68 1313.21 2160.61 1308.69 Q2164.58 1304.18 2171.55 1304.18 Z" fill="#000000" fill-rule="nonzero" fill-opacity="1" /><path clip-path="url(#clip660)" d="M2214.9 1294.17 L2237.84 1294.17 L2237.84 1299.09 L2220.25 1299.09 L2220.25 1309.68 Q2221.52 1309.24 2222.79 1309.04 Q2224.07 1308.81 2225.34 1308.81 Q2232.57 1308.81 2236.8 1312.77 Q2241.02 1316.74 2241.02 1323.51 Q2241.02 1330.48 2236.68 1334.36 Q2232.34 1338.21 2224.44 1338.21 Q2221.72 1338.21 2218.89 1337.74 Q2216.08 1337.28 2213.07 1336.35 L2213.07 1330.48 Q2215.68 1331.9 2218.45 1332.59 Q2221.23 1333.29 2224.33 1333.29 Q2229.33 1333.29 2232.26 1330.65 Q2235.18 1328.02 2235.18 1323.51 Q2235.18 1318.99 2232.26 1316.36 Q2229.33 1313.73 2224.33 1313.73 Q2221.98 1313.73 2219.64 1314.25 Q2217.33 1314.77 2214.9 1315.87 L2214.9 1294.17 Z" fill="#000000" fill-rule="nonzero" fill-opacity="1" /><path clip-path="url(#clip660)" d="M2265.04 1298.02 Q2260.53 1298.02 2258.24 1302.47 Q2255.98 1306.9 2255.98 1315.81 Q2255.98 1324.69 2258.24 1329.15 Q2260.53 1333.58 2265.04 1333.58 Q2269.58 1333.58 2271.84 1329.15 Q2274.13 1324.69 2274.13 1315.81 Q2274.13 1306.9 2271.84 1302.47 Q2269.58 1298.02 2265.04 1298.02 M2265.04 1293.39 Q2272.3 1293.39 2276.12 1299.14 Q2279.97 1304.87 2279.97 1315.81 Q2279.97 1326.72 2276.12 1332.48 Q2272.3 1338.21 2265.04 1338.21 Q2257.78 1338.21 2253.93 1332.48 Q2250.11 1326.72 2250.11 1315.81 Q2250.11 1304.87 2253.93 1299.14 Q2257.78 1293.39 2265.04 1293.39 Z" fill="#000000" fill-rule="nonzero" fill-opacity="1" /><path clip-path="url(#clip660)" d="M2302.74 1298.02 Q2298.23 1298.02 2295.94 1302.47 Q2293.69 1306.9 2293.69 1315.81 Q2293.69 1324.69 2295.94 1329.15 Q2298.23 1333.58 2302.74 1333.58 Q2307.28 1333.58 2309.54 1329.15 Q2311.83 1324.69 2311.83 1315.81 Q2311.83 1306.9 2309.54 1302.47 Q2307.28 1298.02 2302.74 1298.02 M2302.74 1293.39 Q2310 1293.39 2313.82 1299.14 Q2317.67 1304.87 2317.67 1315.81 Q2317.67 1326.72 2313.82 1332.48 Q2310 1338.21 2302.74 1338.21 Q2295.48 1338.21 2291.63 1332.48 Q2287.81 1326.72 2287.81 1315.81 Q2287.81 1304.87 2291.63 1299.14 Q2295.48 1293.39 2302.74 1293.39 Z" fill="#000000" fill-rule="nonzero" fill-opacity="1" /><path clip-path="url(#clip660)" d="M984.109 1378.04 L984.109 1385.45 Q979.784 1383.38 975.947 1382.37 Q972.11 1381.35 968.536 1381.35 Q962.33 1381.35 958.944 1383.76 Q955.597 1386.17 955.597 1390.61 Q955.597 1394.33 957.816 1396.25 Q960.073 1398.13 966.317 1399.3 L970.906 1400.24 Q979.407 1401.85 983.432 1405.95 Q987.495 1410.02 987.495 1416.86 Q987.495 1425.02 982.003 1429.24 Q976.549 1433.45 965.979 1433.45 Q961.991 1433.45 957.477 1432.55 Q953.001 1431.64 948.186 1429.88 L948.186 1422.05 Q952.813 1424.65 957.252 1425.96 Q961.69 1427.28 965.979 1427.28 Q972.486 1427.28 976.022 1424.72 Q979.558 1422.17 979.558 1417.43 Q979.558 1413.29 977 1410.96 Q974.48 1408.62 968.687 1407.46 L964.06 1406.56 Q955.559 1404.86 951.76 1401.25 Q947.961 1397.64 947.961 1391.21 Q947.961 1383.76 953.189 1379.47 Q958.455 1375.18 967.671 1375.18 Q971.621 1375.18 975.721 1375.9 Q979.821 1376.61 984.109 1378.04 Z" fill="#000000" fill-rule="nonzero" fill-opacity="1" /><path clip-path="url(#clip660)" d="M1018.19 1411.18 Q1009.8 1411.18 1006.57 1413.1 Q1003.33 1415.02 1003.33 1419.65 Q1003.33 1423.33 1005.74 1425.51 Q1008.18 1427.66 1012.36 1427.66 Q1018.11 1427.66 1021.57 1423.6 Q1025.07 1419.5 1025.07 1412.72 L1025.07 1411.18 L1018.19 1411.18 M1031.99 1408.32 L1031.99 1432.36 L1025.07 1432.36 L1025.07 1425.96 Q1022.7 1429.8 1019.17 1431.64 Q1015.63 1433.45 1010.52 1433.45 Q1004.05 1433.45 1000.21 1429.84 Q996.41 1426.19 996.41 1420.1 Q996.41 1412.99 1001.15 1409.38 Q1005.93 1405.77 1015.37 1405.77 L1025.07 1405.77 L1025.07 1405.09 Q1025.07 1400.31 1021.91 1397.72 Q1018.79 1395.08 1013.11 1395.08 Q1009.5 1395.08 1006.08 1395.95 Q1002.65 1396.81 999.494 1398.54 L999.494 1392.15 Q1003.29 1390.68 1006.87 1389.97 Q1010.44 1389.21 1013.83 1389.21 Q1022.97 1389.21 1027.48 1393.95 Q1031.99 1398.69 1031.99 1408.32 Z" fill="#000000" fill-rule="nonzero" fill-opacity="1" /><path clip-path="url(#clip660)" d="M1079.05 1398.32 Q1081.65 1393.65 1085.26 1391.43 Q1088.87 1389.21 1093.76 1389.21 Q1100.34 1389.21 1103.91 1393.84 Q1107.49 1398.43 1107.49 1406.93 L1107.49 1432.36 L1100.53 1432.36 L1100.53 1407.16 Q1100.53 1401.1 1098.39 1398.17 Q1096.24 1395.23 1091.84 1395.23 Q1086.46 1395.23 1083.34 1398.81 Q1080.22 1402.38 1080.22 1408.55 L1080.22 1432.36 L1073.26 1432.36 L1073.26 1407.16 Q1073.26 1401.06 1071.11 1398.17 Q1068.97 1395.23 1064.49 1395.23 Q1059.19 1395.23 1056.07 1398.84 Q1052.95 1402.42 1052.95 1408.55 L1052.95 1432.36 L1045.99 1432.36 L1045.99 1390.23 L1052.95 1390.23 L1052.95 1396.78 Q1055.32 1392.9 1058.63 1391.06 Q1061.94 1389.21 1066.49 1389.21 Q1071.08 1389.21 1074.27 1391.55 Q1077.51 1393.88 1079.05 1398.32 Z" fill="#000000" fill-rule="nonzero" fill-opacity="1" /><path clip-path="url(#clip660)" d="M1127.99 1426.04 L1127.99 1448.38 L1121.03 1448.38 L1121.03 1390.23 L1127.99 1390.23 L1127.99 1396.62 Q1130.17 1392.86 1133.48 1391.06 Q1136.83 1389.21 1141.46 1389.21 Q1149.13 1389.21 1153.91 1395.31 Q1158.72 1401.4 1158.72 1411.33 Q1158.72 1421.26 1153.91 1427.36 Q1149.13 1433.45 1141.46 1433.45 Q1136.83 1433.45 1133.48 1431.64 Q1130.17 1429.8 1127.99 1426.04 M1151.54 1411.33 Q1151.54 1403.7 1148.38 1399.37 Q1145.25 1395.01 1139.76 1395.01 Q1134.27 1395.01 1131.11 1399.37 Q1127.99 1403.7 1127.99 1411.33 Q1127.99 1418.97 1131.11 1423.33 Q1134.27 1427.66 1139.76 1427.66 Q1145.25 1427.66 1148.38 1423.33 Q1151.54 1418.97 1151.54 1411.33 Z" fill="#000000" fill-rule="nonzero" fill-opacity="1" /><path clip-path="url(#clip660)" d="M1170.19 1373.83 L1177.11 1373.83 L1177.11 1432.36 L1170.19 1432.36 L1170.19 1373.83 Z" fill="#000000" fill-rule="nonzero" fill-opacity="1" /><path clip-path="url(#clip660)" d="M1227.63 1409.56 L1227.63 1412.95 L1195.81 1412.95 Q1196.26 1420.1 1200.1 1423.86 Q1203.97 1427.58 1210.86 1427.58 Q1214.84 1427.58 1218.57 1426.6 Q1222.33 1425.63 1226.01 1423.67 L1226.01 1430.22 Q1222.29 1431.8 1218.38 1432.62 Q1214.47 1433.45 1210.44 1433.45 Q1200.36 1433.45 1194.46 1427.58 Q1188.59 1421.71 1188.59 1411.71 Q1188.59 1401.36 1194.15 1395.31 Q1199.76 1389.21 1209.24 1389.21 Q1217.74 1389.21 1222.67 1394.71 Q1227.63 1400.16 1227.63 1409.56 M1220.71 1407.53 Q1220.64 1401.85 1217.51 1398.47 Q1214.43 1395.08 1209.31 1395.08 Q1203.52 1395.08 1200.02 1398.36 Q1196.56 1401.63 1196.04 1407.57 L1220.71 1407.53 Z" fill="#000000" fill-rule="nonzero" fill-opacity="1" /><path clip-path="url(#clip660)" d="M1290.34 1391.47 L1290.34 1398.02 Q1287.4 1396.51 1284.24 1395.76 Q1281.08 1395.01 1277.7 1395.01 Q1272.55 1395.01 1269.95 1396.59 Q1267.39 1398.17 1267.39 1401.33 Q1267.39 1403.73 1269.24 1405.13 Q1271.08 1406.48 1276.65 1407.72 L1279.02 1408.25 Q1286.39 1409.83 1289.47 1412.72 Q1292.59 1415.58 1292.59 1420.74 Q1292.59 1426.6 1287.93 1430.03 Q1283.3 1433.45 1275.18 1433.45 Q1271.79 1433.45 1268.11 1432.77 Q1264.46 1432.13 1260.4 1430.82 L1260.4 1423.67 Q1264.23 1425.66 1267.96 1426.68 Q1271.68 1427.66 1275.33 1427.66 Q1280.22 1427.66 1282.85 1426 Q1285.48 1424.31 1285.48 1421.26 Q1285.48 1418.44 1283.57 1416.94 Q1281.69 1415.43 1275.25 1414.04 L1272.85 1413.48 Q1266.41 1412.12 1263.56 1409.34 Q1260.7 1406.52 1260.7 1401.63 Q1260.7 1395.68 1264.91 1392.45 Q1269.12 1389.21 1276.87 1389.21 Q1280.71 1389.21 1284.09 1389.78 Q1287.48 1390.34 1290.34 1391.47 Z" fill="#000000" fill-rule="nonzero" fill-opacity="1" /><path clip-path="url(#clip660)" d="M1303.62 1390.23 L1310.54 1390.23 L1310.54 1432.36 L1303.62 1432.36 L1303.62 1390.23 M1303.62 1373.83 L1310.54 1373.83 L1310.54 1382.59 L1303.62 1382.59 L1303.62 1373.83 Z" fill="#000000" fill-rule="nonzero" fill-opacity="1" /><path clip-path="url(#clip660)" d="M1322.01 1390.23 L1354.89 1390.23 L1354.89 1396.55 L1328.86 1426.83 L1354.89 1426.83 L1354.89 1432.36 L1321.07 1432.36 L1321.07 1426.04 L1347.1 1395.76 L1322.01 1395.76 L1322.01 1390.23 Z" fill="#000000" fill-rule="nonzero" fill-opacity="1" /><path clip-path="url(#clip660)" d="M1401.49 1409.56 L1401.49 1412.95 L1369.67 1412.95 Q1370.12 1420.1 1373.96 1423.86 Q1377.83 1427.58 1384.71 1427.58 Q1388.7 1427.58 1392.43 1426.6 Q1396.19 1425.63 1399.87 1423.67 L1399.87 1430.22 Q1396.15 1431.8 1392.24 1432.62 Q1388.33 1433.45 1384.3 1433.45 Q1374.22 1433.45 1368.31 1427.58 Q1362.45 1421.71 1362.45 1411.71 Q1362.45 1401.36 1368.01 1395.31 Q1373.62 1389.21 1383.1 1389.21 Q1391.6 1389.21 1396.53 1394.71 Q1401.49 1400.16 1401.49 1409.56 M1394.57 1407.53 Q1394.49 1401.85 1391.37 1398.47 Q1388.29 1395.08 1383.17 1395.08 Q1377.38 1395.08 1373.88 1398.36 Q1370.42 1401.63 1369.89 1407.57 L1394.57 1407.53 Z" fill="#000000" fill-rule="nonzero" fill-opacity="1" /><path clip-path="url(#clip660)" d="M1461.75 1396.7 Q1460.59 1396.02 1459.19 1395.72 Q1457.84 1395.38 1456.18 1395.38 Q1450.32 1395.38 1447.16 1399.22 Q1444.03 1403.02 1444.03 1410.17 L1444.03 1432.36 L1437.08 1432.36 L1437.08 1390.23 L1444.03 1390.23 L1444.03 1396.78 Q1446.22 1392.94 1449.71 1391.1 Q1453.21 1389.21 1458.22 1389.21 Q1458.93 1389.21 1459.8 1389.33 Q1460.66 1389.4 1461.71 1389.59 L1461.75 1396.7 Z" fill="#000000" fill-rule="nonzero" fill-opacity="1" /><path clip-path="url(#clip660)" d="M1488.16 1411.18 Q1479.77 1411.18 1476.53 1413.1 Q1473.3 1415.02 1473.3 1419.65 Q1473.3 1423.33 1475.71 1425.51 Q1478.15 1427.66 1482.33 1427.66 Q1488.08 1427.66 1491.54 1423.6 Q1495.04 1419.5 1495.04 1412.72 L1495.04 1411.18 L1488.16 1411.18 M1501.96 1408.32 L1501.96 1432.36 L1495.04 1432.36 L1495.04 1425.96 Q1492.67 1429.8 1489.14 1431.64 Q1485.6 1433.45 1480.48 1433.45 Q1474.01 1433.45 1470.18 1429.84 Q1466.38 1426.19 1466.38 1420.1 Q1466.38 1412.99 1471.12 1409.38 Q1475.89 1405.77 1485.34 1405.77 L1495.04 1405.77 L1495.04 1405.09 Q1495.04 1400.31 1491.88 1397.72 Q1488.76 1395.08 1483.08 1395.08 Q1479.47 1395.08 1476.05 1395.95 Q1472.62 1396.81 1469.46 1398.54 L1469.46 1392.15 Q1473.26 1390.68 1476.84 1389.97 Q1480.41 1389.21 1483.79 1389.21 Q1492.93 1389.21 1497.45 1393.95 Q1501.96 1398.69 1501.96 1408.32 Z" fill="#000000" fill-rule="nonzero" fill-opacity="1" /><path clip-path="url(#clip660)" d="M1551.24 1406.93 L1551.24 1432.36 L1544.32 1432.36 L1544.32 1407.16 Q1544.32 1401.18 1541.99 1398.2 Q1539.65 1395.23 1534.99 1395.23 Q1529.38 1395.23 1526.15 1398.81 Q1522.91 1402.38 1522.91 1408.55 L1522.91 1432.36 L1515.96 1432.36 L1515.96 1390.23 L1522.91 1390.23 L1522.91 1396.78 Q1525.4 1392.98 1528.74 1391.1 Q1532.13 1389.21 1536.53 1389.21 Q1543.79 1389.21 1547.51 1393.73 Q1551.24 1398.2 1551.24 1406.93 Z" fill="#000000" fill-rule="nonzero" fill-opacity="1" /><path clip-path="url(#clip660)" d="M1592.77 1410.81 Q1592.77 1403.28 1589.64 1399.15 Q1586.56 1395.01 1580.96 1395.01 Q1575.39 1395.01 1572.27 1399.15 Q1569.18 1403.28 1569.18 1410.81 Q1569.18 1418.29 1572.27 1422.43 Q1575.39 1426.57 1580.96 1426.57 Q1586.56 1426.57 1589.64 1422.43 Q1592.77 1418.29 1592.77 1410.81 M1599.69 1427.13 Q1599.69 1437.89 1594.91 1443.12 Q1590.13 1448.38 1580.28 1448.38 Q1576.63 1448.38 1573.39 1447.82 Q1570.16 1447.29 1567.11 1446.16 L1567.11 1439.43 Q1570.16 1441.09 1573.13 1441.88 Q1576.1 1442.67 1579.19 1442.67 Q1586 1442.67 1589.38 1439.09 Q1592.77 1435.56 1592.77 1428.37 L1592.77 1424.95 Q1590.62 1428.67 1587.27 1430.52 Q1583.93 1432.36 1579.26 1432.36 Q1571.51 1432.36 1566.77 1426.45 Q1562.03 1420.55 1562.03 1410.81 Q1562.03 1401.03 1566.77 1395.12 Q1571.51 1389.21 1579.26 1389.21 Q1583.93 1389.21 1587.27 1391.06 Q1590.62 1392.9 1592.77 1396.62 L1592.77 1390.23 L1599.69 1390.23 L1599.69 1427.13 Z" fill="#000000" fill-rule="nonzero" fill-opacity="1" /><path clip-path="url(#clip660)" d="M1649.98 1409.56 L1649.98 1412.95 L1618.16 1412.95 Q1618.61 1420.1 1622.44 1423.86 Q1626.32 1427.58 1633.2 1427.58 Q1637.19 1427.58 1640.91 1426.6 Q1644.68 1425.63 1648.36 1423.67 L1648.36 1430.22 Q1644.64 1431.8 1640.73 1432.62 Q1636.81 1433.45 1632.79 1433.45 Q1622.71 1433.45 1616.8 1427.58 Q1610.93 1421.71 1610.93 1411.71 Q1610.93 1401.36 1616.5 1395.31 Q1622.11 1389.21 1631.59 1389.21 Q1640.09 1389.21 1645.01 1394.71 Q1649.98 1400.16 1649.98 1409.56 M1643.06 1407.53 Q1642.98 1401.85 1639.86 1398.47 Q1636.78 1395.08 1631.66 1395.08 Q1625.87 1395.08 1622.37 1398.36 Q1618.91 1401.63 1618.38 1407.57 L1643.06 1407.53 Z" fill="#000000" fill-rule="nonzero" fill-opacity="1" /><polyline clip-path="url(#clip662)" style="stroke:#000000; stroke-linecap:round; stroke-linejoin:round; stroke-width:2; stroke-opacity:0.1; fill:none" points="386.917,1170.34 2211.02,1170.34 "/>
<polyline clip-path="url(#clip662)" style="stroke:#000000; stroke-linecap:round; stroke-linejoin:round; stroke-width:2; stroke-opacity:0.1; fill:none" points="386.917,853.363 2211.02,853.363 "/>
<polyline clip-path="url(#clip662)" style="stroke:#000000; stroke-linecap:round; stroke-linejoin:round; stroke-width:2; stroke-opacity:0.1; fill:none" points="386.917,536.385 2211.02,536.385 "/>
<polyline clip-path="url(#clip662)" style="stroke:#000000; stroke-linecap:round; stroke-linejoin:round; stroke-width:2; stroke-opacity:0.1; fill:none" points="386.917,219.406 2211.02,219.406 "/>
<polyline clip-path="url(#clip660)" style="stroke:#000000; stroke-linecap:round; stroke-linejoin:round; stroke-width:4; stroke-opacity:1; fill:none" points="386.917,1264.17 386.917,188.976 "/>
<polyline clip-path="url(#clip660)" style="stroke:#000000; stroke-linecap:round; stroke-linejoin:round; stroke-width:4; stroke-opacity:1; fill:none" points="386.917,1170.34 405.814,1170.34 "/>
<polyline clip-path="url(#clip660)" style="stroke:#000000; stroke-linecap:round; stroke-linejoin:round; stroke-width:4; stroke-opacity:1; fill:none" points="386.917,853.363 405.814,853.363 "/>
<polyline clip-path="url(#clip660)" style="stroke:#000000; stroke-linecap:round; stroke-linejoin:round; stroke-width:4; stroke-opacity:1; fill:none" points="386.917,536.385 405.814,536.385 "/>
<polyline clip-path="url(#clip660)" style="stroke:#000000; stroke-linecap:round; stroke-linejoin:round; stroke-width:4; stroke-opacity:1; fill:none" points="386.917,219.406 405.814,219.406 "/>
<path clip-path="url(#clip660)" d="M280.576 1152.59 Q276.062 1152.59 273.776 1157.05 Q271.519 1161.47 271.519 1170.39 Q271.519 1179.27 273.776 1183.72 Q276.062 1188.15 280.576 1188.15 Q285.118 1188.15 287.375 1183.72 Q289.661 1179.27 289.661 1170.39 Q289.661 1161.47 287.375 1157.05 Q285.118 1152.59 280.576 1152.59 M280.576 1147.96 Q287.838 1147.96 291.658 1153.72 Q295.506 1159.45 295.506 1170.39 Q295.506 1181.29 291.658 1187.05 Q287.838 1192.78 280.576 1192.78 Q273.313 1192.78 269.465 1187.05 Q265.645 1181.29 265.645 1170.39 Q265.645 1159.45 269.465 1153.72 Q273.313 1147.96 280.576 1147.96 Z" fill="#000000" fill-rule="nonzero" fill-opacity="1" /><path clip-path="url(#clip660)" d="M305.778 1184.59 L311.883 1184.59 L311.883 1191.94 L305.778 1191.94 L305.778 1184.59 Z" fill="#000000" fill-rule="nonzero" fill-opacity="1" /><path clip-path="url(#clip660)" d="M323.139 1148.74 L350.917 1148.74 L350.917 1151.23 L335.234 1191.94 L329.129 1191.94 L343.885 1153.66 L323.139 1153.66 L323.139 1148.74 Z" fill="#000000" fill-rule="nonzero" fill-opacity="1" /><path clip-path="url(#clip660)" d="M279.563 835.612 Q275.049 835.612 272.763 840.068 Q270.506 844.495 270.506 853.407 Q270.506 862.29 272.763 866.746 Q275.049 871.173 279.563 871.173 Q284.106 871.173 286.363 866.746 Q288.649 862.29 288.649 853.407 Q288.649 844.495 286.363 840.068 Q284.106 835.612 279.563 835.612 M279.563 830.982 Q286.826 830.982 290.645 836.74 Q294.493 842.469 294.493 853.407 Q294.493 864.315 290.645 870.073 Q286.826 875.802 279.563 875.802 Q272.3 875.802 268.452 870.073 Q264.632 864.315 264.632 853.407 Q264.632 842.469 268.452 836.74 Q272.3 830.982 279.563 830.982 Z" fill="#000000" fill-rule="nonzero" fill-opacity="1" /><path clip-path="url(#clip660)" d="M304.765 867.614 L310.871 867.614 L310.871 874.963 L304.765 874.963 L304.765 867.614 Z" fill="#000000" fill-rule="nonzero" fill-opacity="1" /><path clip-path="url(#clip660)" d="M336.102 854.448 Q331.935 854.448 329.534 856.676 Q327.161 858.904 327.161 862.811 Q327.161 866.717 329.534 868.945 Q331.935 871.173 336.102 871.173 Q340.269 871.173 342.67 868.945 Q345.072 866.688 345.072 862.811 Q345.072 858.904 342.67 856.676 Q340.298 854.448 336.102 854.448 M330.257 851.96 Q326.496 851.034 324.383 848.459 Q322.3 845.884 322.3 842.18 Q322.3 837.001 325.975 833.991 Q329.678 830.982 336.102 830.982 Q342.554 830.982 346.229 833.991 Q349.904 837.001 349.904 842.18 Q349.904 845.884 347.792 848.459 Q345.708 851.034 341.976 851.96 Q346.2 852.944 348.544 855.808 Q350.917 858.673 350.917 862.811 Q350.917 869.09 347.068 872.446 Q343.249 875.802 336.102 875.802 Q328.955 875.802 325.107 872.446 Q321.287 869.09 321.287 862.811 Q321.287 858.673 323.66 855.808 Q326.033 852.944 330.257 851.96 M328.116 842.73 Q328.116 846.086 330.199 847.967 Q332.311 849.848 336.102 849.848 Q339.864 849.848 341.976 847.967 Q344.117 846.086 344.117 842.73 Q344.117 839.373 341.976 837.493 Q339.864 835.612 336.102 835.612 Q332.311 835.612 330.199 837.493 Q328.116 839.373 328.116 842.73 Z" fill="#000000" fill-rule="nonzero" fill-opacity="1" /><path clip-path="url(#clip660)" d="M279.679 518.633 Q275.165 518.633 272.879 523.089 Q270.622 527.516 270.622 536.428 Q270.622 545.311 272.879 549.767 Q275.165 554.194 279.679 554.194 Q284.221 554.194 286.478 549.767 Q288.764 545.311 288.764 536.428 Q288.764 527.516 286.478 523.089 Q284.221 518.633 279.679 518.633 M279.679 514.004 Q286.941 514.004 290.761 519.762 Q294.609 525.491 294.609 536.428 Q294.609 547.337 290.761 553.095 Q286.941 558.824 279.679 558.824 Q272.416 558.824 268.568 553.095 Q264.748 547.337 264.748 536.428 Q264.748 525.491 268.568 519.762 Q272.416 514.004 279.679 514.004 Z" fill="#000000" fill-rule="nonzero" fill-opacity="1" /><path clip-path="url(#clip660)" d="M304.881 550.635 L310.986 550.635 L310.986 557.985 L304.881 557.985 L304.881 550.635 Z" fill="#000000" fill-rule="nonzero" fill-opacity="1" /><path clip-path="url(#clip660)" d="M323.891 557.088 L323.891 551.764 Q326.09 552.805 328.347 553.355 Q330.604 553.905 332.774 553.905 Q338.561 553.905 341.6 550.028 Q344.667 546.121 345.101 538.193 Q343.423 540.682 340.847 542.013 Q338.272 543.344 335.147 543.344 Q328.666 543.344 324.875 539.437 Q321.114 535.502 321.114 528.703 Q321.114 522.048 325.049 518.026 Q328.984 514.004 335.523 514.004 Q343.017 514.004 346.953 519.762 Q350.917 525.491 350.917 536.428 Q350.917 546.642 346.056 552.748 Q341.223 558.824 333.035 558.824 Q330.836 558.824 328.579 558.39 Q326.322 557.956 323.891 557.088 M335.523 538.772 Q339.458 538.772 341.744 536.081 Q344.059 533.39 344.059 528.703 Q344.059 524.044 341.744 521.353 Q339.458 518.633 335.523 518.633 Q331.588 518.633 329.273 521.353 Q326.987 524.044 326.987 528.703 Q326.987 533.39 329.273 536.081 Q331.588 538.772 335.523 538.772 Z" fill="#000000" fill-rule="nonzero" fill-opacity="1" /><path clip-path="url(#clip660)" d="M267.96 236.087 L277.509 236.087 L277.509 203.13 L267.121 205.214 L267.121 199.89 L277.451 197.806 L283.296 197.806 L283.296 236.087 L292.844 236.087 L292.844 241.006 L267.96 241.006 L267.96 236.087 Z" fill="#000000" fill-rule="nonzero" fill-opacity="1" /><path clip-path="url(#clip660)" d="M304.65 233.657 L310.755 233.657 L310.755 241.006 L304.65 241.006 L304.65 233.657 Z" fill="#000000" fill-rule="nonzero" fill-opacity="1" /><path clip-path="url(#clip660)" d="M335.986 201.655 Q331.472 201.655 329.186 206.111 Q326.93 210.538 326.93 219.45 Q326.93 228.333 329.186 232.789 Q331.472 237.216 335.986 237.216 Q340.529 237.216 342.786 232.789 Q345.072 228.333 345.072 219.45 Q345.072 210.538 342.786 206.111 Q340.529 201.655 335.986 201.655 M335.986 197.025 Q343.249 197.025 347.068 202.783 Q350.917 208.512 350.917 219.45 Q350.917 230.358 347.068 236.116 Q343.249 241.845 335.986 241.845 Q328.724 241.845 324.875 236.116 Q321.056 230.358 321.056 219.45 Q321.056 208.512 324.875 202.783 Q328.724 197.025 335.986 197.025 Z" fill="#000000" fill-rule="nonzero" fill-opacity="1" /><path clip-path="url(#clip660)" d="M155.624 1005.55 L155.624 994.225 L193.842 979.894 L155.624 965.487 L155.624 954.165 L211.784 954.165 L211.784 961.575 L162.47 961.575 L200.989 976.057 L200.989 983.693 L162.47 998.175 L211.784 998.175 L211.784 1005.55 L155.624 1005.55 Z" fill="#000000" fill-rule="nonzero" fill-opacity="1" /><path clip-path="url(#clip660)" d="M188.989 903.346 L192.375 903.346 L192.375 935.169 Q199.522 934.718 203.283 930.881 Q207.007 927.006 207.007 920.123 Q207.007 916.135 206.029 912.412 Q205.051 908.65 203.095 904.964 L209.64 904.964 Q211.22 908.688 212.048 912.6 Q212.875 916.512 212.875 920.536 Q212.875 930.617 207.007 936.523 Q201.139 942.391 191.134 942.391 Q180.789 942.391 174.733 936.824 Q168.639 931.219 168.639 921.74 Q168.639 913.239 174.131 908.311 Q179.586 903.346 188.989 903.346 M186.958 910.267 Q181.278 910.343 177.893 913.465 Q174.507 916.549 174.507 921.665 Q174.507 927.458 177.78 930.956 Q181.053 934.417 186.996 934.943 L186.958 910.267 Z" fill="#000000" fill-rule="nonzero" fill-opacity="1" /><path clip-path="url(#clip660)" d="M190.607 872.84 Q190.607 881.228 192.525 884.463 Q194.444 887.698 199.07 887.698 Q202.757 887.698 204.938 885.291 Q207.082 882.846 207.082 878.67 Q207.082 872.915 203.02 869.455 Q198.92 865.956 192.149 865.956 L190.607 865.956 L190.607 872.84 M187.748 859.035 L211.784 859.035 L211.784 865.956 L205.39 865.956 Q209.227 868.326 211.07 871.862 Q212.875 875.398 212.875 880.514 Q212.875 886.983 209.264 890.82 Q205.615 894.619 199.522 894.619 Q192.412 894.619 188.801 889.88 Q185.19 885.103 185.19 875.661 L185.19 865.956 L184.513 865.956 Q179.736 865.956 177.141 869.116 Q174.507 872.238 174.507 877.918 Q174.507 881.529 175.373 884.952 Q176.238 888.375 177.968 891.535 L171.573 891.535 Q170.106 887.736 169.392 884.162 Q168.639 880.589 168.639 877.203 Q168.639 868.063 173.379 863.549 Q178.119 859.035 187.748 859.035 Z" fill="#000000" fill-rule="nonzero" fill-opacity="1" /><path clip-path="url(#clip660)" d="M186.356 809.759 L211.784 809.759 L211.784 816.68 L186.582 816.68 Q180.601 816.68 177.63 819.012 Q174.658 821.344 174.658 826.009 Q174.658 831.613 178.231 834.848 Q181.805 838.083 187.974 838.083 L211.784 838.083 L211.784 845.042 L169.655 845.042 L169.655 838.083 L176.2 838.083 Q172.401 835.601 170.52 832.253 Q168.639 828.867 168.639 824.466 Q168.639 817.207 173.153 813.483 Q177.63 809.759 186.356 809.759 Z" fill="#000000" fill-rule="nonzero" fill-opacity="1" /><path clip-path="url(#clip660)" d="M157.693 764.62 L169.655 764.62 L169.655 750.364 L175.034 750.364 L175.034 764.62 L197.904 764.62 Q203.058 764.62 204.525 763.228 Q205.992 761.799 205.992 757.473 L205.992 750.364 L211.784 750.364 L211.784 757.473 Q211.784 765.485 208.813 768.532 Q205.804 771.579 197.904 771.579 L175.034 771.579 L175.034 776.657 L169.655 776.657 L169.655 771.579 L157.693 771.579 L157.693 764.62 Z" fill="#000000" fill-rule="nonzero" fill-opacity="1" /><path clip-path="url(#clip660)" d="M188.989 705.225 L192.375 705.225 L192.375 737.048 Q199.522 736.597 203.283 732.76 Q207.007 728.885 207.007 722.002 Q207.007 718.014 206.029 714.29 Q205.051 710.529 203.095 706.843 L209.64 706.843 Q211.22 710.567 212.048 714.479 Q212.875 718.391 212.875 722.415 Q212.875 732.496 207.007 738.402 Q201.139 744.27 191.134 744.27 Q180.789 744.27 174.733 738.703 Q168.639 733.098 168.639 723.619 Q168.639 715.118 174.131 710.19 Q179.586 705.225 188.989 705.225 M186.958 712.146 Q181.278 712.222 177.893 715.344 Q174.507 718.428 174.507 723.544 Q174.507 729.337 177.78 732.835 Q181.053 736.296 186.996 736.822 L186.958 712.146 Z" fill="#000000" fill-rule="nonzero" fill-opacity="1" /><path clip-path="url(#clip660)" d="M170.896 667.008 L177.441 667.008 Q175.937 669.942 175.185 673.101 Q174.432 676.261 174.432 679.647 Q174.432 684.8 176.012 687.395 Q177.592 689.953 180.752 689.953 Q183.159 689.953 184.551 688.11 Q185.905 686.267 187.146 680.7 L187.673 678.33 Q189.253 670.957 192.149 667.873 Q195.008 664.751 200.161 664.751 Q206.029 664.751 209.452 669.415 Q212.875 674.042 212.875 682.167 Q212.875 685.552 212.198 689.239 Q211.559 692.887 210.242 696.95 L203.095 696.95 Q205.089 693.113 206.104 689.389 Q207.082 685.665 207.082 682.016 Q207.082 677.126 205.427 674.493 Q203.735 671.86 200.688 671.86 Q197.867 671.86 196.362 673.779 Q194.857 675.659 193.466 682.092 L192.901 684.499 Q191.547 690.931 188.764 693.79 Q185.943 696.649 181.053 696.649 Q175.109 696.649 171.874 692.436 Q168.639 688.223 168.639 680.474 Q168.639 676.637 169.204 673.252 Q169.768 669.867 170.896 667.008 Z" fill="#000000" fill-rule="nonzero" fill-opacity="1" /><path clip-path="url(#clip660)" d="M157.693 646.883 L169.655 646.883 L169.655 632.627 L175.034 632.627 L175.034 646.883 L197.904 646.883 Q203.058 646.883 204.525 645.492 Q205.992 644.062 205.992 639.736 L205.992 632.627 L211.784 632.627 L211.784 639.736 Q211.784 647.749 208.813 650.795 Q205.804 653.842 197.904 653.842 L175.034 653.842 L175.034 658.92 L169.655 658.92 L169.655 653.842 L157.693 653.842 L157.693 646.883 Z" fill="#000000" fill-rule="nonzero" fill-opacity="1" /><path clip-path="url(#clip660)" d="M163.11 579.965 L191.058 590.272 L191.058 569.621 L163.11 579.965 M155.624 584.254 L155.624 575.64 L211.784 554.236 L211.784 562.136 L197.378 567.251 L197.378 592.567 L211.784 597.682 L211.784 605.694 L155.624 584.254 Z" fill="#000000" fill-rule="nonzero" fill-opacity="1" /><path clip-path="url(#clip660)" d="M155.624 546.901 L155.624 539.265 L189.742 539.265 Q198.769 539.265 202.757 535.993 Q206.706 532.72 206.706 525.385 Q206.706 518.088 202.757 514.815 Q198.769 511.543 189.742 511.543 L155.624 511.543 L155.624 503.907 L190.682 503.907 Q201.666 503.907 207.271 509.361 Q212.875 514.778 212.875 525.385 Q212.875 536.03 207.271 541.485 Q201.666 546.901 190.682 546.901 L155.624 546.901 Z" fill="#000000" fill-rule="nonzero" fill-opacity="1" /><path clip-path="url(#clip660)" d="M159.95 447.596 L167.962 447.596 Q164.389 451.433 162.621 455.797 Q160.853 460.122 160.853 465.012 Q160.853 474.642 166.759 479.758 Q172.627 484.873 183.761 484.873 Q194.857 484.873 200.763 479.758 Q206.631 474.642 206.631 465.012 Q206.631 460.122 204.863 455.797 Q203.095 451.433 199.522 447.596 L207.459 447.596 Q210.167 451.584 211.521 456.06 Q212.875 460.498 212.875 465.464 Q212.875 478.215 205.089 485.55 Q197.265 492.885 183.761 492.885 Q170.219 492.885 162.433 485.55 Q154.609 478.215 154.609 465.464 Q154.609 460.423 155.963 455.985 Q157.28 451.508 159.95 447.596 Z" fill="#000000" fill-rule="nonzero" fill-opacity="1" /><path clip-path="url(#clip662)" d="M438.542 1075.25 L868.756 766.194 L1298.97 663.176 L1729.18 766.194 L2159.4 441.291 L2159.4 219.406 L1729.18 504.687 L1298.97 409.593 L868.756 306.575 L438.542 591.856  Z" fill="#1f77b4" fill-rule="evenodd" fill-opacity="0.15"/>
<polyline clip-path="url(#clip662)" style="stroke:#1f77b4; stroke-linecap:round; stroke-linejoin:round; stroke-width:20; stroke-opacity:1; fill:none" points="438.542,679.025 868.756,583.932 1298.97,599.781 1729.18,568.083 2159.4,251.104 "/>
<circle clip-path="url(#clip662)" cx="438.542" cy="679.025" r="21.6" fill="#1f77b4" fill-rule="evenodd" fill-opacity="1" stroke="#000000" stroke-opacity="1" stroke-width="3.2"/>
<circle clip-path="url(#clip662)" cx="868.756" cy="583.932" r="21.6" fill="#1f77b4" fill-rule="evenodd" fill-opacity="1" stroke="#000000" stroke-opacity="1" stroke-width="3.2"/>
<circle clip-path="url(#clip662)" cx="1298.97" cy="599.781" r="21.6" fill="#1f77b4" fill-rule="evenodd" fill-opacity="1" stroke="#000000" stroke-opacity="1" stroke-width="3.2"/>
<circle clip-path="url(#clip662)" cx="1729.18" cy="568.083" r="21.6" fill="#1f77b4" fill-rule="evenodd" fill-opacity="1" stroke="#000000" stroke-opacity="1" stroke-width="3.2"/>
<circle clip-path="url(#clip662)" cx="2159.4" cy="251.104" r="21.6" fill="#1f77b4" fill-rule="evenodd" fill-opacity="1" stroke="#000000" stroke-opacity="1" stroke-width="3.2"/>
<path clip-path="url(#clip662)" d="M438.542 861.288 L868.756 774.119 L1298.97 663.176 L1729.18 805.817 L2159.4 251.104 L2159.4 219.406 L1729.18 480.914 L1298.97 377.896 L868.756 274.878 L438.542 377.896  Z" fill="#ff7e0d" fill-rule="evenodd" fill-opacity="0.15"/>
<polyline clip-path="url(#clip662)" style="stroke:#ff7e0d; stroke-linecap:round; stroke-linejoin:round; stroke-width:20; stroke-opacity:1; fill:none" points="438.542,647.327 868.756,536.385 1298.97,568.083 1729.18,615.629 2159.4,251.104 "/>
<circle clip-path="url(#clip662)" cx="438.542" cy="647.327" r="21.6" fill="#ff7e0d" fill-rule="evenodd" fill-opacity="1" stroke="#000000" stroke-opacity="1" stroke-width="3.2"/>
<circle clip-path="url(#clip662)" cx="868.756" cy="536.385" r="21.6" fill="#ff7e0d" fill-rule="evenodd" fill-opacity="1" stroke="#000000" stroke-opacity="1" stroke-width="3.2"/>
<circle clip-path="url(#clip662)" cx="1298.97" cy="568.083" r="21.6" fill="#ff7e0d" fill-rule="evenodd" fill-opacity="1" stroke="#000000" stroke-opacity="1" stroke-width="3.2"/>
<circle clip-path="url(#clip662)" cx="1729.18" cy="615.629" r="21.6" fill="#ff7e0d" fill-rule="evenodd" fill-opacity="1" stroke="#000000" stroke-opacity="1" stroke-width="3.2"/>
<circle clip-path="url(#clip662)" cx="2159.4" cy="251.104" r="21.6" fill="#ff7e0d" fill-rule="evenodd" fill-opacity="1" stroke="#000000" stroke-opacity="1" stroke-width="3.2"/>
<path clip-path="url(#clip662)" d="M438.542 1011.85 L868.756 932.608 L1298.97 663.176 L1729.18 821.666 L2159.4 251.104 L2159.4 219.406 L1729.18 488.838 L1298.97 377.896 L868.756 306.575 L438.542 465.065  Z" fill="#2ba02b" fill-rule="evenodd" fill-opacity="0.15"/>
<polyline clip-path="url(#clip662)" style="stroke:#2ba02b; stroke-linecap:round; stroke-linejoin:round; stroke-width:20; stroke-opacity:1; fill:none" points="438.542,694.874 868.756,647.327 1298.97,536.385 1729.18,599.781 2159.4,251.104 "/>
<circle clip-path="url(#clip662)" cx="438.542" cy="694.874" r="21.6" fill="#2ba02b" fill-rule="evenodd" fill-opacity="1" stroke="#000000" stroke-opacity="1" stroke-width="3.2"/>
<circle clip-path="url(#clip662)" cx="868.756" cy="647.327" r="21.6" fill="#2ba02b" fill-rule="evenodd" fill-opacity="1" stroke="#000000" stroke-opacity="1" stroke-width="3.2"/>
<circle clip-path="url(#clip662)" cx="1298.97" cy="536.385" r="21.6" fill="#2ba02b" fill-rule="evenodd" fill-opacity="1" stroke="#000000" stroke-opacity="1" stroke-width="3.2"/>
<circle clip-path="url(#clip662)" cx="1729.18" cy="599.781" r="21.6" fill="#2ba02b" fill-rule="evenodd" fill-opacity="1" stroke="#000000" stroke-opacity="1" stroke-width="3.2"/>
<circle clip-path="url(#clip662)" cx="2159.4" cy="251.104" r="21.6" fill="#2ba02b" fill-rule="evenodd" fill-opacity="1" stroke="#000000" stroke-opacity="1" stroke-width="3.2"/>
<path clip-path="url(#clip662)" d="M438.542 1233.74 L868.756 908.835 L1298.97 726.572 L1729.18 892.986 L2159.4 346.198 L2159.4 282.802 L1729.18 591.856 L1298.97 441.291 L868.756 583.932 L438.542 623.554  Z" fill="#d52628" fill-rule="evenodd" fill-opacity="0.15"/>
<polyline clip-path="url(#clip662)" style="stroke:#d52628; stroke-linecap:round; stroke-linejoin:round; stroke-width:20; stroke-opacity:1; fill:none" points="438.542,726.572 868.756,789.968 1298.97,568.083 1729.18,647.327 2159.4,314.5 "/>
<circle clip-path="url(#clip662)" cx="438.542" cy="726.572" r="21.6" fill="#d52628" fill-rule="evenodd" fill-opacity="1" stroke="#000000" stroke-opacity="1" stroke-width="3.2"/>
<circle clip-path="url(#clip662)" cx="868.756" cy="789.968" r="21.6" fill="#d52628" fill-rule="evenodd" fill-opacity="1" stroke="#000000" stroke-opacity="1" stroke-width="3.2"/>
<circle clip-path="url(#clip662)" cx="1298.97" cy="568.083" r="21.6" fill="#d52628" fill-rule="evenodd" fill-opacity="1" stroke="#000000" stroke-opacity="1" stroke-width="3.2"/>
<circle clip-path="url(#clip662)" cx="1729.18" cy="647.327" r="21.6" fill="#d52628" fill-rule="evenodd" fill-opacity="1" stroke="#000000" stroke-opacity="1" stroke-width="3.2"/>
<circle clip-path="url(#clip662)" cx="2159.4" cy="314.5" r="21.6" fill="#d52628" fill-rule="evenodd" fill-opacity="1" stroke="#000000" stroke-opacity="1" stroke-width="3.2"/>
<path clip-path="url(#clip662)" d="M438.542 1075.25 L868.756 1154.49 L1298.97 694.874 L1729.18 908.835 L2159.4 758.27 L2159.4 251.104 L1729.18 583.932 L1298.97 409.593 L868.756 631.478 L438.542 576.007  Z" fill="#9466bd" fill-rule="evenodd" fill-opacity="0.15"/>
<polyline clip-path="url(#clip662)" style="stroke:#9466bd; stroke-linecap:round; stroke-linejoin:round; stroke-width:20; stroke-opacity:1; fill:none" points="438.542,694.874 868.756,916.759 1298.97,663.176 1729.18,631.478 2159.4,251.104 "/>
<circle clip-path="url(#clip662)" cx="438.542" cy="694.874" r="21.6" fill="#9466bd" fill-rule="evenodd" fill-opacity="1" stroke="#000000" stroke-opacity="1" stroke-width="3.2"/>
<circle clip-path="url(#clip662)" cx="868.756" cy="916.759" r="21.6" fill="#9466bd" fill-rule="evenodd" fill-opacity="1" stroke="#000000" stroke-opacity="1" stroke-width="3.2"/>
<circle clip-path="url(#clip662)" cx="1298.97" cy="663.176" r="21.6" fill="#9466bd" fill-rule="evenodd" fill-opacity="1" stroke="#000000" stroke-opacity="1" stroke-width="3.2"/>
<circle clip-path="url(#clip662)" cx="1729.18" cy="631.478" r="21.6" fill="#9466bd" fill-rule="evenodd" fill-opacity="1" stroke="#000000" stroke-opacity="1" stroke-width="3.2"/>
<circle clip-path="url(#clip662)" cx="2159.4" cy="251.104" r="21.6" fill="#9466bd" fill-rule="evenodd" fill-opacity="1" stroke="#000000" stroke-opacity="1" stroke-width="3.2"/>
<path clip-path="url(#clip660)" d="M1425.68 1228.33 L2150.22 1228.33 L2150.22 839.528 L1425.68 839.528  Z" fill="#ffffff" fill-rule="evenodd" fill-opacity="1"/>
<polyline clip-path="url(#clip660)" style="stroke:#000000; stroke-linecap:round; stroke-linejoin:round; stroke-width:4; stroke-opacity:1; fill:none" points="1425.68,1228.33 2150.22,1228.33 2150.22,839.528 1425.68,839.528 1425.68,1228.33 "/>
<polyline clip-path="url(#clip660)" style="stroke:#1f77b4; stroke-linecap:round; stroke-linejoin:round; stroke-width:25; stroke-opacity:1; fill:none" points="1445.95,904.328 1567.56,904.328 "/>
<circle clip-path="url(#clip660)" cx="1506.75" cy="904.328" r="13.5119" fill="#1f77b4" fill-rule="evenodd" fill-opacity="1" stroke="#000000" stroke-opacity="1" stroke-width="3.93846"/>
<path clip-path="url(#clip660)" d="M1607.62 888.486 L1599.69 909.985 L1615.57 909.985 L1607.62 888.486 M1604.32 882.728 L1610.94 882.728 L1627.41 925.928 L1621.33 925.928 L1617.4 914.846 L1597.92 914.846 L1593.99 925.928 L1587.83 925.928 L1604.32 882.728 Z" fill="#000000" fill-rule="nonzero" fill-opacity="1" /><path clip-path="url(#clip660)" d="M1632.94 913.139 L1632.94 893.521 L1638.26 893.521 L1638.26 912.936 Q1638.26 917.537 1640.05 919.851 Q1641.85 922.137 1645.44 922.137 Q1649.75 922.137 1652.23 919.389 Q1654.75 916.64 1654.75 911.894 L1654.75 893.521 L1660.08 893.521 L1660.08 925.928 L1654.75 925.928 L1654.75 920.951 Q1652.81 923.902 1650.24 925.349 Q1647.69 926.767 1644.31 926.767 Q1638.72 926.767 1635.83 923.295 Q1632.94 919.823 1632.94 913.139 M1646.33 892.739 L1646.33 892.739 Z" fill="#000000" fill-rule="nonzero" fill-opacity="1" /><path clip-path="url(#clip660)" d="M1676.31 884.319 L1676.31 893.521 L1687.28 893.521 L1687.28 897.658 L1676.31 897.658 L1676.31 915.251 Q1676.31 919.215 1677.38 920.343 Q1678.48 921.472 1681.81 921.472 L1687.28 921.472 L1687.28 925.928 L1681.81 925.928 Q1675.64 925.928 1673.3 923.642 Q1670.96 921.327 1670.96 915.251 L1670.96 897.658 L1667.05 897.658 L1667.05 893.521 L1670.96 893.521 L1670.96 884.319 L1676.31 884.319 Z" fill="#000000" fill-rule="nonzero" fill-opacity="1" /><path clip-path="url(#clip660)" d="M1706.84 897.253 Q1702.55 897.253 1700.06 900.61 Q1697.58 903.937 1697.58 909.753 Q1697.58 915.569 1700.04 918.926 Q1702.52 922.253 1706.84 922.253 Q1711.09 922.253 1713.58 918.897 Q1716.07 915.54 1716.07 909.753 Q1716.07 903.995 1713.58 900.639 Q1711.09 897.253 1706.84 897.253 M1706.84 892.739 Q1713.78 892.739 1717.74 897.253 Q1721.71 901.767 1721.71 909.753 Q1721.71 917.71 1717.74 922.253 Q1713.78 926.767 1706.84 926.767 Q1699.86 926.767 1695.9 922.253 Q1691.96 917.71 1691.96 909.753 Q1691.96 901.767 1695.9 897.253 Q1699.86 892.739 1706.84 892.739 Z" fill="#000000" fill-rule="nonzero" fill-opacity="1" /><path clip-path="url(#clip660)" d="M1736.61 887.531 L1736.61 903.764 L1743.96 903.764 Q1748.04 903.764 1750.27 901.651 Q1752.49 899.539 1752.49 895.633 Q1752.49 891.756 1750.27 889.643 Q1748.04 887.531 1743.96 887.531 L1736.61 887.531 M1730.76 882.728 L1743.96 882.728 Q1751.22 882.728 1754.93 886.026 Q1758.66 889.296 1758.66 895.633 Q1758.66 902.028 1754.93 905.297 Q1751.22 908.567 1743.96 908.567 L1736.61 908.567 L1736.61 925.928 L1730.76 925.928 L1730.76 882.728 Z" fill="#000000" fill-rule="nonzero" fill-opacity="1" /><path clip-path="url(#clip660)" d="M1784 898.497 Q1783.11 897.977 1782.04 897.745 Q1781 897.485 1779.72 897.485 Q1775.21 897.485 1772.78 900.436 Q1770.38 903.359 1770.38 908.856 L1770.38 925.928 L1765.02 925.928 L1765.02 893.521 L1770.38 893.521 L1770.38 898.555 Q1772.05 895.604 1774.75 894.186 Q1777.44 892.739 1781.29 892.739 Q1781.83 892.739 1782.5 892.826 Q1783.17 892.884 1783.98 893.029 L1784 898.497 Z" fill="#000000" fill-rule="nonzero" fill-opacity="1" /><path clip-path="url(#clip660)" d="M1800.85 897.253 Q1796.56 897.253 1794.07 900.61 Q1791.59 903.937 1791.59 909.753 Q1791.59 915.569 1794.05 918.926 Q1796.53 922.253 1800.85 922.253 Q1805.1 922.253 1807.59 918.897 Q1810.08 915.54 1810.08 909.753 Q1810.08 903.995 1807.59 900.639 Q1805.1 897.253 1800.85 897.253 M1800.85 892.739 Q1807.79 892.739 1811.75 897.253 Q1815.72 901.767 1815.72 909.753 Q1815.72 917.71 1811.75 922.253 Q1807.79 926.767 1800.85 926.767 Q1793.87 926.767 1789.91 922.253 Q1785.97 917.71 1785.97 909.753 Q1785.97 901.767 1789.91 897.253 Q1793.87 892.739 1800.85 892.739 Z" fill="#000000" fill-rule="nonzero" fill-opacity="1" /><path clip-path="url(#clip660)" d="M1845.87 909.348 Q1845.87 903.561 1843.47 900.378 Q1841.09 897.195 1836.78 897.195 Q1832.5 897.195 1830.1 900.378 Q1827.73 903.561 1827.73 909.348 Q1827.73 915.106 1830.1 918.289 Q1832.5 921.472 1836.78 921.472 Q1841.09 921.472 1843.47 918.289 Q1845.87 915.106 1845.87 909.348 M1851.19 921.906 Q1851.19 930.181 1847.52 934.203 Q1843.84 938.254 1836.26 938.254 Q1833.45 938.254 1830.97 937.82 Q1828.48 937.415 1826.13 936.547 L1826.13 931.368 Q1828.48 932.641 1830.76 933.248 Q1833.05 933.856 1835.42 933.856 Q1840.66 933.856 1843.26 931.107 Q1845.87 928.387 1845.87 922.861 L1845.87 920.228 Q1844.22 923.092 1841.64 924.51 Q1839.07 925.928 1835.48 925.928 Q1829.52 925.928 1825.87 921.385 Q1822.23 916.842 1822.23 909.348 Q1822.23 901.825 1825.87 897.282 Q1829.52 892.739 1835.48 892.739 Q1839.07 892.739 1841.64 894.157 Q1844.22 895.575 1845.87 898.44 L1845.87 893.521 L1851.19 893.521 L1851.19 921.906 Z" fill="#000000" fill-rule="nonzero" fill-opacity="1" /><path clip-path="url(#clip660)" d="M1889.1 906.368 L1889.1 925.928 L1883.77 925.928 L1883.77 906.541 Q1883.77 901.941 1881.98 899.655 Q1880.19 897.369 1876.6 897.369 Q1872.29 897.369 1869.8 900.118 Q1867.31 902.867 1867.31 907.612 L1867.31 925.928 L1861.96 925.928 L1861.96 893.521 L1867.31 893.521 L1867.31 898.555 Q1869.22 895.633 1871.79 894.186 Q1874.4 892.739 1877.78 892.739 Q1883.37 892.739 1886.23 896.212 Q1889.1 899.655 1889.1 906.368 Z" fill="#000000" fill-rule="nonzero" fill-opacity="1" /><path clip-path="url(#clip660)" d="M1912.27 897.253 Q1907.99 897.253 1905.5 900.61 Q1903.01 903.937 1903.01 909.753 Q1903.01 915.569 1905.47 918.926 Q1907.96 922.253 1912.27 922.253 Q1916.53 922.253 1919.02 918.897 Q1921.5 915.54 1921.5 909.753 Q1921.5 903.995 1919.02 900.639 Q1916.53 897.253 1912.27 897.253 M1912.27 892.739 Q1919.22 892.739 1923.18 897.253 Q1927.15 901.767 1927.15 909.753 Q1927.15 917.71 1923.18 922.253 Q1919.22 926.767 1912.27 926.767 Q1905.3 926.767 1901.34 922.253 Q1897.4 917.71 1897.4 909.753 Q1897.4 901.767 1901.34 897.253 Q1905.3 892.739 1912.27 892.739 Z" fill="#000000" fill-rule="nonzero" fill-opacity="1" /><path clip-path="url(#clip660)" d="M1956.63 894.475 L1956.63 899.51 Q1954.37 898.353 1951.94 897.774 Q1949.51 897.195 1946.91 897.195 Q1942.95 897.195 1940.95 898.411 Q1938.98 899.626 1938.98 902.056 Q1938.98 903.908 1940.4 904.979 Q1941.82 906.021 1946.1 906.975 L1947.92 907.38 Q1953.59 908.596 1955.97 910.824 Q1958.37 913.023 1958.37 916.987 Q1958.37 921.501 1954.78 924.134 Q1951.22 926.767 1944.97 926.767 Q1942.37 926.767 1939.53 926.246 Q1936.72 925.754 1933.6 924.742 L1933.6 919.244 Q1936.55 920.777 1939.42 921.559 Q1942.28 922.311 1945.09 922.311 Q1948.85 922.311 1950.87 921.038 Q1952.9 919.736 1952.9 917.392 Q1952.9 915.222 1951.42 914.064 Q1949.98 912.907 1945.03 911.836 L1943.18 911.402 Q1938.23 910.361 1936.03 908.22 Q1933.83 906.049 1933.83 902.288 Q1933.83 897.716 1937.07 895.228 Q1940.31 892.739 1946.27 892.739 Q1949.22 892.739 1951.83 893.173 Q1954.43 893.607 1956.63 894.475 Z" fill="#000000" fill-rule="nonzero" fill-opacity="1" /><path clip-path="url(#clip660)" d="M1966.85 893.521 L1972.17 893.521 L1972.17 925.928 L1966.85 925.928 L1966.85 893.521 M1966.85 880.905 L1972.17 880.905 L1972.17 887.647 L1966.85 887.647 L1966.85 880.905 Z" fill="#000000" fill-rule="nonzero" fill-opacity="1" /><path clip-path="url(#clip660)" d="M2003.97 894.475 L2003.97 899.51 Q2001.71 898.353 1999.28 897.774 Q1996.85 897.195 1994.25 897.195 Q1990.28 897.195 1988.29 898.411 Q1986.32 899.626 1986.32 902.056 Q1986.32 903.908 1987.74 904.979 Q1989.15 906.021 1993.44 906.975 L1995.26 907.38 Q2000.93 908.596 2003.3 910.824 Q2005.71 913.023 2005.71 916.987 Q2005.71 921.501 2002.12 924.134 Q1998.56 926.767 1992.31 926.767 Q1989.7 926.767 1986.87 926.246 Q1984.06 925.754 1980.94 924.742 L1980.94 919.244 Q1983.89 920.777 1986.75 921.559 Q1989.62 922.311 1992.42 922.311 Q1996.19 922.311 1998.21 921.038 Q2000.24 919.736 2000.24 917.392 Q2000.24 915.222 1998.76 914.064 Q1997.31 912.907 1992.37 911.836 L1990.51 911.402 Q1985.57 910.361 1983.37 908.22 Q1981.17 906.049 1981.17 902.288 Q1981.17 897.716 1984.41 895.228 Q1987.65 892.739 1993.61 892.739 Q1996.56 892.739 1999.17 893.173 Q2001.77 893.607 2003.97 894.475 Z" fill="#000000" fill-rule="nonzero" fill-opacity="1" /><polyline clip-path="url(#clip660)" style="stroke:#ff7e0d; stroke-linecap:round; stroke-linejoin:round; stroke-width:25; stroke-opacity:1; fill:none" points="1445.95,969.128 1567.56,969.128 "/>
<circle clip-path="url(#clip660)" cx="1506.75" cy="969.128" r="13.5119" fill="#ff7e0d" fill-rule="evenodd" fill-opacity="1" stroke="#000000" stroke-opacity="1" stroke-width="3.93846"/>
<path clip-path="url(#clip660)" d="M1607.62 953.286 L1599.69 974.785 L1615.57 974.785 L1607.62 953.286 M1604.32 947.528 L1610.94 947.528 L1627.41 990.728 L1621.33 990.728 L1617.4 979.646 L1597.92 979.646 L1593.99 990.728 L1587.83 990.728 L1604.32 947.528 Z" fill="#000000" fill-rule="nonzero" fill-opacity="1" /><path clip-path="url(#clip660)" d="M1632.94 977.939 L1632.94 958.321 L1638.26 958.321 L1638.26 977.736 Q1638.26 982.337 1640.05 984.651 Q1641.85 986.937 1645.44 986.937 Q1649.75 986.937 1652.23 984.189 Q1654.75 981.44 1654.75 976.694 L1654.75 958.321 L1660.08 958.321 L1660.08 990.728 L1654.75 990.728 L1654.75 985.751 Q1652.81 988.702 1650.24 990.149 Q1647.69 991.567 1644.31 991.567 Q1638.72 991.567 1635.83 988.095 Q1632.94 984.623 1632.94 977.939 M1646.33 957.539 L1646.33 957.539 Z" fill="#000000" fill-rule="nonzero" fill-opacity="1" /><path clip-path="url(#clip660)" d="M1676.31 949.119 L1676.31 958.321 L1687.28 958.321 L1687.28 962.458 L1676.31 962.458 L1676.31 980.051 Q1676.31 984.015 1677.38 985.143 Q1678.48 986.272 1681.81 986.272 L1687.28 986.272 L1687.28 990.728 L1681.81 990.728 Q1675.64 990.728 1673.3 988.442 Q1670.96 986.127 1670.96 980.051 L1670.96 962.458 L1667.05 962.458 L1667.05 958.321 L1670.96 958.321 L1670.96 949.119 L1676.31 949.119 Z" fill="#000000" fill-rule="nonzero" fill-opacity="1" /><path clip-path="url(#clip660)" d="M1706.84 962.053 Q1702.55 962.053 1700.06 965.41 Q1697.58 968.737 1697.58 974.553 Q1697.58 980.369 1700.04 983.726 Q1702.52 987.053 1706.84 987.053 Q1711.09 987.053 1713.58 983.697 Q1716.07 980.34 1716.07 974.553 Q1716.07 968.795 1713.58 965.439 Q1711.09 962.053 1706.84 962.053 M1706.84 957.539 Q1713.78 957.539 1717.74 962.053 Q1721.71 966.567 1721.71 974.553 Q1721.71 982.51 1717.74 987.053 Q1713.78 991.567 1706.84 991.567 Q1699.86 991.567 1695.9 987.053 Q1691.96 982.51 1691.96 974.553 Q1691.96 966.567 1695.9 962.053 Q1699.86 957.539 1706.84 957.539 Z" fill="#000000" fill-rule="nonzero" fill-opacity="1" /><path clip-path="url(#clip660)" d="M1760.22 984.565 L1760.22 972.962 L1750.67 972.962 L1750.67 968.159 L1766.01 968.159 L1766.01 986.706 Q1762.62 989.107 1758.54 990.352 Q1754.46 991.567 1749.83 991.567 Q1739.71 991.567 1733.98 985.664 Q1728.28 979.733 1728.28 969.171 Q1728.28 958.581 1733.98 952.678 Q1739.71 946.747 1749.83 946.747 Q1754.06 946.747 1757.85 947.788 Q1761.67 948.83 1764.88 950.855 L1764.88 957.076 Q1761.64 954.328 1757.99 952.939 Q1754.35 951.55 1750.32 951.55 Q1742.4 951.55 1738.4 955.977 Q1734.44 960.404 1734.44 969.171 Q1734.44 977.91 1738.4 982.337 Q1742.4 986.764 1750.32 986.764 Q1753.42 986.764 1755.85 986.243 Q1758.28 985.693 1760.22 984.565 Z" fill="#000000" fill-rule="nonzero" fill-opacity="1" /><path clip-path="url(#clip660)" d="M1776.45 945.705 L1781.78 945.705 L1781.78 990.728 L1776.45 990.728 L1776.45 945.705 Z" fill="#000000" fill-rule="nonzero" fill-opacity="1" /><path clip-path="url(#clip660)" d="M1792.37 977.939 L1792.37 958.321 L1797.69 958.321 L1797.69 977.736 Q1797.69 982.337 1799.49 984.651 Q1801.28 986.937 1804.87 986.937 Q1809.18 986.937 1811.67 984.189 Q1814.18 981.44 1814.18 976.694 L1814.18 958.321 L1819.51 958.321 L1819.51 990.728 L1814.18 990.728 L1814.18 985.751 Q1812.25 988.702 1809.67 990.149 Q1807.12 991.567 1803.74 991.567 Q1798.15 991.567 1795.26 988.095 Q1792.37 984.623 1792.37 977.939 M1805.76 957.539 L1805.76 957.539 Z" fill="#000000" fill-rule="nonzero" fill-opacity="1" /><path clip-path="url(#clip660)" d="M1843.03 962.053 Q1838.75 962.053 1836.26 965.41 Q1833.77 968.737 1833.77 974.553 Q1833.77 980.369 1836.23 983.726 Q1838.72 987.053 1843.03 987.053 Q1847.29 987.053 1849.77 983.697 Q1852.26 980.34 1852.26 974.553 Q1852.26 968.795 1849.77 965.439 Q1847.29 962.053 1843.03 962.053 M1843.03 957.539 Q1849.98 957.539 1853.94 962.053 Q1857.91 966.567 1857.91 974.553 Q1857.91 982.51 1853.94 987.053 Q1849.98 991.567 1843.03 991.567 Q1836.06 991.567 1832.1 987.053 Q1828.16 982.51 1828.16 974.553 Q1828.16 966.567 1832.1 962.053 Q1836.06 957.539 1843.03 957.539 Z" fill="#000000" fill-rule="nonzero" fill-opacity="1" /><path clip-path="url(#clip660)" d="M1893.67 971.168 L1893.67 990.728 L1888.34 990.728 L1888.34 971.341 Q1888.34 966.741 1886.55 964.455 Q1884.76 962.169 1881.17 962.169 Q1876.86 962.169 1874.37 964.918 Q1871.88 967.667 1871.88 972.412 L1871.88 990.728 L1866.53 990.728 L1866.53 958.321 L1871.88 958.321 L1871.88 963.355 Q1873.79 960.433 1876.37 958.986 Q1878.97 957.539 1882.36 957.539 Q1887.94 957.539 1890.8 961.012 Q1893.67 964.455 1893.67 971.168 Z" fill="#000000" fill-rule="nonzero" fill-opacity="1" /><polyline clip-path="url(#clip660)" style="stroke:#2ba02b; stroke-linecap:round; stroke-linejoin:round; stroke-width:25; stroke-opacity:1; fill:none" points="1445.95,1033.93 1567.56,1033.93 "/>
<circle clip-path="url(#clip660)" cx="1506.75" cy="1033.93" r="13.5119" fill="#2ba02b" fill-rule="evenodd" fill-opacity="1" stroke="#000000" stroke-opacity="1" stroke-width="3.93846"/>
<path clip-path="url(#clip660)" d="M1587.83 1012.33 L1624.37 1012.33 L1624.37 1017.25 L1609.03 1017.25 L1609.03 1055.53 L1603.16 1055.53 L1603.16 1017.25 L1587.83 1017.25 L1587.83 1012.33 Z" fill="#000000" fill-rule="nonzero" fill-opacity="1" /><path clip-path="url(#clip660)" d="M1634.7 1039.24 Q1628.25 1039.24 1625.76 1040.71 Q1623.27 1042.19 1623.27 1045.75 Q1623.27 1048.58 1625.12 1050.26 Q1627 1051.91 1630.22 1051.91 Q1634.64 1051.91 1637.3 1048.79 Q1640 1045.63 1640 1040.42 L1640 1039.24 L1634.7 1039.24 M1645.32 1037.04 L1645.32 1055.53 L1640 1055.53 L1640 1050.61 Q1638.17 1053.56 1635.45 1054.98 Q1632.73 1056.37 1628.8 1056.37 Q1623.82 1056.37 1620.87 1053.59 Q1617.95 1050.78 1617.95 1046.1 Q1617.95 1040.63 1621.59 1037.85 Q1625.27 1035.07 1632.53 1035.07 L1640 1035.07 L1640 1034.55 Q1640 1030.88 1637.56 1028.88 Q1635.16 1026.85 1630.79 1026.85 Q1628.02 1026.85 1625.38 1027.52 Q1622.75 1028.18 1620.32 1029.52 L1620.32 1024.6 Q1623.24 1023.47 1625.99 1022.92 Q1628.74 1022.34 1631.34 1022.34 Q1638.37 1022.34 1641.85 1025.99 Q1645.32 1029.63 1645.32 1037.04 Z" fill="#000000" fill-rule="nonzero" fill-opacity="1" /><path clip-path="url(#clip660)" d="M1679.55 1039.35 Q1679.55 1033.48 1677.12 1030.15 Q1674.72 1026.8 1670.49 1026.8 Q1666.27 1026.8 1663.84 1030.15 Q1661.44 1033.48 1661.44 1039.35 Q1661.44 1045.23 1663.84 1048.58 Q1666.27 1051.91 1670.49 1051.91 Q1674.72 1051.91 1677.12 1048.58 Q1679.55 1045.23 1679.55 1039.35 M1661.44 1028.04 Q1663.11 1025.15 1665.66 1023.76 Q1668.24 1022.34 1671.79 1022.34 Q1677.7 1022.34 1681.37 1027.03 Q1685.08 1031.71 1685.08 1039.35 Q1685.08 1046.99 1681.37 1051.68 Q1677.7 1056.37 1671.79 1056.37 Q1668.24 1056.37 1665.66 1054.98 Q1663.11 1053.56 1661.44 1050.67 L1661.44 1055.53 L1656.08 1055.53 L1656.08 1010.5 L1661.44 1010.5 L1661.44 1028.04 Z" fill="#000000" fill-rule="nonzero" fill-opacity="1" /><path clip-path="url(#clip660)" d="M1699.98 1017.13 L1699.98 1033.36 L1707.33 1033.36 Q1711.41 1033.36 1713.63 1031.25 Q1715.86 1029.14 1715.86 1025.23 Q1715.86 1021.36 1713.63 1019.24 Q1711.41 1017.13 1707.33 1017.13 L1699.98 1017.13 M1694.13 1012.33 L1707.33 1012.33 Q1714.59 1012.33 1718.29 1015.63 Q1722.03 1018.9 1722.03 1025.23 Q1722.03 1031.63 1718.29 1034.9 Q1714.59 1038.17 1707.33 1038.17 L1699.98 1038.17 L1699.98 1055.53 L1694.13 1055.53 L1694.13 1012.33 Z" fill="#000000" fill-rule="nonzero" fill-opacity="1" /><path clip-path="url(#clip660)" d="M1729.87 1012.33 L1754.69 1012.33 L1754.69 1017.25 L1735.71 1017.25 L1735.71 1029.98 L1752.84 1029.98 L1752.84 1034.9 L1735.71 1034.9 L1735.71 1055.53 L1729.87 1055.53 L1729.87 1012.33 Z" fill="#000000" fill-rule="nonzero" fill-opacity="1" /><path clip-path="url(#clip660)" d="M1763.95 1012.33 L1771.82 1012.33 L1790.98 1048.47 L1790.98 1012.33 L1796.65 1012.33 L1796.65 1055.53 L1788.78 1055.53 L1769.62 1019.39 L1769.62 1055.53 L1763.95 1055.53 L1763.95 1012.33 Z" fill="#000000" fill-rule="nonzero" fill-opacity="1" /><polyline clip-path="url(#clip660)" style="stroke:#d52628; stroke-linecap:round; stroke-linejoin:round; stroke-width:25; stroke-opacity:1; fill:none" points="1445.95,1098.73 1567.56,1098.73 "/>
<circle clip-path="url(#clip660)" cx="1506.75" cy="1098.73" r="13.5119" fill="#d52628" fill-rule="evenodd" fill-opacity="1" stroke="#000000" stroke-opacity="1" stroke-width="3.93846"/>
<path clip-path="url(#clip660)" d="M1587.83 1077.13 L1593.67 1077.13 L1593.67 1094.84 L1614.91 1094.84 L1614.91 1077.13 L1620.75 1077.13 L1620.75 1120.33 L1614.91 1120.33 L1614.91 1099.76 L1593.67 1099.76 L1593.67 1120.33 L1587.83 1120.33 L1587.83 1077.13 Z" fill="#000000" fill-rule="nonzero" fill-opacity="1" /><path clip-path="url(#clip660)" d="M1645.64 1123.34 Q1643.38 1129.12 1641.24 1130.89 Q1639.1 1132.65 1635.51 1132.65 L1631.26 1132.65 L1631.26 1128.2 L1634.38 1128.2 Q1636.58 1128.2 1637.8 1127.16 Q1639.01 1126.11 1640.49 1122.24 L1641.44 1119.81 L1628.33 1087.92 L1633.98 1087.92 L1644.1 1113.27 L1654.23 1087.92 L1659.87 1087.92 L1645.64 1123.34 Z" fill="#000000" fill-rule="nonzero" fill-opacity="1" /><path clip-path="url(#clip660)" d="M1672.37 1115.47 L1672.37 1132.65 L1667.02 1132.65 L1667.02 1087.92 L1672.37 1087.92 L1672.37 1092.84 Q1674.05 1089.95 1676.6 1088.56 Q1679.17 1087.14 1682.73 1087.14 Q1688.64 1087.14 1692.31 1091.83 Q1696.01 1096.51 1696.01 1104.15 Q1696.01 1111.79 1692.31 1116.48 Q1688.64 1121.17 1682.73 1121.17 Q1679.17 1121.17 1676.6 1119.78 Q1674.05 1118.36 1672.37 1115.47 M1690.49 1104.15 Q1690.49 1098.28 1688.06 1094.95 Q1685.65 1091.6 1681.43 1091.6 Q1677.21 1091.6 1674.78 1094.95 Q1672.37 1098.28 1672.37 1104.15 Q1672.37 1110.03 1674.78 1113.38 Q1677.21 1116.71 1681.43 1116.71 Q1685.65 1116.71 1688.06 1113.38 Q1690.49 1110.03 1690.49 1104.15 Z" fill="#000000" fill-rule="nonzero" fill-opacity="1" /><path clip-path="url(#clip660)" d="M1732.56 1102.79 L1732.56 1105.4 L1708.08 1105.4 Q1708.43 1110.9 1711.38 1113.79 Q1714.36 1116.65 1719.65 1116.65 Q1722.72 1116.65 1725.59 1115.9 Q1728.48 1115.15 1731.31 1113.64 L1731.31 1118.68 Q1728.45 1119.89 1725.44 1120.53 Q1722.43 1121.17 1719.34 1121.17 Q1711.58 1121.17 1707.04 1116.65 Q1702.52 1112.14 1702.52 1104.44 Q1702.52 1096.49 1706.81 1091.83 Q1711.12 1087.14 1718.41 1087.14 Q1724.95 1087.14 1728.74 1091.36 Q1732.56 1095.56 1732.56 1102.79 M1727.23 1101.23 Q1727.18 1096.86 1724.77 1094.26 Q1722.4 1091.65 1718.47 1091.65 Q1714.01 1091.65 1711.32 1094.17 Q1708.66 1096.69 1708.25 1101.26 L1727.23 1101.23 Z" fill="#000000" fill-rule="nonzero" fill-opacity="1" /><path clip-path="url(#clip660)" d="M1760.08 1092.9 Q1759.18 1092.38 1758.11 1092.15 Q1757.07 1091.88 1755.79 1091.88 Q1751.28 1091.88 1748.85 1094.84 Q1746.45 1097.76 1746.45 1103.26 L1746.45 1120.33 L1741.09 1120.33 L1741.09 1087.92 L1746.45 1087.92 L1746.45 1092.96 Q1748.13 1090 1750.82 1088.59 Q1753.51 1087.14 1757.36 1087.14 Q1757.91 1087.14 1758.57 1087.23 Q1759.24 1087.28 1760.05 1087.43 L1760.08 1092.9 Z" fill="#000000" fill-rule="nonzero" fill-opacity="1" /><path clip-path="url(#clip660)" d="M1765.89 1077.13 L1790.72 1077.13 L1790.72 1082.05 L1771.74 1082.05 L1771.74 1094.78 L1788.87 1094.78 L1788.87 1099.7 L1771.74 1099.7 L1771.74 1120.33 L1765.89 1120.33 L1765.89 1077.13 Z" fill="#000000" fill-rule="nonzero" fill-opacity="1" /><path clip-path="url(#clip660)" d="M1809.03 1104.04 Q1802.58 1104.04 1800.09 1105.51 Q1797.6 1106.99 1797.6 1110.55 Q1797.6 1113.38 1799.46 1115.06 Q1801.34 1116.71 1804.55 1116.71 Q1808.98 1116.71 1811.64 1113.59 Q1814.33 1110.43 1814.33 1105.22 L1814.33 1104.04 L1809.03 1104.04 M1819.65 1101.84 L1819.65 1120.33 L1814.33 1120.33 L1814.33 1115.41 Q1812.51 1118.36 1809.79 1119.78 Q1807.07 1121.17 1803.13 1121.17 Q1798.15 1121.17 1795.2 1118.39 Q1792.28 1115.58 1792.28 1110.9 Q1792.28 1105.43 1795.93 1102.65 Q1799.6 1099.87 1806.86 1099.87 L1814.33 1099.87 L1814.33 1099.35 Q1814.33 1095.68 1811.9 1093.68 Q1809.5 1091.65 1805.13 1091.65 Q1802.35 1091.65 1799.72 1092.32 Q1797.08 1092.98 1794.65 1094.32 L1794.65 1089.4 Q1797.58 1088.27 1800.32 1087.72 Q1803.07 1087.14 1805.68 1087.14 Q1812.71 1087.14 1816.18 1090.79 Q1819.65 1094.43 1819.65 1101.84 Z" fill="#000000" fill-rule="nonzero" fill-opacity="1" /><path clip-path="url(#clip660)" d="M1851.28 1088.88 L1851.28 1093.91 Q1849.02 1092.75 1846.59 1092.17 Q1844.16 1091.6 1841.56 1091.6 Q1837.59 1091.6 1835.6 1092.81 Q1833.63 1094.03 1833.63 1096.46 Q1833.63 1098.31 1835.05 1099.38 Q1836.46 1100.42 1840.75 1101.38 L1842.57 1101.78 Q1848.24 1103 1850.61 1105.22 Q1853.02 1107.42 1853.02 1111.39 Q1853.02 1115.9 1849.43 1118.53 Q1845.87 1121.17 1839.62 1121.17 Q1837.01 1121.17 1834.18 1120.65 Q1831.37 1120.15 1828.25 1119.14 L1828.25 1113.64 Q1831.2 1115.18 1834.06 1115.96 Q1836.93 1116.71 1839.73 1116.71 Q1843.5 1116.71 1845.52 1115.44 Q1847.55 1114.14 1847.55 1111.79 Q1847.55 1109.62 1846.07 1108.46 Q1844.62 1107.31 1839.68 1106.24 L1837.82 1105.8 Q1832.88 1104.76 1830.68 1102.62 Q1828.48 1100.45 1828.48 1096.69 Q1828.48 1092.12 1831.72 1089.63 Q1834.96 1087.14 1840.92 1087.14 Q1843.87 1087.14 1846.48 1087.57 Q1849.08 1088.01 1851.28 1088.88 Z" fill="#000000" fill-rule="nonzero" fill-opacity="1" /><path clip-path="url(#clip660)" d="M1866.76 1078.72 L1866.76 1087.92 L1877.73 1087.92 L1877.73 1092.06 L1866.76 1092.06 L1866.76 1109.65 Q1866.76 1113.61 1867.83 1114.74 Q1868.93 1115.87 1872.26 1115.87 L1877.73 1115.87 L1877.73 1120.33 L1872.26 1120.33 Q1866.09 1120.33 1863.75 1118.04 Q1861.41 1115.73 1861.41 1109.65 L1861.41 1092.06 L1857.5 1092.06 L1857.5 1087.92 L1861.41 1087.92 L1861.41 1078.72 L1866.76 1078.72 Z" fill="#000000" fill-rule="nonzero" fill-opacity="1" /><polyline clip-path="url(#clip660)" style="stroke:#9466bd; stroke-linecap:round; stroke-linejoin:round; stroke-width:25; stroke-opacity:1; fill:none" points="1445.95,1163.53 1567.56,1163.53 "/>
<circle clip-path="url(#clip660)" cx="1506.75" cy="1163.53" r="13.5119" fill="#9466bd" fill-rule="evenodd" fill-opacity="1" stroke="#000000" stroke-opacity="1" stroke-width="3.93846"/>
<path clip-path="url(#clip660)" d="M1587.83 1141.93 L1593.67 1141.93 L1593.67 1180.21 L1614.71 1180.21 L1614.71 1185.13 L1587.83 1185.13 L1587.83 1141.93 Z" fill="#000000" fill-rule="nonzero" fill-opacity="1" /><path clip-path="url(#clip660)" d="M1632.13 1156.45 Q1627.84 1156.45 1625.35 1159.81 Q1622.87 1163.14 1622.87 1168.95 Q1622.87 1174.77 1625.33 1178.13 Q1627.81 1181.45 1632.13 1181.45 Q1636.38 1181.45 1638.87 1178.1 Q1641.36 1174.74 1641.36 1168.95 Q1641.36 1163.2 1638.87 1159.84 Q1636.38 1156.45 1632.13 1156.45 M1632.13 1151.94 Q1639.07 1151.94 1643.03 1156.45 Q1647 1160.97 1647 1168.95 Q1647 1176.91 1643.03 1181.45 Q1639.07 1185.97 1632.13 1185.97 Q1625.15 1185.97 1621.19 1181.45 Q1617.25 1176.91 1617.25 1168.95 Q1617.25 1160.97 1621.19 1156.45 Q1625.15 1151.94 1632.13 1151.94 Z" fill="#000000" fill-rule="nonzero" fill-opacity="1" /><path clip-path="url(#clip660)" d="M1677.15 1168.55 Q1677.15 1162.76 1674.75 1159.58 Q1672.37 1156.4 1668.06 1156.4 Q1663.78 1156.4 1661.38 1159.58 Q1659.01 1162.76 1659.01 1168.55 Q1659.01 1174.31 1661.38 1177.49 Q1663.78 1180.67 1668.06 1180.67 Q1672.37 1180.67 1674.75 1177.49 Q1677.15 1174.31 1677.15 1168.55 M1682.47 1181.11 Q1682.47 1189.38 1678.8 1193.4 Q1675.12 1197.45 1667.54 1197.45 Q1664.73 1197.45 1662.25 1197.02 Q1659.76 1196.62 1657.41 1195.75 L1657.41 1190.57 Q1659.76 1191.84 1662.04 1192.45 Q1664.33 1193.06 1666.7 1193.06 Q1671.94 1193.06 1674.54 1190.31 Q1677.15 1187.59 1677.15 1182.06 L1677.15 1179.43 Q1675.5 1182.29 1672.92 1183.71 Q1670.35 1185.13 1666.76 1185.13 Q1660.8 1185.13 1657.15 1180.59 Q1653.51 1176.04 1653.51 1168.55 Q1653.51 1161.02 1657.15 1156.48 Q1660.8 1151.94 1666.76 1151.94 Q1670.35 1151.94 1672.92 1153.36 Q1675.5 1154.78 1677.15 1157.64 L1677.15 1152.72 L1682.47 1152.72 L1682.47 1181.11 Z" fill="#000000" fill-rule="nonzero" fill-opacity="1" /><path clip-path="url(#clip660)" d="M1693.44 1152.72 L1698.76 1152.72 L1698.76 1185.13 L1693.44 1185.13 L1693.44 1152.72 M1693.44 1140.1 L1698.76 1140.1 L1698.76 1146.85 L1693.44 1146.85 L1693.44 1140.1 Z" fill="#000000" fill-rule="nonzero" fill-opacity="1" /><path clip-path="url(#clip660)" d="M1730.56 1153.68 L1730.56 1158.71 Q1728.31 1157.55 1725.87 1156.97 Q1723.44 1156.4 1720.84 1156.4 Q1716.88 1156.4 1714.88 1157.61 Q1712.91 1158.83 1712.91 1161.26 Q1712.91 1163.11 1714.33 1164.18 Q1715.75 1165.22 1720.03 1166.18 L1721.85 1166.58 Q1727.52 1167.8 1729.9 1170.02 Q1732.3 1172.22 1732.3 1176.19 Q1732.3 1180.7 1728.71 1183.33 Q1725.15 1185.97 1718.9 1185.97 Q1716.3 1185.97 1713.46 1185.45 Q1710.65 1184.95 1707.53 1183.94 L1707.53 1178.44 Q1710.48 1179.98 1713.35 1180.76 Q1716.21 1181.51 1719.02 1181.51 Q1722.78 1181.51 1724.8 1180.24 Q1726.83 1178.94 1726.83 1176.59 Q1726.83 1174.42 1725.35 1173.26 Q1723.91 1172.11 1718.96 1171.04 L1717.11 1170.6 Q1712.16 1169.56 1709.96 1167.42 Q1707.76 1165.25 1707.76 1161.49 Q1707.76 1156.92 1711 1154.43 Q1714.24 1151.94 1720.2 1151.94 Q1723.15 1151.94 1725.76 1152.37 Q1728.36 1152.81 1730.56 1153.68 Z" fill="#000000" fill-rule="nonzero" fill-opacity="1" /><path clip-path="url(#clip660)" d="M1746.04 1143.52 L1746.04 1152.72 L1757.01 1152.72 L1757.01 1156.86 L1746.04 1156.86 L1746.04 1174.45 Q1746.04 1178.41 1747.11 1179.54 Q1748.21 1180.67 1751.54 1180.67 L1757.01 1180.67 L1757.01 1185.13 L1751.54 1185.13 Q1745.38 1185.13 1743.03 1182.84 Q1740.69 1180.53 1740.69 1174.45 L1740.69 1156.86 L1736.78 1156.86 L1736.78 1152.72 L1740.69 1152.72 L1740.69 1143.52 L1746.04 1143.52 Z" fill="#000000" fill-rule="nonzero" fill-opacity="1" /><path clip-path="url(#clip660)" d="M1764.01 1152.72 L1769.33 1152.72 L1769.33 1185.13 L1764.01 1185.13 L1764.01 1152.72 M1764.01 1140.1 L1769.33 1140.1 L1769.33 1146.85 L1764.01 1146.85 L1764.01 1140.1 Z" fill="#000000" fill-rule="nonzero" fill-opacity="1" /><path clip-path="url(#clip660)" d="M1803.8 1153.96 L1803.8 1158.94 Q1801.54 1157.7 1799.25 1157.09 Q1797 1156.45 1794.68 1156.45 Q1789.5 1156.45 1786.64 1159.75 Q1783.77 1163.02 1783.77 1168.95 Q1783.77 1174.88 1786.64 1178.18 Q1789.5 1181.45 1794.68 1181.45 Q1797 1181.45 1799.25 1180.85 Q1801.54 1180.21 1803.8 1178.96 L1803.8 1183.88 Q1801.57 1184.93 1799.17 1185.45 Q1796.79 1185.97 1794.1 1185.97 Q1786.78 1185.97 1782.47 1181.37 Q1778.16 1176.77 1778.16 1168.95 Q1778.16 1161.02 1782.5 1156.48 Q1786.87 1151.94 1794.45 1151.94 Q1796.91 1151.94 1799.25 1152.46 Q1801.6 1152.95 1803.8 1153.96 Z" fill="#000000" fill-rule="nonzero" fill-opacity="1" /><path clip-path="url(#clip660)" d="M1850.67 1157.7 Q1849.77 1157.18 1848.7 1156.95 Q1847.66 1156.68 1846.39 1156.68 Q1841.88 1156.68 1839.44 1159.64 Q1837.04 1162.56 1837.04 1168.06 L1837.04 1185.13 L1831.69 1185.13 L1831.69 1152.72 L1837.04 1152.72 L1837.04 1157.76 Q1838.72 1154.8 1841.41 1153.39 Q1844.1 1151.94 1847.95 1151.94 Q1848.5 1151.94 1849.17 1152.03 Q1849.83 1152.08 1850.64 1152.23 L1850.67 1157.7 Z" fill="#000000" fill-rule="nonzero" fill-opacity="1" /><path clip-path="url(#clip660)" d="M1882.67 1167.59 L1882.67 1170.2 L1858.19 1170.2 Q1858.54 1175.7 1861.49 1178.59 Q1864.47 1181.45 1869.77 1181.45 Q1872.84 1181.45 1875.7 1180.7 Q1878.59 1179.95 1881.43 1178.44 L1881.43 1183.48 Q1878.56 1184.69 1875.56 1185.33 Q1872.55 1185.97 1869.45 1185.97 Q1861.7 1185.97 1857.15 1181.45 Q1852.64 1176.94 1852.64 1169.24 Q1852.64 1161.29 1856.92 1156.63 Q1861.23 1151.94 1868.52 1151.94 Q1875.06 1151.94 1878.85 1156.16 Q1882.67 1160.36 1882.67 1167.59 M1877.35 1166.03 Q1877.29 1161.66 1874.89 1159.06 Q1872.52 1156.45 1868.58 1156.45 Q1864.13 1156.45 1861.44 1158.97 Q1858.77 1161.49 1858.37 1166.06 L1877.35 1166.03 Z" fill="#000000" fill-rule="nonzero" fill-opacity="1" /><path clip-path="url(#clip660)" d="M1912.74 1168.55 Q1912.74 1162.76 1910.34 1159.58 Q1907.96 1156.4 1903.65 1156.4 Q1899.37 1156.4 1896.97 1159.58 Q1894.59 1162.76 1894.59 1168.55 Q1894.59 1174.31 1896.97 1177.49 Q1899.37 1180.67 1903.65 1180.67 Q1907.96 1180.67 1910.34 1177.49 Q1912.74 1174.31 1912.74 1168.55 M1918.06 1181.11 Q1918.06 1189.38 1914.39 1193.4 Q1910.71 1197.45 1903.13 1197.45 Q1900.32 1197.45 1897.84 1197.02 Q1895.35 1196.62 1893 1195.75 L1893 1190.57 Q1895.35 1191.84 1897.63 1192.45 Q1899.92 1193.06 1902.29 1193.06 Q1907.53 1193.06 1910.13 1190.31 Q1912.74 1187.59 1912.74 1182.06 L1912.74 1179.43 Q1911.09 1182.29 1908.51 1183.71 Q1905.94 1185.13 1902.35 1185.13 Q1896.39 1185.13 1892.74 1180.59 Q1889.1 1176.04 1889.1 1168.55 Q1889.1 1161.02 1892.74 1156.48 Q1896.39 1151.94 1902.35 1151.94 Q1905.94 1151.94 1908.51 1153.36 Q1911.09 1154.78 1912.74 1157.64 L1912.74 1152.72 L1918.06 1152.72 L1918.06 1181.11 Z" fill="#000000" fill-rule="nonzero" fill-opacity="1" /><path clip-path="url(#clip660)" d="M1947.81 1157.7 Q1946.91 1157.18 1945.84 1156.95 Q1944.8 1156.68 1943.52 1156.68 Q1939.01 1156.68 1936.58 1159.64 Q1934.18 1162.56 1934.18 1168.06 L1934.18 1185.13 L1928.82 1185.13 L1928.82 1152.72 L1934.18 1152.72 L1934.18 1157.76 Q1935.86 1154.8 1938.55 1153.39 Q1941.24 1151.94 1945.09 1151.94 Q1945.64 1151.94 1946.3 1152.03 Q1946.97 1152.08 1947.78 1152.23 L1947.81 1157.7 Z" fill="#000000" fill-rule="nonzero" fill-opacity="1" /><path clip-path="url(#clip660)" d="M1979.81 1167.59 L1979.81 1170.2 L1955.33 1170.2 Q1955.68 1175.7 1958.63 1178.59 Q1961.61 1181.45 1966.9 1181.45 Q1969.97 1181.45 1972.83 1180.7 Q1975.73 1179.95 1978.56 1178.44 L1978.56 1183.48 Q1975.7 1184.69 1972.69 1185.33 Q1969.68 1185.97 1966.59 1185.97 Q1958.83 1185.97 1954.29 1181.45 Q1949.77 1176.94 1949.77 1169.24 Q1949.77 1161.29 1954.06 1156.63 Q1958.37 1151.94 1965.66 1151.94 Q1972.2 1151.94 1975.99 1156.16 Q1979.81 1160.36 1979.81 1167.59 M1974.48 1166.03 Q1974.43 1161.66 1972.02 1159.06 Q1969.65 1156.45 1965.72 1156.45 Q1961.26 1156.45 1958.57 1158.97 Q1955.91 1161.49 1955.5 1166.06 L1974.48 1166.03 Z" fill="#000000" fill-rule="nonzero" fill-opacity="1" /><path clip-path="url(#clip660)" d="M2009.21 1153.68 L2009.21 1158.71 Q2006.95 1157.55 2004.52 1156.97 Q2002.09 1156.4 1999.48 1156.4 Q1995.52 1156.4 1993.52 1157.61 Q1991.56 1158.83 1991.56 1161.26 Q1991.56 1163.11 1992.97 1164.18 Q1994.39 1165.22 1998.67 1166.18 L2000.5 1166.58 Q2006.17 1167.8 2008.54 1170.02 Q2010.94 1172.22 2010.94 1176.19 Q2010.94 1180.7 2007.35 1183.33 Q2003.8 1185.97 1997.55 1185.97 Q1994.94 1185.97 1992.11 1185.45 Q1989.3 1184.95 1986.17 1183.94 L1986.17 1178.44 Q1989.13 1179.98 1991.99 1180.76 Q1994.85 1181.51 1997.66 1181.51 Q2001.42 1181.51 2003.45 1180.24 Q2005.47 1178.94 2005.47 1176.59 Q2005.47 1174.42 2004 1173.26 Q2002.55 1172.11 1997.6 1171.04 L1995.75 1170.6 Q1990.8 1169.56 1988.6 1167.42 Q1986.41 1165.25 1986.41 1161.49 Q1986.41 1156.92 1989.65 1154.43 Q1992.89 1151.94 1998.85 1151.94 Q2001.8 1151.94 2004.4 1152.37 Q2007.01 1152.81 2009.21 1153.68 Z" fill="#000000" fill-rule="nonzero" fill-opacity="1" /><path clip-path="url(#clip660)" d="M2040.08 1153.68 L2040.08 1158.71 Q2037.82 1157.55 2035.39 1156.97 Q2032.96 1156.4 2030.36 1156.4 Q2026.39 1156.4 2024.4 1157.61 Q2022.43 1158.83 2022.43 1161.26 Q2022.43 1163.11 2023.85 1164.18 Q2025.27 1165.22 2029.55 1166.18 L2031.37 1166.58 Q2037.04 1167.8 2039.41 1170.02 Q2041.82 1172.22 2041.82 1176.19 Q2041.82 1180.7 2038.23 1183.33 Q2034.67 1185.97 2028.42 1185.97 Q2025.82 1185.97 2022.98 1185.45 Q2020.17 1184.95 2017.05 1183.94 L2017.05 1178.44 Q2020 1179.98 2022.86 1180.76 Q2025.73 1181.51 2028.53 1181.51 Q2032.3 1181.51 2034.32 1180.24 Q2036.35 1178.94 2036.35 1176.59 Q2036.35 1174.42 2034.87 1173.26 Q2033.42 1172.11 2028.48 1171.04 L2026.63 1170.6 Q2021.68 1169.56 2019.48 1167.42 Q2017.28 1165.25 2017.28 1161.49 Q2017.28 1156.92 2020.52 1154.43 Q2023.76 1151.94 2029.72 1151.94 Q2032.67 1151.94 2035.28 1152.37 Q2037.88 1152.81 2040.08 1153.68 Z" fill="#000000" fill-rule="nonzero" fill-opacity="1" /><path clip-path="url(#clip660)" d="M2050.29 1152.72 L2055.62 1152.72 L2055.62 1185.13 L2050.29 1185.13 L2050.29 1152.72 M2050.29 1140.1 L2055.62 1140.1 L2055.62 1146.85 L2050.29 1146.85 L2050.29 1140.1 Z" fill="#000000" fill-rule="nonzero" fill-opacity="1" /><path clip-path="url(#clip660)" d="M2079.32 1156.45 Q2075.03 1156.45 2072.55 1159.81 Q2070.06 1163.14 2070.06 1168.95 Q2070.06 1174.77 2072.52 1178.13 Q2075 1181.45 2079.32 1181.45 Q2083.57 1181.45 2086.06 1178.1 Q2088.55 1174.74 2088.55 1168.95 Q2088.55 1163.2 2086.06 1159.84 Q2083.57 1156.45 2079.32 1156.45 M2079.32 1151.94 Q2086.26 1151.94 2090.22 1156.45 Q2094.19 1160.97 2094.19 1168.95 Q2094.19 1176.91 2090.22 1181.45 Q2086.26 1185.97 2079.32 1185.97 Q2072.34 1185.97 2068.38 1181.45 Q2064.44 1176.91 2064.44 1168.95 Q2064.44 1160.97 2068.38 1156.45 Q2072.34 1151.94 2079.32 1151.94 Z" fill="#000000" fill-rule="nonzero" fill-opacity="1" /><path clip-path="url(#clip660)" d="M2129.95 1165.57 L2129.95 1185.13 L2124.63 1185.13 L2124.63 1165.74 Q2124.63 1161.14 2122.83 1158.85 Q2121.04 1156.57 2117.45 1156.57 Q2113.14 1156.57 2110.65 1159.32 Q2108.16 1162.07 2108.16 1166.81 L2108.16 1185.13 L2102.81 1185.13 L2102.81 1152.72 L2108.16 1152.72 L2108.16 1157.76 Q2110.07 1154.83 2112.65 1153.39 Q2115.25 1151.94 2118.64 1151.94 Q2124.22 1151.94 2127.09 1155.41 Q2129.95 1158.85 2129.95 1165.57 Z" fill="#000000" fill-rule="nonzero" fill-opacity="1" /></svg>
