<?xml version="1.0" encoding="utf-8"?>
<svg xmlns="http://www.w3.org/2000/svg" xmlns:xlink="http://www.w3.org/1999/xlink" width="600" height="400" viewBox="0 0 2400 1600">
<defs>
  <clipPath id="clip410">
    <rect x="0" y="0" width="2400" height="1600"/>
  </clipPath>
</defs>
<path clip-path="url(#clip410)" d="M0 1600 L2400 1600 L2400 0 L0 0  Z" fill="#ffffff" fill-rule="evenodd" fill-opacity="1"/>
<defs>
  <clipPath id="clip411">
    <rect x="480" y="0" width="1681" height="1600"/>
  </clipPath>
</defs>
<path clip-path="url(#clip410)" d="M386.917 1264.17 L2211.02 1264.17 L2211.02 188.976 L386.917 188.976  Z" fill="#ffffff" fill-rule="evenodd" fill-opacity="1"/>
<defs>
  <clipPath id="clip412">
    <rect x="386" y="188" width="1825" height="1076"/>
  </clipPath>
</defs>
<polyline clip-path="url(#clip412)" style="stroke:#000000; stroke-linecap:round; stroke-linejoin:round; stroke-width:2; stroke-opacity:0.1; fill:none" points="438.542,1264.17 438.542,188.976 "/>
<polyline clip-path="url(#clip412)" style="stroke:#000000; stroke-linecap:round; stroke-linejoin:round; stroke-width:2; stroke-opacity:0.1; fill:none" points="868.756,1264.17 868.756,188.976 "/>
<polyline clip-path="url(#clip412)" style="stroke:#000000; stroke-linecap:round; stroke-linejoin:round; stroke-width:2; stroke-opacity:0.1; fill:none" points="1298.97,1264.17 1298.97,188.976 "/>
<polyline clip-path="url(#clip412)" style="stroke:#000000; stroke-linecap:round; stroke-linejoin:round; stroke-width:2; stroke-opacity:0.1; fill:none" points="1729.18,1264.17 1729.18,188.976 "/>
<polyline clip-path="url(#clip412)" style="stroke:#000000; stroke-linecap:round; stroke-linejoin:round; stroke-width:2; stroke-opacity:0.1; fill:none" points="2159.4,1264.17 2159.4,188.976 "/>
<polyline clip-path="url(#clip410)" style="stroke:#000000; stroke-linecap:round; stroke-linejoin:round; stroke-width:4; stroke-opacity:1; fill:none" points="386.917,1264.17 2211.02,1264.17 "/>
<polyline clip-path="url(#clip410)" style="stroke:#000000; stroke-linecap:round; stroke-linejoin:round; stroke-width:4; stroke-opacity:1; fill:none" points="438.542,1264.17 438.542,1245.27 "/>
<polyline clip-path="url(#clip410)" style="stroke:#000000; stroke-linecap:round; stroke-linejoin:round; stroke-width:4; stroke-opacity:1; fill:none" points="868.756,1264.17 868.756,1245.27 "/>
<polyline clip-path="url(#clip410)" style="stroke:#000000; stroke-linecap:round; stroke-linejoin:round; stroke-width:4; stroke-opacity:1; fill:none" points="1298.97,1264.17 1298.97,1245.27 "/>
<polyline clip-path="url(#clip410)" style="stroke:#000000; stroke-linecap:round; stroke-linejoin:round; stroke-width:4; stroke-opacity:1; fill:none" points="1729.18,1264.17 1729.18,1245.27 "/>
<polyline clip-path="url(#clip410)" style="stroke:#000000; stroke-linecap:round; stroke-linejoin:round; stroke-width:4; stroke-opacity:1; fill:none" points="2159.4,1264.17 2159.4,1245.27 "/>
<path clip-path="url(#clip410)" d="M319.46 1314.07 Q323.656 1314.97 326 1317.81 Q328.372 1320.64 328.372 1324.81 Q328.372 1331.2 323.974 1334.71 Q319.576 1338.21 311.474 1338.21 Q308.754 1338.21 305.861 1337.66 Q302.996 1337.14 299.929 1336.07 L299.929 1330.42 Q302.36 1331.84 305.253 1332.56 Q308.147 1333.29 311.301 1333.29 Q316.798 1333.29 319.663 1331.12 Q322.556 1328.95 322.556 1324.81 Q322.556 1320.99 319.865 1318.85 Q317.203 1316.68 312.429 1316.68 L307.394 1316.68 L307.394 1311.88 L312.661 1311.88 Q316.972 1311.88 319.258 1310.17 Q321.544 1308.43 321.544 1305.19 Q321.544 1301.86 319.171 1300.1 Q316.827 1298.31 312.429 1298.31 Q310.027 1298.31 307.279 1298.83 Q304.53 1299.35 301.231 1300.45 L301.231 1295.24 Q304.559 1294.31 307.452 1293.85 Q310.375 1293.39 312.95 1293.39 Q319.605 1293.39 323.482 1296.42 Q327.36 1299.43 327.36 1304.58 Q327.36 1308.17 325.305 1310.66 Q323.251 1313.12 319.46 1314.07 Z" fill="#000000" fill-rule="nonzero" fill-opacity="1" /><path clip-path="url(#clip410)" d="M344.489 1332.45 L364.888 1332.45 L364.888 1337.37 L337.458 1337.37 L337.458 1332.45 Q340.785 1329.01 346.515 1323.22 Q352.273 1317.4 353.748 1315.72 Q356.555 1312.57 357.654 1310.4 Q358.783 1308.2 358.783 1306.09 Q358.783 1302.65 356.352 1300.48 Q353.951 1298.31 350.074 1298.31 Q347.325 1298.31 344.258 1299.26 Q341.219 1300.21 337.747 1302.15 L337.747 1296.25 Q341.277 1294.83 344.344 1294.11 Q347.411 1293.39 349.958 1293.39 Q356.671 1293.39 360.664 1296.74 Q364.657 1300.1 364.657 1305.71 Q364.657 1308.37 363.644 1310.78 Q362.66 1313.15 360.027 1316.39 Q359.304 1317.23 355.426 1321.25 Q351.549 1325.24 344.489 1332.45 Z" fill="#000000" fill-rule="nonzero" fill-opacity="1" /><path clip-path="url(#clip410)" d="M400.507 1295.76 L400.507 1304.96 L411.474 1304.96 L411.474 1309.1 L400.507 1309.1 L400.507 1326.69 Q400.507 1330.65 401.578 1331.78 Q402.677 1332.91 406.005 1332.91 L411.474 1332.91 L411.474 1337.37 L406.005 1337.37 Q399.842 1337.37 397.498 1335.08 Q395.154 1332.77 395.154 1326.69 L395.154 1309.1 L391.248 1309.1 L391.248 1304.96 L395.154 1304.96 L395.154 1295.76 L400.507 1295.76 Z" fill="#000000" fill-rule="nonzero" fill-opacity="1" /><path clip-path="url(#clip410)" d="M431.034 1308.69 Q426.751 1308.69 424.263 1312.05 Q421.775 1315.38 421.775 1321.19 Q421.775 1327.01 424.234 1330.37 Q426.722 1333.69 431.034 1333.69 Q435.287 1333.69 437.776 1330.34 Q440.264 1326.98 440.264 1321.19 Q440.264 1315.43 437.776 1312.08 Q435.287 1308.69 431.034 1308.69 M431.034 1304.18 Q437.978 1304.18 441.942 1308.69 Q445.906 1313.21 445.906 1321.19 Q445.906 1329.15 441.942 1333.69 Q437.978 1338.21 431.034 1338.21 Q424.06 1338.21 420.096 1333.69 Q416.161 1329.15 416.161 1321.19 Q416.161 1313.21 420.096 1308.69 Q424.06 1304.18 431.034 1304.18 Z" fill="#000000" fill-rule="nonzero" fill-opacity="1" /><path clip-path="url(#clip410)" d="M475.333 1332.45 L484.882 1332.45 L484.882 1299.49 L474.494 1301.57 L474.494 1296.25 L484.824 1294.17 L490.669 1294.17 L490.669 1332.45 L500.217 1332.45 L500.217 1337.37 L475.333 1337.37 L475.333 1332.45 Z" fill="#000000" fill-rule="nonzero" fill-opacity="1" /><path clip-path="url(#clip410)" d="M524.523 1298.02 Q520.009 1298.02 517.723 1302.47 Q515.466 1306.9 515.466 1315.81 Q515.466 1324.69 517.723 1329.15 Q520.009 1333.58 524.523 1333.58 Q529.066 1333.58 531.323 1329.15 Q533.608 1324.69 533.608 1315.81 Q533.608 1306.9 531.323 1302.47 Q529.066 1298.02 524.523 1298.02 M524.523 1293.39 Q531.786 1293.39 535.605 1299.14 Q539.453 1304.87 539.453 1315.81 Q539.453 1326.72 535.605 1332.48 Q531.786 1338.21 524.523 1338.21 Q517.26 1338.21 513.412 1332.48 Q509.592 1326.72 509.592 1315.81 Q509.592 1304.87 513.412 1299.14 Q517.26 1293.39 524.523 1293.39 Z" fill="#000000" fill-rule="nonzero" fill-opacity="1" /><path clip-path="url(#clip410)" d="M562.225 1298.02 Q557.711 1298.02 555.425 1302.47 Q553.168 1306.9 553.168 1315.81 Q553.168 1324.69 555.425 1329.15 Q557.711 1333.58 562.225 1333.58 Q566.768 1333.58 569.025 1329.15 Q571.311 1324.69 571.311 1315.81 Q571.311 1306.9 569.025 1302.47 Q566.768 1298.02 562.225 1298.02 M562.225 1293.39 Q569.488 1293.39 573.307 1299.14 Q577.156 1304.87 577.156 1315.81 Q577.156 1326.72 573.307 1332.48 Q569.488 1338.21 562.225 1338.21 Q554.962 1338.21 551.114 1332.48 Q547.295 1326.72 547.295 1315.81 Q547.295 1304.87 551.114 1299.14 Q554.962 1293.39 562.225 1293.39 Z" fill="#000000" fill-rule="nonzero" fill-opacity="1" /><path clip-path="url(#clip410)" d="M713.129 1332.45 L722.678 1332.45 L722.678 1299.49 L712.29 1301.57 L712.29 1296.25 L722.62 1294.17 L728.465 1294.17 L728.465 1332.45 L738.013 1332.45 L738.013 1337.37 L713.129 1337.37 L713.129 1332.45 Z" fill="#000000" fill-rule="nonzero" fill-opacity="1" /><path clip-path="url(#clip410)" d="M762.319 1298.02 Q757.805 1298.02 755.519 1302.47 Q753.262 1306.9 753.262 1315.81 Q753.262 1324.69 755.519 1329.15 Q757.805 1333.58 762.319 1333.58 Q766.862 1333.58 769.118 1329.15 Q771.404 1324.69 771.404 1315.81 Q771.404 1306.9 769.118 1302.47 Q766.862 1298.02 762.319 1298.02 M762.319 1293.39 Q769.581 1293.39 773.401 1299.14 Q777.249 1304.87 777.249 1315.81 Q777.249 1326.72 773.401 1332.48 Q769.581 1338.21 762.319 1338.21 Q755.056 1338.21 751.208 1332.48 Q747.388 1326.72 747.388 1315.81 Q747.388 1304.87 751.208 1299.14 Q755.056 1293.39 762.319 1293.39 Z" fill="#000000" fill-rule="nonzero" fill-opacity="1" /><path clip-path="url(#clip410)" d="M788.534 1332.45 L798.082 1332.45 L798.082 1299.49 L787.695 1301.57 L787.695 1296.25 L798.025 1294.17 L803.869 1294.17 L803.869 1332.45 L813.418 1332.45 L813.418 1337.37 L788.534 1337.37 L788.534 1332.45 Z" fill="#000000" fill-rule="nonzero" fill-opacity="1" /><path clip-path="url(#clip410)" d="M848.574 1295.76 L848.574 1304.96 L859.54 1304.96 L859.54 1309.1 L848.574 1309.1 L848.574 1326.69 Q848.574 1330.65 849.645 1331.78 Q850.744 1332.91 854.072 1332.91 L859.54 1332.91 L859.54 1337.37 L854.072 1337.37 Q847.909 1337.37 845.565 1335.08 Q843.221 1332.77 843.221 1326.69 L843.221 1309.1 L839.315 1309.1 L839.315 1304.96 L843.221 1304.96 L843.221 1295.76 L848.574 1295.76 Z" fill="#000000" fill-rule="nonzero" fill-opacity="1" /><path clip-path="url(#clip410)" d="M879.101 1308.69 Q874.818 1308.69 872.33 1312.05 Q869.841 1315.38 869.841 1321.19 Q869.841 1327.01 872.301 1330.37 Q874.789 1333.69 879.101 1333.69 Q883.354 1333.69 885.842 1330.34 Q888.331 1326.98 888.331 1321.19 Q888.331 1315.43 885.842 1312.08 Q883.354 1308.69 879.101 1308.69 M879.101 1304.18 Q886.045 1304.18 890.009 1308.69 Q893.973 1313.21 893.973 1321.19 Q893.973 1329.15 890.009 1333.69 Q886.045 1338.21 879.101 1338.21 Q872.127 1338.21 868.163 1333.69 Q864.228 1329.15 864.228 1321.19 Q864.228 1313.21 868.163 1308.69 Q872.127 1304.18 879.101 1304.18 Z" fill="#000000" fill-rule="nonzero" fill-opacity="1" /><path clip-path="url(#clip410)" d="M927.422 1332.45 L947.821 1332.45 L947.821 1337.37 L920.391 1337.37 L920.391 1332.45 Q923.718 1329.01 929.447 1323.22 Q935.206 1317.4 936.681 1315.72 Q939.488 1312.57 940.587 1310.4 Q941.716 1308.2 941.716 1306.09 Q941.716 1302.65 939.285 1300.48 Q936.884 1298.31 933.006 1298.31 Q930.258 1298.31 927.191 1299.26 Q924.152 1300.21 920.68 1302.15 L920.68 1296.25 Q924.21 1294.83 927.277 1294.11 Q930.344 1293.39 932.891 1293.39 Q939.604 1293.39 943.597 1296.74 Q947.59 1300.1 947.59 1305.71 Q947.59 1308.37 946.577 1310.78 Q945.593 1313.15 942.96 1316.39 Q942.237 1317.23 938.359 1321.25 Q934.482 1325.24 927.422 1332.45 Z" fill="#000000" fill-rule="nonzero" fill-opacity="1" /><path clip-path="url(#clip410)" d="M972.59 1298.02 Q968.076 1298.02 965.79 1302.47 Q963.533 1306.9 963.533 1315.81 Q963.533 1324.69 965.79 1329.15 Q968.076 1333.58 972.59 1333.58 Q977.132 1333.58 979.389 1329.15 Q981.675 1324.69 981.675 1315.81 Q981.675 1306.9 979.389 1302.47 Q977.132 1298.02 972.59 1298.02 M972.59 1293.39 Q979.852 1293.39 983.672 1299.14 Q987.52 1304.87 987.52 1315.81 Q987.52 1326.72 983.672 1332.48 Q979.852 1338.21 972.59 1338.21 Q965.327 1338.21 961.479 1332.48 Q957.659 1326.72 957.659 1315.81 Q957.659 1304.87 961.479 1299.14 Q965.327 1293.39 972.59 1293.39 Z" fill="#000000" fill-rule="nonzero" fill-opacity="1" /><path clip-path="url(#clip410)" d="M1010.29 1298.02 Q1005.78 1298.02 1003.49 1302.47 Q1001.24 1306.9 1001.24 1315.81 Q1001.24 1324.69 1003.49 1329.15 Q1005.78 1333.58 1010.29 1333.58 Q1014.83 1333.58 1017.09 1329.15 Q1019.38 1324.69 1019.38 1315.81 Q1019.38 1306.9 1017.09 1302.47 Q1014.83 1298.02 1010.29 1298.02 M1010.29 1293.39 Q1017.55 1293.39 1021.37 1299.14 Q1025.22 1304.87 1025.22 1315.81 Q1025.22 1326.72 1021.37 1332.48 Q1017.55 1338.21 1010.29 1338.21 Q1003.03 1338.21 999.181 1332.48 Q995.361 1326.72 995.361 1315.81 Q995.361 1304.87 999.181 1299.14 Q1003.03 1293.39 1010.29 1293.39 Z" fill="#000000" fill-rule="nonzero" fill-opacity="1" /><path clip-path="url(#clip410)" d="M1148.45 1332.45 L1168.85 1332.45 L1168.85 1337.37 L1141.42 1337.37 L1141.42 1332.45 Q1144.75 1329.01 1150.48 1323.22 Q1156.23 1317.4 1157.71 1315.72 Q1160.52 1312.57 1161.62 1310.4 Q1162.74 1308.2 1162.74 1306.09 Q1162.74 1302.65 1160.31 1300.48 Q1157.91 1298.31 1154.03 1298.31 Q1151.29 1298.31 1148.22 1299.26 Q1145.18 1300.21 1141.71 1302.15 L1141.71 1296.25 Q1145.24 1294.83 1148.31 1294.11 Q1151.37 1293.39 1153.92 1293.39 Q1160.63 1293.39 1164.62 1296.74 Q1168.62 1300.1 1168.62 1305.71 Q1168.62 1308.37 1167.61 1310.78 Q1166.62 1313.15 1163.99 1316.39 Q1163.26 1317.23 1159.39 1321.25 Q1155.51 1325.24 1148.45 1332.45 Z" fill="#000000" fill-rule="nonzero" fill-opacity="1" /><path clip-path="url(#clip410)" d="M1193.62 1298.02 Q1189.1 1298.02 1186.82 1302.47 Q1184.56 1306.9 1184.56 1315.81 Q1184.56 1324.69 1186.82 1329.15 Q1189.1 1333.58 1193.62 1333.58 Q1198.16 1333.58 1200.42 1329.15 Q1202.7 1324.69 1202.7 1315.81 Q1202.7 1306.9 1200.42 1302.47 Q1198.16 1298.02 1193.62 1298.02 M1193.62 1293.39 Q1200.88 1293.39 1204.7 1299.14 Q1208.55 1304.87 1208.55 1315.81 Q1208.55 1326.72 1204.7 1332.48 Q1200.88 1338.21 1193.62 1338.21 Q1186.36 1338.21 1182.51 1332.48 Q1178.69 1326.72 1178.69 1315.81 Q1178.69 1304.87 1182.51 1299.14 Q1186.36 1293.39 1193.62 1293.39 Z" fill="#000000" fill-rule="nonzero" fill-opacity="1" /><path clip-path="url(#clip410)" d="M1219.83 1332.45 L1229.38 1332.45 L1229.38 1299.49 L1218.99 1301.57 L1218.99 1296.25 L1229.32 1294.17 L1235.17 1294.17 L1235.17 1332.45 L1244.72 1332.45 L1244.72 1337.37 L1219.83 1337.37 L1219.83 1332.45 Z" fill="#000000" fill-rule="nonzero" fill-opacity="1" /><path clip-path="url(#clip410)" d="M1279.87 1295.76 L1279.87 1304.96 L1290.84 1304.96 L1290.84 1309.1 L1279.87 1309.1 L1279.87 1326.69 Q1279.87 1330.65 1280.94 1331.78 Q1282.04 1332.91 1285.37 1332.91 L1290.84 1332.91 L1290.84 1337.37 L1285.37 1337.37 Q1279.21 1337.37 1276.86 1335.08 Q1274.52 1332.77 1274.52 1326.69 L1274.52 1309.1 L1270.61 1309.1 L1270.61 1304.96 L1274.52 1304.96 L1274.52 1295.76 L1279.87 1295.76 Z" fill="#000000" fill-rule="nonzero" fill-opacity="1" /><path clip-path="url(#clip410)" d="M1310.4 1308.69 Q1306.12 1308.69 1303.63 1312.05 Q1301.14 1315.38 1301.14 1321.19 Q1301.14 1327.01 1303.6 1330.37 Q1306.09 1333.69 1310.4 1333.69 Q1314.65 1333.69 1317.14 1330.34 Q1319.63 1326.98 1319.63 1321.19 Q1319.63 1315.43 1317.14 1312.08 Q1314.65 1308.69 1310.4 1308.69 M1310.4 1304.18 Q1317.34 1304.18 1321.31 1308.69 Q1325.27 1313.21 1325.27 1321.19 Q1325.27 1329.15 1321.31 1333.69 Q1317.34 1338.21 1310.4 1338.21 Q1303.43 1338.21 1299.46 1333.69 Q1295.53 1329.15 1295.53 1321.19 Q1295.53 1313.21 1299.46 1308.69 Q1303.43 1304.18 1310.4 1304.18 Z" fill="#000000" fill-rule="nonzero" fill-opacity="1" /><path clip-path="url(#clip410)" d="M1371.39 1314.07 Q1375.59 1314.97 1377.93 1317.81 Q1380.31 1320.64 1380.31 1324.81 Q1380.31 1331.2 1375.91 1334.71 Q1371.51 1338.21 1363.41 1338.21 Q1360.69 1338.21 1357.8 1337.66 Q1354.93 1337.14 1351.86 1336.07 L1351.86 1330.42 Q1354.29 1331.84 1357.19 1332.56 Q1360.08 1333.29 1363.23 1333.29 Q1368.73 1333.29 1371.6 1331.12 Q1374.49 1328.95 1374.49 1324.81 Q1374.49 1320.99 1371.8 1318.85 Q1369.14 1316.68 1364.36 1316.68 L1359.33 1316.68 L1359.33 1311.88 L1364.59 1311.88 Q1368.91 1311.88 1371.19 1310.17 Q1373.48 1308.43 1373.48 1305.19 Q1373.48 1301.86 1371.11 1300.1 Q1368.76 1298.31 1364.36 1298.31 Q1361.96 1298.31 1359.21 1298.83 Q1356.46 1299.35 1353.17 1300.45 L1353.17 1295.24 Q1356.49 1294.31 1359.39 1293.85 Q1362.31 1293.39 1364.88 1293.39 Q1371.54 1293.39 1375.42 1296.42 Q1379.29 1299.43 1379.29 1304.58 Q1379.29 1308.17 1377.24 1310.66 Q1375.19 1313.12 1371.39 1314.07 Z" fill="#000000" fill-rule="nonzero" fill-opacity="1" /><path clip-path="url(#clip410)" d="M1403.89 1298.02 Q1399.37 1298.02 1397.09 1302.47 Q1394.83 1306.9 1394.83 1315.81 Q1394.83 1324.69 1397.09 1329.15 Q1399.37 1333.58 1403.89 1333.58 Q1408.43 1333.58 1410.69 1329.15 Q1412.97 1324.69 1412.97 1315.81 Q1412.97 1306.9 1410.69 1302.47 Q1408.43 1298.02 1403.89 1298.02 M1403.89 1293.39 Q1411.15 1293.39 1414.97 1299.14 Q1418.82 1304.87 1418.82 1315.81 Q1418.82 1326.72 1414.97 1332.48 Q1411.15 1338.21 1403.89 1338.21 Q1396.63 1338.21 1392.78 1332.48 Q1388.96 1326.72 1388.96 1315.81 Q1388.96 1304.87 1392.78 1299.14 Q1396.63 1293.39 1403.89 1293.39 Z" fill="#000000" fill-rule="nonzero" fill-opacity="1" /><path clip-path="url(#clip410)" d="M1441.59 1298.02 Q1437.08 1298.02 1434.79 1302.47 Q1432.53 1306.9 1432.53 1315.81 Q1432.53 1324.69 1434.79 1329.15 Q1437.08 1333.58 1441.59 1333.58 Q1446.13 1333.58 1448.39 1329.15 Q1450.68 1324.69 1450.68 1315.81 Q1450.68 1306.9 1448.39 1302.47 Q1446.13 1298.02 1441.59 1298.02 M1441.59 1293.39 Q1448.85 1293.39 1452.67 1299.14 Q1456.52 1304.87 1456.52 1315.81 Q1456.52 1326.72 1452.67 1332.48 Q1448.85 1338.21 1441.59 1338.21 Q1434.33 1338.21 1430.48 1332.48 Q1426.66 1326.72 1426.66 1315.81 Q1426.66 1304.87 1430.48 1299.14 Q1434.33 1293.39 1441.59 1293.39 Z" fill="#000000" fill-rule="nonzero" fill-opacity="1" /><path clip-path="url(#clip410)" d="M1591.25 1314.07 Q1595.45 1314.97 1597.79 1317.81 Q1600.16 1320.64 1600.16 1324.81 Q1600.16 1331.2 1595.76 1334.71 Q1591.37 1338.21 1583.26 1338.21 Q1580.54 1338.21 1577.65 1337.66 Q1574.79 1337.14 1571.72 1336.07 L1571.72 1330.42 Q1574.15 1331.84 1577.04 1332.56 Q1579.94 1333.29 1583.09 1333.29 Q1588.59 1333.29 1591.45 1331.12 Q1594.35 1328.95 1594.35 1324.81 Q1594.35 1320.99 1591.66 1318.85 Q1588.99 1316.68 1584.22 1316.68 L1579.18 1316.68 L1579.18 1311.88 L1584.45 1311.88 Q1588.76 1311.88 1591.05 1310.17 Q1593.33 1308.43 1593.33 1305.19 Q1593.33 1301.86 1590.96 1300.1 Q1588.62 1298.31 1584.22 1298.31 Q1581.82 1298.31 1579.07 1298.83 Q1576.32 1299.35 1573.02 1300.45 L1573.02 1295.24 Q1576.35 1294.31 1579.24 1293.85 Q1582.17 1293.39 1584.74 1293.39 Q1591.4 1293.39 1595.27 1296.42 Q1599.15 1299.43 1599.15 1304.58 Q1599.15 1308.17 1597.1 1310.66 Q1595.04 1313.12 1591.25 1314.07 Z" fill="#000000" fill-rule="nonzero" fill-opacity="1" /><path clip-path="url(#clip410)" d="M1623.74 1298.02 Q1619.23 1298.02 1616.95 1302.47 Q1614.69 1306.9 1614.69 1315.81 Q1614.69 1324.69 1616.95 1329.15 Q1619.23 1333.58 1623.74 1333.58 Q1628.29 1333.58 1630.54 1329.15 Q1632.83 1324.69 1632.83 1315.81 Q1632.83 1306.9 1630.54 1302.47 Q1628.29 1298.02 1623.74 1298.02 M1623.74 1293.39 Q1631.01 1293.39 1634.83 1299.14 Q1638.68 1304.87 1638.68 1315.81 Q1638.68 1326.72 1634.83 1332.48 Q1631.01 1338.21 1623.74 1338.21 Q1616.48 1338.21 1612.63 1332.48 Q1608.81 1326.72 1608.81 1315.81 Q1608.81 1304.87 1612.63 1299.14 Q1616.48 1293.39 1623.74 1293.39 Z" fill="#000000" fill-rule="nonzero" fill-opacity="1" /><path clip-path="url(#clip410)" d="M1649.96 1332.45 L1659.51 1332.45 L1659.51 1299.49 L1649.12 1301.57 L1649.12 1296.25 L1659.45 1294.17 L1665.3 1294.17 L1665.3 1332.45 L1674.84 1332.45 L1674.84 1337.37 L1649.96 1337.37 L1649.96 1332.45 Z" fill="#000000" fill-rule="nonzero" fill-opacity="1" /><path clip-path="url(#clip410)" d="M1710 1295.76 L1710 1304.96 L1720.97 1304.96 L1720.97 1309.1 L1710 1309.1 L1710 1326.69 Q1710 1330.65 1711.07 1331.78 Q1712.17 1332.91 1715.5 1332.91 L1720.97 1332.91 L1720.97 1337.37 L1715.5 1337.37 Q1709.33 1337.37 1706.99 1335.08 Q1704.65 1332.77 1704.65 1326.69 L1704.65 1309.1 L1700.74 1309.1 L1700.74 1304.96 L1704.65 1304.96 L1704.65 1295.76 L1710 1295.76 Z" fill="#000000" fill-rule="nonzero" fill-opacity="1" /><path clip-path="url(#clip410)" d="M1740.53 1308.69 Q1736.24 1308.69 1733.76 1312.05 Q1731.27 1315.38 1731.27 1321.19 Q1731.27 1327.01 1733.73 1330.37 Q1736.22 1333.69 1740.53 1333.69 Q1744.78 1333.69 1747.27 1330.34 Q1749.76 1326.98 1749.76 1321.19 Q1749.76 1315.43 1747.27 1312.08 Q1744.78 1308.69 1740.53 1308.69 M1740.53 1304.18 Q1747.47 1304.18 1751.44 1308.69 Q1755.4 1313.21 1755.4 1321.19 Q1755.4 1329.15 1751.44 1333.69 Q1747.47 1338.21 1740.53 1338.21 Q1733.55 1338.21 1729.59 1333.69 Q1725.65 1329.15 1725.65 1321.19 Q1725.65 1313.21 1729.59 1308.69 Q1733.55 1304.18 1740.53 1304.18 Z" fill="#000000" fill-rule="nonzero" fill-opacity="1" /><path clip-path="url(#clip410)" d="M1799.87 1299.26 L1785.12 1322.32 L1799.87 1322.32 L1799.87 1299.26 M1798.34 1294.17 L1805.69 1294.17 L1805.69 1322.32 L1811.85 1322.32 L1811.85 1327.18 L1805.69 1327.18 L1805.69 1337.37 L1799.87 1337.37 L1799.87 1327.18 L1780.37 1327.18 L1780.37 1321.54 L1798.34 1294.17 Z" fill="#000000" fill-rule="nonzero" fill-opacity="1" /><path clip-path="url(#clip410)" d="M1834.02 1298.02 Q1829.5 1298.02 1827.22 1302.47 Q1824.96 1306.9 1824.96 1315.81 Q1824.96 1324.69 1827.22 1329.15 Q1829.5 1333.58 1834.02 1333.58 Q1838.56 1333.58 1840.82 1329.15 Q1843.1 1324.69 1843.1 1315.81 Q1843.1 1306.9 1840.82 1302.47 Q1838.56 1298.02 1834.02 1298.02 M1834.02 1293.39 Q1841.28 1293.39 1845.1 1299.14 Q1848.95 1304.87 1848.95 1315.81 Q1848.95 1326.72 1845.1 1332.48 Q1841.28 1338.21 1834.02 1338.21 Q1826.75 1338.21 1822.9 1332.48 Q1819.09 1326.72 1819.09 1315.81 Q1819.09 1304.87 1822.9 1299.14 Q1826.75 1293.39 1834.02 1293.39 Z" fill="#000000" fill-rule="nonzero" fill-opacity="1" /><path clip-path="url(#clip410)" d="M1871.72 1298.02 Q1867.2 1298.02 1864.92 1302.47 Q1862.66 1306.9 1862.66 1315.81 Q1862.66 1324.69 1864.92 1329.15 Q1867.2 1333.58 1871.72 1333.58 Q1876.26 1333.58 1878.52 1329.15 Q1880.8 1324.69 1880.8 1315.81 Q1880.8 1306.9 1878.52 1302.47 Q1876.26 1298.02 1871.72 1298.02 M1871.72 1293.39 Q1878.98 1293.39 1882.8 1299.14 Q1886.65 1304.87 1886.65 1315.81 Q1886.65 1326.72 1882.8 1332.48 Q1878.98 1338.21 1871.72 1338.21 Q1864.46 1338.21 1860.61 1332.48 Q1856.79 1326.72 1856.79 1315.81 Q1856.79 1304.87 1860.61 1299.14 Q1864.46 1293.39 1871.72 1293.39 Z" fill="#000000" fill-rule="nonzero" fill-opacity="1" /><path clip-path="url(#clip410)" d="M2020.63 1299.26 L2005.87 1322.32 L2020.63 1322.32 L2020.63 1299.26 M2019.09 1294.17 L2026.44 1294.17 L2026.44 1322.32 L2032.6 1322.32 L2032.6 1327.18 L2026.44 1327.18 L2026.44 1337.37 L2020.63 1337.37 L2020.63 1327.18 L2001.12 1327.18 L2001.12 1321.54 L2019.09 1294.17 Z" fill="#000000" fill-rule="nonzero" fill-opacity="1" /><path clip-path="url(#clip410)" d="M2054.77 1298.02 Q2050.26 1298.02 2047.97 1302.47 Q2045.71 1306.9 2045.71 1315.81 Q2045.71 1324.69 2047.97 1329.15 Q2050.26 1333.58 2054.77 1333.58 Q2059.31 1333.58 2061.57 1329.15 Q2063.85 1324.69 2063.85 1315.81 Q2063.85 1306.9 2061.57 1302.47 Q2059.31 1298.02 2054.77 1298.02 M2054.77 1293.39 Q2062.03 1293.39 2065.85 1299.14 Q2069.7 1304.87 2069.7 1315.81 Q2069.7 1326.72 2065.85 1332.48 Q2062.03 1338.21 2054.77 1338.21 Q2047.51 1338.21 2043.66 1332.48 Q2039.84 1326.72 2039.84 1315.81 Q2039.84 1304.87 2043.66 1299.14 Q2047.51 1293.39 2054.77 1293.39 Z" fill="#000000" fill-rule="nonzero" fill-opacity="1" /><path clip-path="url(#clip410)" d="M2080.98 1332.45 L2090.53 1332.45 L2090.53 1299.49 L2080.14 1301.57 L2080.14 1296.25 L2090.47 1294.17 L2096.32 1294.17 L2096.32 1332.45 L2105.87 1332.45 L2105.87 1337.37 L2080.98 1337.37 L2080.98 1332.45 Z" fill="#000000" fill-rule="nonzero" fill-opacity="1" /><path clip-path="url(#clip410)" d="M2141.02 1295.76 L2141.02 1304.96 L2151.99 1304.96 L2151.99 1309.1 L2141.02 1309.1 L2141.02 1326.69 Q2141.02 1330.65 2142.09 1331.78 Q2143.19 1332.91 2146.52 1332.91 L2151.99 1332.91 L2151.99 1337.37 L2146.52 1337.37 Q2140.36 1337.37 2138.01 1335.08 Q2135.67 1332.77 2135.67 1326.69 L2135.67 1309.1 L2131.77 1309.1 L2131.77 1304.96 L2135.67 1304.96 L2135.67 1295.76 L2141.02 1295.76 Z" fill="#000000" fill-rule="nonzero" fill-opacity="1" /><path clip-path="url(#clip410)" d="M2171.55 1308.69 Q2167.27 1308.69 2164.78 1312.05 Q2162.29 1315.38 2162.29 1321.19 Q2162.29 1327.01 2164.75 1330.37 Q2167.24 1333.69 2171.55 1333.69 Q2175.8 1333.69 2178.29 1330.34 Q2180.78 1326.98 2180.78 1321.19 Q2180.78 1315.43 2178.29 1312.08 Q2175.8 1308.69 2171.55 1308.69 M2171.55 1304.18 Q2178.5 1304.18 2182.46 1308.69 Q2186.42 1313.21 2186.42 1321.19 Q2186.42 1329.15 2182.46 1333.69 Q2178.5 1338.21 2171.55 1338.21 Q2164.58 1338.21 2160.61 1333.69 Q2156.68 1329.15 2156.68 1321.19 Q2156.68 1313.21 2160.61 1308.69 Q2164.58 1304.18 2171.55 1304.18 Z" fill="#000000" fill-rule="nonzero" fill-opacity="1" /><path clip-path="url(#clip410)" d="M2214.9 1294.17 L2237.84 1294.17 L2237.84 1299.09 L2220.25 1299.09 L2220.25 1309.68 Q2221.52 1309.24 2222.79 1309.04 Q2224.07 1308.81 2225.34 1308.81 Q2232.57 1308.81 2236.8 1312.77 Q2241.02 1316.74 2241.02 1323.51 Q2241.02 1330.48 2236.68 1334.36 Q2232.34 1338.21 2224.44 1338.21 Q2221.72 1338.21 2218.89 1337.74 Q2216.08 1337.28 2213.07 1336.35 L2213.07 1330.48 Q2215.68 1331.9 2218.45 1332.59 Q2221.23 1333.29 2224.33 1333.29 Q2229.33 1333.29 2232.26 1330.65 Q2235.18 1328.02 2235.18 1323.51 Q2235.18 1318.99 2232.26 1316.36 Q2229.33 1313.73 2224.33 1313.73 Q2221.98 1313.73 2219.64 1314.25 Q2217.33 1314.77 2214.9 1315.87 L2214.9 1294.17 Z" fill="#000000" fill-rule="nonzero" fill-opacity="1" /><path clip-path="url(#clip410)" d="M2265.04 1298.02 Q2260.53 1298.02 2258.24 1302.47 Q2255.98 1306.9 2255.98 1315.81 Q2255.98 1324.69 2258.24 1329.15 Q2260.53 1333.58 2265.04 1333.58 Q2269.58 1333.58 2271.84 1329.15 Q2274.13 1324.69 2274.13 1315.81 Q2274.13 1306.9 2271.84 1302.47 Q2269.58 1298.02 2265.04 1298.02 M2265.04 1293.39 Q2272.3 1293.39 2276.12 1299.14 Q2279.97 1304.87 2279.97 1315.81 Q2279.97 1326.72 2276.12 1332.48 Q2272.3 1338.21 2265.04 1338.21 Q2257.78 1338.21 2253.93 1332.48 Q2250.11 1326.72 2250.11 1315.81 Q2250.11 1304.87 2253.93 1299.14 Q2257.78 1293.39 2265.04 1293.39 Z" fill="#000000" fill-rule="nonzero" fill-opacity="1" /><path clip-path="url(#clip410)" d="M2302.74 1298.02 Q2298.23 1298.02 2295.94 1302.47 Q2293.69 1306.9 2293.69 1315.81 Q2293.69 1324.69 2295.94 1329.15 Q2298.23 1333.58 2302.74 1333.58 Q2307.28 1333.58 2309.54 1329.15 Q2311.83 1324.69 2311.83 1315.81 Q2311.83 1306.9 2309.54 1302.47 Q2307.28 1298.02 2302.74 1298.02 M2302.74 1293.39 Q2310 1293.39 2313.82 1299.14 Q2317.67 1304.87 2317.67 1315.81 Q2317.67 1326.72 2313.82 1332.48 Q2310 1338.21 2302.74 1338.21 Q2295.48 1338.21 2291.63 1332.48 Q2287.81 1326.72 2287.81 1315.81 Q2287.81 1304.87 2291.63 1299.14 Q2295.48 1293.39 2302.74 1293.39 Z" fill="#000000" fill-rule="nonzero" fill-opacity="1" /><path clip-path="url(#clip410)" d="M984.109 1378.04 L984.109 1385.45 Q979.784 1383.38 975.947 1382.37 Q972.11 1381.35 968.536 1381.35 Q962.33 1381.35 958.944 1383.76 Q955.597 1386.17 955.597 1390.61 Q955.597 1394.33 957.816 1396.25 Q960.073 1398.13 966.317 1399.3 L970.906 1400.24 Q979.407 1401.85 983.432 1405.95 Q987.495 1410.02 987.495 1416.86 Q987.495 1425.02 982.003 1429.24 Q976.549 1433.45 965.979 1433.45 Q961.991 1433.45 957.477 1432.55 Q953.001 1431.64 948.186 1429.88 L948.186 1422.05 Q952.813 1424.65 957.252 1425.96 Q961.69 1427.28 965.979 1427.28 Q972.486 1427.28 976.022 1424.72 Q979.558 1422.17 979.558 1417.43 Q979.558 1413.29 977 1410.96 Q974.48 1408.62 968.687 1407.46 L964.06 1406.56 Q955.559 1404.86 951.76 1401.25 Q947.961 1397.64 947.961 1391.21 Q947.961 1383.76 953.189 1379.47 Q958.455 1375.18 967.671 1375.18 Q971.621 1375.18 975.721 1375.9 Q979.821 1376.61 984.109 1378.04 Z" fill="#000000" fill-rule="nonzero" fill-opacity="1" /><path clip-path="url(#clip410)" d="M1018.19 1411.18 Q1009.8 1411.18 1006.57 1413.1 Q1003.33 1415.02 1003.33 1419.65 Q1003.33 1423.33 1005.74 1425.51 Q1008.18 1427.66 1012.36 1427.66 Q1018.11 1427.66 1021.57 1423.6 Q1025.07 1419.5 1025.07 1412.72 L1025.07 1411.18 L1018.19 1411.18 M1031.99 1408.32 L1031.99 1432.36 L1025.07 1432.36 L1025.07 1425.96 Q1022.7 1429.8 1019.17 1431.64 Q1015.63 1433.45 1010.52 1433.45 Q1004.05 1433.45 1000.21 1429.84 Q996.41 1426.19 996.41 1420.1 Q996.41 1412.99 1001.15 1409.38 Q1005.93 1405.77 1015.37 1405.77 L1025.07 1405.77 L1025.07 1405.09 Q1025.07 1400.31 1021.91 1397.72 Q1018.79 1395.08 1013.11 1395.08 Q1009.5 1395.08 1006.08 1395.95 Q1002.65 1396.81 999.494 1398.54 L999.494 1392.15 Q1003.29 1390.68 1006.87 1389.97 Q1010.44 1389.21 1013.83 1389.21 Q1022.97 1389.21 1027.48 1393.95 Q1031.99 1398.69 1031.99 1408.32 Z" fill="#000000" fill-rule="nonzero" fill-opacity="1" /><path clip-path="url(#clip410)" d="M1079.05 1398.32 Q1081.65 1393.65 1085.26 1391.43 Q1088.87 1389.21 1093.76 1389.21 Q1100.34 1389.21 1103.91 1393.84 Q1107.49 1398.43 1107.49 1406.93 L1107.49 1432.36 L1100.53 1432.36 L1100.53 1407.16 Q1100.53 1401.1 1098.39 1398.17 Q1096.24 1395.23 1091.84 1395.23 Q1086.46 1395.23 1083.34 1398.81 Q1080.22 1402.38 1080.22 1408.55 L1080.22 1432.36 L1073.26 1432.36 L1073.26 1407.16 Q1073.26 1401.06 1071.11 1398.17 Q1068.97 1395.23 1064.49 1395.23 Q1059.19 1395.23 1056.07 1398.84 Q1052.95 1402.42 1052.95 1408.55 L1052.95 1432.36 L1045.99 1432.36 L1045.99 1390.23 L1052.95 1390.23 L1052.95 1396.78 Q1055.32 1392.9 1058.63 1391.06 Q1061.94 1389.21 1066.49 1389.21 Q1071.08 1389.21 1074.27 1391.55 Q1077.51 1393.88 1079.05 1398.32 Z" fill="#000000" fill-rule="nonzero" fill-opacity="1" /><path clip-path="url(#clip410)" d="M1127.99 1426.04 L1127.99 1448.38 L1121.03 1448.38 L1121.03 1390.23 L1127.99 1390.23 L1127.99 1396.62 Q1130.17 1392.86 1133.48 1391.06 Q1136.83 1389.21 1141.46 1389.21 Q1149.13 1389.21 1153.91 1395.31 Q1158.72 1401.4 1158.72 1411.33 Q1158.72 1421.26 1153.91 1427.36 Q1149.13 1433.45 1141.46 1433.45 Q1136.83 1433.45 1133.48 1431.64 Q1130.17 1429.8 1127.99 1426.04 M1151.54 1411.33 Q1151.54 1403.7 1148.38 1399.37 Q1145.25 1395.01 1139.76 1395.01 Q1134.27 1395.01 1131.11 1399.37 Q1127.99 1403.7 1127.99 1411.33 Q1127.99 1418.97 1131.11 1423.33 Q1134.27 1427.66 1139.76 1427.66 Q1145.25 1427.66 1148.38 1423.33 Q1151.54 1418.97 1151.54 1411.33 Z" fill="#000000" fill-rule="nonzero" fill-opacity="1" /><path clip-path="url(#clip410)" d="M1170.19 1373.83 L1177.11 1373.83 L1177.11 1432.36 L1170.19 1432.36 L1170.19 1373.83 Z" fill="#000000" fill-rule="nonzero" fill-opacity="1" /><path clip-path="url(#clip410)" d="M1227.63 1409.56 L1227.63 1412.95 L1195.81 1412.95 Q1196.26 1420.1 1200.1 1423.86 Q1203.97 1427.58 1210.86 1427.58 Q1214.84 1427.58 1218.57 1426.6 Q1222.33 1425.63 1226.01 1423.67 L1226.01 1430.22 Q1222.29 1431.8 1218.38 1432.62 Q1214.47 1433.45 1210.44 1433.45 Q1200.36 1433.45 1194.46 1427.58 Q1188.59 1421.71 1188.59 1411.71 Q1188.59 1401.36 1194.15 1395.31 Q1199.76 1389.21 1209.24 1389.21 Q1217.74 1389.21 1222.67 1394.71 Q1227.63 1400.16 1227.63 1409.56 M1220.71 1407.53 Q1220.64 1401.85 1217.51 1398.47 Q1214.43 1395.08 1209.31 1395.08 Q1203.52 1395.08 1200.02 1398.36 Q1196.56 1401.63 1196.04 1407.57 L1220.71 1407.53 Z" fill="#000000" fill-rule="nonzero" fill-opacity="1" /><path clip-path="url(#clip410)" d="M1290.34 1391.47 L1290.34 1398.02 Q1287.4 1396.51 1284.24 1395.76 Q1281.08 1395.01 1277.7 1395.01 Q1272.55 1395.01 1269.95 1396.59 Q1267.39 1398.17 1267.39 1401.33 Q1267.39 1403.73 1269.24 1405.13 Q1271.08 1406.48 1276.65 1407.72 L1279.02 1408.25 Q1286.39 1409.83 1289.47 1412.72 Q1292.59 1415.58 1292.59 1420.74 Q1292.59 1426.6 1287.93 1430.03 Q1283.3 1433.45 1275.18 1433.45 Q1271.79 1433.45 1268.11 1432.77 Q1264.46 1432.13 1260.4 1430.82 L1260.4 1423.67 Q1264.23 1425.66 1267.96 1426.68 Q1271.68 1427.66 1275.33 1427.66 Q1280.22 1427.66 1282.85 1426 Q1285.48 1424.31 1285.48 1421.26 Q1285.48 1418.44 1283.57 1416.94 Q1281.69 1415.43 1275.25 1414.04 L1272.85 1413.48 Q1266.41 1412.12 1263.56 1409.34 Q1260.7 1406.52 1260.7 1401.63 Q1260.7 1395.68 1264.91 1392.45 Q1269.12 1389.21 1276.87 1389.21 Q1280.71 1389.21 1284.09 1389.78 Q1287.48 1390.34 1290.34 1391.47 Z" fill="#000000" fill-rule="nonzero" fill-opacity="1" /><path clip-path="url(#clip410)" d="M1303.62 1390.23 L1310.54 1390.23 L1310.54 1432.36 L1303.62 1432.36 L1303.62 1390.23 M1303.62 1373.83 L1310.54 1373.83 L1310.54 1382.59 L1303.62 1382.59 L1303.62 1373.83 Z" fill="#000000" fill-rule="nonzero" fill-opacity="1" /><path clip-path="url(#clip410)" d="M1322.01 1390.23 L1354.89 1390.23 L1354.89 1396.55 L1328.86 1426.83 L1354.89 1426.83 L1354.89 1432.36 L1321.07 1432.36 L1321.07 1426.04 L1347.1 1395.76 L1322.01 1395.76 L1322.01 1390.23 Z" fill="#000000" fill-rule="nonzero" fill-opacity="1" /><path clip-path="url(#clip410)" d="M1401.49 1409.56 L1401.49 1412.95 L1369.67 1412.95 Q1370.12 1420.1 1373.96 1423.86 Q1377.83 1427.58 1384.71 1427.58 Q1388.7 1427.58 1392.43 1426.6 Q1396.19 1425.63 1399.87 1423.67 L1399.87 1430.22 Q1396.15 1431.8 1392.24 1432.62 Q1388.33 1433.45 1384.3 1433.45 Q1374.22 1433.45 1368.31 1427.58 Q1362.45 1421.71 1362.45 1411.71 Q1362.45 1401.36 1368.01 1395.31 Q1373.62 1389.21 1383.1 1389.21 Q1391.6 1389.21 1396.53 1394.71 Q1401.49 1400.16 1401.49 1409.56 M1394.57 1407.53 Q1394.49 1401.85 1391.37 1398.47 Q1388.29 1395.08 1383.17 1395.08 Q1377.38 1395.08 1373.88 1398.36 Q1370.42 1401.63 1369.89 1407.57 L1394.57 1407.53 Z" fill="#000000" fill-rule="nonzero" fill-opacity="1" /><path clip-path="url(#clip410)" d="M1461.75 1396.7 Q1460.59 1396.02 1459.19 1395.72 Q1457.84 1395.38 1456.18 1395.38 Q1450.32 1395.38 1447.16 1399.22 Q1444.03 1403.02 1444.03 1410.17 L1444.03 1432.36 L1437.08 1432.36 L1437.08 1390.23 L1444.03 1390.23 L1444.03 1396.78 Q1446.22 1392.94 1449.71 1391.1 Q1453.21 1389.21 1458.22 1389.21 Q1458.93 1389.21 1459.8 1389.33 Q1460.66 1389.4 1461.71 1389.59 L1461.75 1396.7 Z" fill="#000000" fill-rule="nonzero" fill-opacity="1" /><path clip-path="url(#clip410)" d="M1488.16 1411.18 Q1479.77 1411.18 1476.53 1413.1 Q1473.3 1415.02 1473.3 1419.65 Q1473.3 1423.33 1475.71 1425.51 Q1478.15 1427.66 1482.33 1427.66 Q1488.08 1427.66 1491.54 1423.6 Q1495.04 1419.5 1495.04 1412.72 L1495.04 1411.18 L1488.16 1411.18 M1501.96 1408.32 L1501.96 1432.36 L1495.04 1432.36 L1495.04 1425.96 Q1492.67 1429.8 1489.14 1431.64 Q1485.6 1433.45 1480.48 1433.45 Q1474.01 1433.45 1470.18 1429.84 Q1466.38 1426.19 1466.38 1420.1 Q1466.38 1412.99 1471.12 1409.38 Q1475.89 1405.77 1485.34 1405.77 L1495.04 1405.77 L1495.04 1405.09 Q1495.04 1400.31 1491.88 1397.72 Q1488.76 1395.08 1483.08 1395.08 Q1479.47 1395.08 1476.05 1395.95 Q1472.62 1396.81 1469.46 1398.54 L1469.46 1392.15 Q1473.26 1390.68 1476.84 1389.97 Q1480.41 1389.21 1483.79 1389.21 Q1492.93 1389.21 1497.45 1393.95 Q1501.96 1398.69 1501.96 1408.32 Z" fill="#000000" fill-rule="nonzero" fill-opacity="1" /><path clip-path="url(#clip410)" d="M1551.24 1406.93 L1551.24 1432.36 L1544.32 1432.36 L1544.32 1407.16 Q1544.32 1401.18 1541.99 1398.2 Q1539.65 1395.23 1534.99 1395.23 Q1529.38 1395.23 1526.15 1398.81 Q1522.91 1402.38 1522.91 1408.55 L1522.91 1432.36 L1515.96 1432.36 L1515.96 1390.23 L1522.91 1390.23 L1522.91 1396.78 Q1525.4 1392.98 1528.74 1391.1 Q1532.13 1389.21 1536.53 1389.21 Q1543.79 1389.21 1547.51 1393.73 Q1551.24 1398.2 1551.24 1406.93 Z" fill="#000000" fill-rule="nonzero" fill-opacity="1" /><path clip-path="url(#clip410)" d="M1592.77 1410.81 Q1592.77 1403.28 1589.64 1399.15 Q1586.56 1395.01 1580.96 1395.01 Q1575.39 1395.01 1572.27 1399.15 Q1569.18 1403.28 1569.18 1410.81 Q1569.18 1418.29 1572.27 1422.43 Q1575.39 1426.57 1580.96 1426.57 Q1586.56 1426.57 1589.64 1422.43 Q1592.77 1418.29 1592.77 1410.81 M1599.69 1427.13 Q1599.69 1437.89 1594.91 1443.12 Q1590.13 1448.38 1580.28 1448.38 Q1576.63 1448.38 1573.39 1447.82 Q1570.16 1447.29 1567.11 1446.16 L1567.11 1439.43 Q1570.16 1441.09 1573.13 1441.88 Q1576.1 1442.67 1579.19 1442.67 Q1586 1442.67 1589.38 1439.09 Q1592.77 1435.56 1592.77 1428.37 L1592.77 1424.95 Q1590.62 1428.67 1587.27 1430.52 Q1583.93 1432.36 1579.26 1432.36 Q1571.51 1432.36 1566.77 1426.45 Q1562.03 1420.55 1562.03 1410.81 Q1562.03 1401.03 1566.77 1395.12 Q1571.51 1389.21 1579.26 1389.21 Q1583.93 1389.21 1587.27 1391.06 Q1590.62 1392.9 1592.77 1396.62 L1592.77 1390.23 L1599.69 1390.23 L1599.69 1427.13 Z" fill="#000000" fill-rule="nonzero" fill-opacity="1" /><path clip-path="url(#clip410)" d="M1649.98 1409.56 L1649.98 1412.95 L1618.16 1412.95 Q1618.61 1420.1 1622.44 1423.86 Q1626.32 1427.58 1633.2 1427.58 Q1637.19 1427.58 1640.91 1426.6 Q1644.68 1425.63 1648.36 1423.67 L1648.36 1430.22 Q1644.64 1431.8 1640.73 1432.62 Q1636.81 1433.45 1632.79 1433.45 Q1622.71 1433.45 1616.8 1427.58 Q1610.93 1421.71 1610.93 1411.71 Q1610.93 1401.36 1616.5 1395.31 Q1622.11 1389.21 1631.59 1389.21 Q1640.09 1389.21 1645.01 1394.71 Q1649.98 1400.16 1649.98 1409.56 M1643.06 1407.53 Q1642.98 1401.85 1639.86 1398.47 Q1636.78 1395.08 1631.66 1395.08 Q1625.87 1395.08 1622.37 1398.36 Q1618.91 1401.63 1618.38 1407.57 L1643.06 1407.53 Z" fill="#000000" fill-rule="nonzero" fill-opacity="1" /><polyline clip-path="url(#clip412)" style="stroke:#000000; stroke-linecap:round; stroke-linejoin:round; stroke-width:2; stroke-opacity:0.1; fill:none" points="386.917,1170.34 2211.02,1170.34 "/>
<polyline clip-path="url(#clip412)" style="stroke:#000000; stroke-linecap:round; stroke-linejoin:round; stroke-width:2; stroke-opacity:0.1; fill:none" points="386.917,853.363 2211.02,853.363 "/>
<polyline clip-path="url(#clip412)" style="stroke:#000000; stroke-linecap:round; stroke-linejoin:round; stroke-width:2; stroke-opacity:0.1; fill:none" points="386.917,536.385 2211.02,536.385 "/>
<polyline clip-path="url(#clip412)" style="stroke:#000000; stroke-linecap:round; stroke-linejoin:round; stroke-width:2; stroke-opacity:0.1; fill:none" points="386.917,219.406 2211.02,219.406 "/>
<polyline clip-path="url(#clip410)" style="stroke:#000000; stroke-linecap:round; stroke-linejoin:round; stroke-width:4; stroke-opacity:1; fill:none" points="386.917,1264.17 386.917,188.976 "/>
<polyline clip-path="url(#clip410)" style="stroke:#000000; stroke-linecap:round; stroke-linejoin:round; stroke-width:4; stroke-opacity:1; fill:none" points="386.917,1170.34 405.814,1170.34 "/>
<polyline clip-path="url(#clip410)" style="stroke:#000000; stroke-linecap:round; stroke-linejoin:round; stroke-width:4; stroke-opacity:1; fill:none" points="386.917,853.363 405.814,853.363 "/>
<polyline clip-path="url(#clip410)" style="stroke:#000000; stroke-linecap:round; stroke-linejoin:round; stroke-width:4; stroke-opacity:1; fill:none" points="386.917,536.385 405.814,536.385 "/>
<polyline clip-path="url(#clip410)" style="stroke:#000000; stroke-linecap:round; stroke-linejoin:round; stroke-width:4; stroke-opacity:1; fill:none" points="386.917,219.406 405.814,219.406 "/>
<path clip-path="url(#clip410)" d="M280.576 1152.59 Q276.062 1152.59 273.776 1157.05 Q271.519 1161.47 271.519 1170.39 Q271.519 1179.27 273.776 1183.72 Q276.062 1188.15 280.576 1188.15 Q285.118 1188.15 287.375 1183.72 Q289.661 1179.27 289.661 1170.39 Q289.661 1161.47 287.375 1157.05 Q285.118 1152.59 280.576 1152.59 M280.576 1147.96 Q287.838 1147.96 291.658 1153.72 Q295.506 1159.45 295.506 1170.39 Q295.506 1181.29 291.658 1187.05 Q287.838 1192.78 280.576 1192.78 Q273.313 1192.78 269.465 1187.05 Q265.645 1181.29 265.645 1170.39 Q265.645 1159.45 269.465 1153.72 Q273.313 1147.96 280.576 1147.96 Z" fill="#000000" fill-rule="nonzero" fill-opacity="1" /><path clip-path="url(#clip410)" d="M305.778 1184.59 L311.883 1184.59 L311.883 1191.94 L305.778 1191.94 L305.778 1184.59 Z" fill="#000000" fill-rule="nonzero" fill-opacity="1" /><path clip-path="url(#clip410)" d="M323.139 1148.74 L350.917 1148.74 L350.917 1151.23 L335.234 1191.94 L329.129 1191.94 L343.885 1153.66 L323.139 1153.66 L323.139 1148.74 Z" fill="#000000" fill-rule="nonzero" fill-opacity="1" /><path clip-path="url(#clip410)" d="M279.563 835.612 Q275.049 835.612 272.763 840.068 Q270.506 844.495 270.506 853.407 Q270.506 862.29 272.763 866.746 Q275.049 871.173 279.563 871.173 Q284.106 871.173 286.363 866.746 Q288.649 862.29 288.649 853.407 Q288.649 844.495 286.363 840.068 Q284.106 835.612 279.563 835.612 M279.563 830.982 Q286.826 830.982 290.645 836.74 Q294.493 842.469 294.493 853.407 Q294.493 864.315 290.645 870.073 Q286.826 875.802 279.563 875.802 Q272.3 875.802 268.452 870.073 Q264.632 864.315 264.632 853.407 Q264.632 842.469 268.452 836.74 Q272.3 830.982 279.563 830.982 Z" fill="#000000" fill-rule="nonzero" fill-opacity="1" /><path clip-path="url(#clip410)" d="M304.765 867.614 L310.871 867.614 L310.871 874.963 L304.765 874.963 L304.765 867.614 Z" fill="#000000" fill-rule="nonzero" fill-opacity="1" /><path clip-path="url(#clip410)" d="M336.102 854.448 Q331.935 854.448 329.534 856.676 Q327.161 858.904 327.161 862.811 Q327.161 866.717 329.534 868.945 Q331.935 871.173 336.102 871.173 Q340.269 871.173 342.67 868.945 Q345.072 866.688 345.072 862.811 Q345.072 858.904 342.67 856.676 Q340.298 854.448 336.102 854.448 M330.257 851.96 Q326.496 851.034 324.383 848.459 Q322.3 845.884 322.3 842.18 Q322.3 837.001 325.975 833.991 Q329.678 830.982 336.102 830.982 Q342.554 830.982 346.229 833.991 Q349.904 837.001 349.904 842.18 Q349.904 845.884 347.792 848.459 Q345.708 851.034 341.976 851.96 Q346.2 852.944 348.544 855.808 Q350.917 858.673 350.917 862.811 Q350.917 869.09 347.068 872.446 Q343.249 875.802 336.102 875.802 Q328.955 875.802 325.107 872.446 Q321.287 869.09 321.287 862.811 Q321.287 858.673 323.66 855.808 Q326.033 852.944 330.257 851.96 M328.116 842.73 Q328.116 846.086 330.199 847.967 Q332.311 849.848 336.102 849.848 Q339.864 849.848 341.976 847.967 Q344.117 846.086 344.117 842.73 Q344.117 839.373 341.976 837.493 Q339.864 835.612 336.102 835.612 Q332.311 835.612 330.199 837.493 Q328.116 839.373 328.116 842.73 Z" fill="#000000" fill-rule="nonzero" fill-opacity="1" /><path clip-path="url(#clip410)" d="M279.679 518.633 Q275.165 518.633 272.879 523.089 Q270.622 527.516 270.622 536.428 Q270.622 545.311 272.879 549.767 Q275.165 554.194 279.679 554.194 Q284.221 554.194 286.478 549.767 Q288.764 545.311 288.764 536.428 Q288.764 527.516 286.478 523.089 Q284.221 518.633 279.679 518.633 M279.679 514.004 Q286.941 514.004 290.761 519.762 Q294.609 525.491 294.609 536.428 Q294.609 547.337 290.761 553.095 Q286.941 558.824 279.679 558.824 Q272.416 558.824 268.568 553.095 Q264.748 547.337 264.748 536.428 Q264.748 525.491 268.568 519.762 Q272.416 514.004 279.679 514.004 Z" fill="#000000" fill-rule="nonzero" fill-opacity="1" /><path clip-path="url(#clip410)" d="M304.881 550.635 L310.986 550.635 L310.986 557.985 L304.881 557.985 L304.881 550.635 Z" fill="#000000" fill-rule="nonzero" fill-opacity="1" /><path clip-path="url(#clip410)" d="M323.891 557.088 L323.891 551.764 Q326.09 552.805 328.347 553.355 Q330.604 553.905 332.774 553.905 Q338.561 553.905 341.6 550.028 Q344.667 546.121 345.101 538.193 Q343.423 540.682 340.847 542.013 Q338.272 543.344 335.147 543.344 Q328.666 543.344 324.875 539.437 Q321.114 535.502 321.114 528.703 Q321.114 522.048 325.049 518.026 Q328.984 514.004 335.523 514.004 Q343.017 514.004 346.953 519.762 Q350.917 525.491 350.917 536.428 Q350.917 546.642 346.056 552.748 Q341.223 558.824 333.035 558.824 Q330.836 558.824 328.579 558.39 Q326.322 557.956 323.891 557.088 M335.523 538.772 Q339.458 538.772 341.744 536.081 Q344.059 533.39 344.059 528.703 Q344.059 524.044 341.744 521.353 Q339.458 518.633 335.523 518.633 Q331.588 518.633 329.273 521.353 Q326.987 524.044 326.987 528.703 Q326.987 533.39 329.273 536.081 Q331.588 538.772 335.523 538.772 Z" fill="#000000" fill-rule="nonzero" fill-opacity="1" /><path clip-path="url(#clip410)" d="M267.96 236.087 L277.509 236.087 L277.509 203.13 L267.121 205.214 L267.121 199.89 L277.451 197.806 L283.296 197.806 L283.296 236.087 L292.844 236.087 L292.844 241.006 L267.96 241.006 L267.96 236.087 Z" fill="#000000" fill-rule="nonzero" fill-opacity="1" /><path clip-path="url(#clip410)" d="M304.65 233.657 L310.755 233.657 L310.755 241.006 L304.65 241.006 L304.65 233.657 Z" fill="#000000" fill-rule="nonzero" fill-opacity="1" /><path clip-path="url(#clip410)" d="M335.986 201.655 Q331.472 201.655 329.186 206.111 Q326.93 210.538 326.93 219.45 Q326.93 228.333 329.186 232.789 Q331.472 237.216 335.986 237.216 Q340.529 237.216 342.786 232.789 Q345.072 228.333 345.072 219.45 Q345.072 210.538 342.786 206.111 Q340.529 201.655 335.986 201.655 M335.986 197.025 Q343.249 197.025 347.068 202.783 Q350.917 208.512 350.917 219.45 Q350.917 230.358 347.068 236.116 Q343.249 241.845 335.986 241.845 Q328.724 241.845 324.875 236.116 Q321.056 230.358 321.056 219.45 Q321.056 208.512 324.875 202.783 Q328.724 197.025 335.986 197.025 Z" fill="#000000" fill-rule="nonzero" fill-opacity="1" /><path clip-path="url(#clip410)" d="M155.624 1005.55 L155.624 994.225 L193.842 979.894 L155.624 965.487 L155.624 954.165 L211.784 954.165 L211.784 961.575 L162.47 961.575 L200.989 976.057 L200.989 983.693 L162.47 998.175 L211.784 998.175 L211.784 1005.55 L155.624 1005.55 Z" fill="#000000" fill-rule="nonzero" fill-opacity="1" /><path clip-path="url(#clip410)" d="M188.989 903.346 L192.375 903.346 L192.375 935.169 Q199.522 934.718 203.283 930.881 Q207.007 927.006 207.007 920.123 Q207.007 916.135 206.029 912.412 Q205.051 908.65 203.095 904.964 L209.64 904.964 Q211.22 908.688 212.048 912.6 Q212.875 916.512 212.875 920.536 Q212.875 930.617 207.007 936.523 Q201.139 942.391 191.134 942.391 Q180.789 942.391 174.733 936.824 Q168.639 931.219 168.639 921.74 Q168.639 913.239 174.131 908.311 Q179.586 903.346 188.989 903.346 M186.958 910.267 Q181.278 910.343 177.893 913.465 Q174.507 916.549 174.507 921.665 Q174.507 927.458 177.78 930.956 Q181.053 934.417 186.996 934.943 L186.958 910.267 Z" fill="#000000" fill-rule="nonzero" fill-opacity="1" /><path clip-path="url(#clip410)" d="M190.607 872.84 Q190.607 881.228 192.525 884.463 Q194.444 887.698 199.07 887.698 Q202.757 887.698 204.938 885.291 Q207.082 882.846 207.082 878.67 Q207.082 872.915 203.02 869.455 Q198.92 865.956 192.149 865.956 L190.607 865.956 L190.607 872.84 M187.748 859.035 L211.784 859.035 L211.784 865.956 L205.39 865.956 Q209.227 868.326 211.07 871.862 Q212.875 875.398 212.875 880.514 Q212.875 886.983 209.264 890.82 Q205.615 894.619 199.522 894.619 Q192.412 894.619 188.801 889.88 Q185.19 885.103 185.19 875.661 L185.19 865.956 L184.513 865.956 Q179.736 865.956 177.141 869.116 Q174.507 872.238 174.507 877.918 Q174.507 881.529 175.373 884.952 Q176.238 888.375 177.968 891.535 L171.573 891.535 Q170.106 887.736 169.392 884.162 Q168.639 880.589 168.639 877.203 Q168.639 868.063 173.379 863.549 Q178.119 859.035 187.748 859.035 Z" fill="#000000" fill-rule="nonzero" fill-opacity="1" /><path clip-path="url(#clip410)" d="M186.356 809.759 L211.784 809.759 L211.784 816.68 L186.582 816.68 Q180.601 816.68 177.63 819.012 Q174.658 821.344 174.658 826.009 Q174.658 831.613 178.231 834.848 Q181.805 838.083 187.974 838.083 L211.784 838.083 L211.784 845.042 L169.655 845.042 L169.655 838.083 L176.2 838.083 Q172.401 835.601 170.52 832.253 Q168.639 828.867 168.639 824.466 Q168.639 817.207 173.153 813.483 Q177.63 809.759 186.356 809.759 Z" fill="#000000" fill-rule="nonzero" fill-opacity="1" /><path clip-path="url(#clip410)" d="M157.693 764.62 L169.655 764.62 L169.655 750.364 L175.034 750.364 L175.034 764.62 L197.904 764.62 Q203.058 764.62 204.525 763.228 Q205.992 761.799 205.992 757.473 L205.992 750.364 L211.784 750.364 L211.784 757.473 Q211.784 765.485 208.813 768.532 Q205.804 771.579 197.904 771.579 L175.034 771.579 L175.034 776.657 L169.655 776.657 L169.655 771.579 L157.693 771.579 L157.693 764.62 Z" fill="#000000" fill-rule="nonzero" fill-opacity="1" /><path clip-path="url(#clip410)" d="M188.989 705.225 L192.375 705.225 L192.375 737.048 Q199.522 736.597 203.283 732.76 Q207.007 728.885 207.007 722.002 Q207.007 718.014 206.029 714.29 Q205.051 710.529 203.095 706.843 L209.64 706.843 Q211.22 710.567 212.048 714.479 Q212.875 718.391 212.875 722.415 Q212.875 732.496 207.007 738.402 Q201.139 744.27 191.134 744.27 Q180.789 744.27 174.733 738.703 Q168.639 733.098 168.639 723.619 Q168.639 715.118 174.131 710.19 Q179.586 705.225 188.989 705.225 M186.958 712.146 Q181.278 712.222 177.893 715.344 Q174.507 718.428 174.507 723.544 Q174.507 729.337 177.78 732.835 Q181.053 736.296 186.996 736.822 L186.958 712.146 Z" fill="#000000" fill-rule="nonzero" fill-opacity="1" /><path clip-path="url(#clip410)" d="M170.896 667.008 L177.441 667.008 Q175.937 669.942 175.185 673.101 Q174.432 676.261 174.432 679.647 Q174.432 684.8 176.012 687.395 Q177.592 689.953 180.752 689.953 Q183.159 689.953 184.551 688.11 Q185.905 686.267 187.146 680.7 L187.673 678.33 Q189.253 670.957 192.149 667.873 Q195.008 664.751 200.161 664.751 Q206.029 664.751 209.452 669.415 Q212.875 674.042 212.875 682.167 Q212.875 685.552 212.198 689.239 Q211.559 692.887 210.242 696.95 L203.095 696.95 Q205.089 693.113 206.104 689.389 Q207.082 685.665 207.082 682.016 Q207.082 677.126 205.427 674.493 Q203.735 671.86 200.688 671.86 Q197.867 671.86 196.362 673.779 Q194.857 675.659 193.466 682.092 L192.901 684.499 Q191.547 690.931 188.764 693.79 Q185.943 696.649 181.053 696.649 Q175.109 696.649 171.874 692.436 Q168.639 688.223 168.639 680.474 Q168.639 676.637 169.204 673.252 Q169.768 669.867 170.896 667.008 Z" fill="#000000" fill-rule="nonzero" fill-opacity="1" /><path clip-path="url(#clip410)" d="M157.693 646.883 L169.655 646.883 L169.655 632.627 L175.034 632.627 L175.034 646.883 L197.904 646.883 Q203.058 646.883 204.525 645.492 Q205.992 644.062 205.992 639.736 L205.992 632.627 L211.784 632.627 L211.784 639.736 Q211.784 647.749 208.813 650.795 Q205.804 653.842 197.904 653.842 L175.034 653.842 L175.034 658.92 L169.655 658.92 L169.655 653.842 L157.693 653.842 L157.693 646.883 Z" fill="#000000" fill-rule="nonzero" fill-opacity="1" /><path clip-path="url(#clip410)" d="M163.11 579.965 L191.058 590.272 L191.058 569.621 L163.11 579.965 M155.624 584.254 L155.624 575.64 L211.784 554.236 L211.784 562.136 L197.378 567.251 L197.378 592.567 L211.784 597.682 L211.784 605.694 L155.624 584.254 Z" fill="#000000" fill-rule="nonzero" fill-opacity="1" /><path clip-path="url(#clip410)" d="M155.624 546.901 L155.624 539.265 L189.742 539.265 Q198.769 539.265 202.757 535.993 Q206.706 532.72 206.706 525.385 Q206.706 518.088 202.757 514.815 Q198.769 511.543 189.742 511.543 L155.624 511.543 L155.624 503.907 L190.682 503.907 Q201.666 503.907 207.271 509.361 Q212.875 514.778 212.875 525.385 Q212.875 536.03 207.271 541.485 Q201.666 546.901 190.682 546.901 L155.624 546.901 Z" fill="#000000" fill-rule="nonzero" fill-opacity="1" /><path clip-path="url(#clip410)" d="M159.95 447.596 L167.962 447.596 Q164.389 451.433 162.621 455.797 Q160.853 460.122 160.853 465.012 Q160.853 474.642 166.759 479.758 Q172.627 484.873 183.761 484.873 Q194.857 484.873 200.763 479.758 Q206.631 474.642 206.631 465.012 Q206.631 460.122 204.863 455.797 Q203.095 451.433 199.522 447.596 L207.459 447.596 Q210.167 451.584 211.521 456.06 Q212.875 460.498 212.875 465.464 Q212.875 478.215 205.089 485.55 Q197.265 492.885 183.761 492.885 Q170.219 492.885 162.433 485.55 Q154.609 478.215 154.609 465.464 Q154.609 460.423 155.963 455.985 Q157.28 451.508 159.95 447.596 Z" fill="#000000" fill-rule="nonzero" fill-opacity="1" /><path clip-path="url(#clip412)" d="M438.542 1075.25 L868.756 766.194 L1298.97 663.176 L1729.18 766.194 L2159.4 441.291 L2159.4 219.406 L1729.18 504.687 L1298.97 409.593 L868.756 306.575 L438.542 591.856  Z" fill="#1f77b4" fill-rule="evenodd" fill-opacity="0.3"/>
<polyline clip-path="url(#clip412)" style="stroke:#1f77b4; stroke-linecap:round; stroke-linejoin:round; stroke-width:20; stroke-opacity:1; fill:none" points="438.542,679.025 868.756,583.932 1298.97,599.781 1729.18,568.083 2159.4,251.104 "/>
<path clip-path="url(#clip412)" d="M438.542 1019.78 L868.756 813.741 L1298.97 694.874 L1729.18 805.817 L2159.4 251.104 L2159.4 219.406 L1729.18 504.687 L1298.97 377.896 L868.756 290.726 L438.542 362.047  Z" fill="#ff7e0d" fill-rule="evenodd" fill-opacity="0.3"/>
<polyline clip-path="url(#clip412)" style="stroke:#ff7e0d; stroke-linecap:round; stroke-linejoin:round; stroke-width:20; stroke-opacity:1; fill:none" points="438.542,663.176 868.756,599.781 1298.97,631.478 1729.18,583.932 2159.4,251.104 "/>
<path clip-path="url(#clip412)" d="M438.542 1011.85 L868.756 932.608 L1298.97 663.176 L1729.18 821.666 L2159.4 251.104 L2159.4 219.406 L1729.18 488.838 L1298.97 377.896 L868.756 306.575 L438.542 465.065  Z" fill="#2ba02b" fill-rule="evenodd" fill-opacity="0.3"/>
<polyline clip-path="url(#clip412)" style="stroke:#2ba02b; stroke-linecap:round; stroke-linejoin:round; stroke-width:20; stroke-opacity:1; fill:none" points="438.542,694.874 868.756,647.327 1298.97,536.385 1729.18,599.781 2159.4,251.104 "/>
<path clip-path="url(#clip412)" d="M438.542 1233.74 L868.756 908.835 L1298.97 726.572 L1729.18 892.986 L2159.4 346.198 L2159.4 282.802 L1729.18 591.856 L1298.97 441.291 L868.756 583.932 L438.542 623.554  Z" fill="#d52628" fill-rule="evenodd" fill-opacity="0.3"/>
<polyline clip-path="url(#clip412)" style="stroke:#d52628; stroke-linecap:round; stroke-linejoin:round; stroke-width:20; stroke-opacity:1; fill:none" points="438.542,726.572 868.756,789.968 1298.97,568.083 1729.18,647.327 2159.4,314.5 "/>
<path clip-path="url(#clip412)" d="M438.542 1075.25 L868.756 1154.49 L1298.97 694.874 L1729.18 908.835 L2159.4 758.27 L2159.4 251.104 L1729.18 583.932 L1298.97 409.593 L868.756 631.478 L438.542 576.007  Z" fill="#9466bd" fill-rule="evenodd" fill-opacity="0.3"/>
<polyline clip-path="url(#clip412)" style="stroke:#9466bd; stroke-linecap:round; stroke-linejoin:round; stroke-width:20; stroke-opacity:1; fill:none" points="438.542,694.874 868.756,916.759 1298.97,663.176 1729.18,631.478 2159.4,251.104 "/>
<path clip-path="url(#clip410)" d="M1534.11 1228.33 L2150.22 1228.33 L2150.22 917.288 L1534.11 917.288  Z" fill="#ffffff" fill-rule="evenodd" fill-opacity="1"/>
<polyline clip-path="url(#clip410)" style="stroke:#000000; stroke-linecap:round; stroke-linejoin:round; stroke-width:4; stroke-opacity:1; fill:none" points="1534.11,1228.33 2150.22,1228.33 2150.22,917.288 1534.11,917.288 1534.11,1228.33 "/>
<polyline clip-path="url(#clip410)" style="stroke:#1f77b4; stroke-linecap:round; stroke-linejoin:round; stroke-width:20; stroke-opacity:1; fill:none" points="1554.38,969.128 1675.98,969.128 "/>
<path clip-path="url(#clip410)" d="M1712.08 956.454 L1705.74 973.653 L1718.45 973.653 L1712.08 956.454 M1709.45 951.848 L1714.75 951.848 L1727.92 986.408 L1723.06 986.408 L1719.91 977.542 L1704.33 977.542 L1701.18 986.408 L1696.25 986.408 L1709.45 951.848 Z" fill="#000000" fill-rule="nonzero" fill-opacity="1" /><path clip-path="url(#clip410)" d="M1732.34 976.176 L1732.34 960.482 L1736.6 960.482 L1736.6 976.014 Q1736.6 979.695 1738.03 981.547 Q1739.47 983.375 1742.34 983.375 Q1745.79 983.375 1747.78 981.176 Q1749.79 978.977 1749.79 975.181 L1749.79 960.482 L1754.05 960.482 L1754.05 986.408 L1749.79 986.408 L1749.79 982.426 Q1748.24 984.787 1746.18 985.945 Q1744.14 987.079 1741.44 987.079 Q1736.97 987.079 1734.65 984.301 Q1732.34 981.524 1732.34 976.176 M1743.06 959.857 L1743.06 959.857 Z" fill="#000000" fill-rule="nonzero" fill-opacity="1" /><path clip-path="url(#clip410)" d="M1767.04 953.121 L1767.04 960.482 L1775.81 960.482 L1775.81 963.792 L1767.04 963.792 L1767.04 977.866 Q1767.04 981.038 1767.89 981.94 Q1768.77 982.843 1771.44 982.843 L1775.81 982.843 L1775.81 986.408 L1771.44 986.408 Q1766.51 986.408 1764.63 984.579 Q1762.76 982.727 1762.76 977.866 L1762.76 963.792 L1759.63 963.792 L1759.63 960.482 L1762.76 960.482 L1762.76 953.121 L1767.04 953.121 Z" fill="#000000" fill-rule="nonzero" fill-opacity="1" /><path clip-path="url(#clip410)" d="M1791.46 963.468 Q1788.03 963.468 1786.04 966.153 Q1784.05 968.815 1784.05 973.468 Q1784.05 978.121 1786.02 980.806 Q1788.01 983.468 1791.46 983.468 Q1794.86 983.468 1796.85 980.783 Q1798.84 978.098 1798.84 973.468 Q1798.84 968.862 1796.85 966.176 Q1794.86 963.468 1791.46 963.468 M1791.46 959.857 Q1797.01 959.857 1800.19 963.468 Q1803.36 967.079 1803.36 973.468 Q1803.36 979.834 1800.19 983.468 Q1797.01 987.079 1791.46 987.079 Q1785.88 987.079 1782.71 983.468 Q1779.56 979.834 1779.56 973.468 Q1779.56 967.079 1782.71 963.468 Q1785.88 959.857 1791.46 959.857 Z" fill="#000000" fill-rule="nonzero" fill-opacity="1" /><path clip-path="url(#clip410)" d="M1815.28 955.69 L1815.28 968.676 L1821.16 968.676 Q1824.42 968.676 1826.2 966.987 Q1827.99 965.297 1827.99 962.172 Q1827.99 959.07 1826.2 957.38 Q1824.42 955.69 1821.16 955.69 L1815.28 955.69 M1810.6 951.848 L1821.16 951.848 Q1826.97 951.848 1829.93 954.487 Q1832.92 957.102 1832.92 962.172 Q1832.92 967.288 1829.93 969.903 Q1826.97 972.519 1821.16 972.519 L1815.28 972.519 L1815.28 986.408 L1810.6 986.408 L1810.6 951.848 Z" fill="#000000" fill-rule="nonzero" fill-opacity="1" /><path clip-path="url(#clip410)" d="M1853.19 964.464 Q1852.48 964.047 1851.62 963.862 Q1850.79 963.653 1849.77 963.653 Q1846.16 963.653 1844.21 966.014 Q1842.29 968.352 1842.29 972.751 L1842.29 986.408 L1838.01 986.408 L1838.01 960.482 L1842.29 960.482 L1842.29 964.51 Q1843.63 962.149 1845.79 961.014 Q1847.94 959.857 1851.02 959.857 Q1851.46 959.857 1851.99 959.927 Q1852.52 959.973 1853.17 960.089 L1853.19 964.464 Z" fill="#000000" fill-rule="nonzero" fill-opacity="1" /><path clip-path="url(#clip410)" d="M1866.67 963.468 Q1863.24 963.468 1861.25 966.153 Q1859.26 968.815 1859.26 973.468 Q1859.26 978.121 1861.23 980.806 Q1863.22 983.468 1866.67 983.468 Q1870.07 983.468 1872.06 980.783 Q1874.05 978.098 1874.05 973.468 Q1874.05 968.862 1872.06 966.176 Q1870.07 963.468 1866.67 963.468 M1866.67 959.857 Q1872.22 959.857 1875.39 963.468 Q1878.56 967.079 1878.56 973.468 Q1878.56 979.834 1875.39 983.468 Q1872.22 987.079 1866.67 987.079 Q1861.09 987.079 1857.92 983.468 Q1854.77 979.834 1854.77 973.468 Q1854.77 967.079 1857.92 963.468 Q1861.09 959.857 1866.67 959.857 Z" fill="#000000" fill-rule="nonzero" fill-opacity="1" /><path clip-path="url(#clip410)" d="M1902.68 973.144 Q1902.68 968.514 1900.76 965.968 Q1898.87 963.422 1895.42 963.422 Q1891.99 963.422 1890.07 965.968 Q1888.17 968.514 1888.17 973.144 Q1888.17 977.75 1890.07 980.297 Q1891.99 982.843 1895.42 982.843 Q1898.87 982.843 1900.76 980.297 Q1902.68 977.75 1902.68 973.144 M1906.94 983.19 Q1906.94 989.811 1904 993.028 Q1901.06 996.269 1895 996.269 Q1892.75 996.269 1890.76 995.922 Q1888.77 995.598 1886.9 994.903 L1886.9 990.76 Q1888.77 991.778 1890.6 992.264 Q1892.43 992.75 1894.33 992.75 Q1898.52 992.75 1900.6 990.551 Q1902.68 988.375 1902.68 983.954 L1902.68 981.848 Q1901.37 984.139 1899.31 985.274 Q1897.25 986.408 1894.37 986.408 Q1889.61 986.408 1886.69 982.774 Q1883.77 979.139 1883.77 973.144 Q1883.77 967.126 1886.69 963.491 Q1889.61 959.857 1894.37 959.857 Q1897.25 959.857 1899.31 960.991 Q1901.37 962.126 1902.68 964.417 L1902.68 960.482 L1906.94 960.482 L1906.94 983.19 Z" fill="#000000" fill-rule="nonzero" fill-opacity="1" /><path clip-path="url(#clip410)" d="M1937.27 970.76 L1937.27 986.408 L1933.01 986.408 L1933.01 970.899 Q1933.01 967.218 1931.57 965.389 Q1930.14 963.561 1927.27 963.561 Q1923.82 963.561 1921.83 965.76 Q1919.84 967.959 1919.84 971.755 L1919.84 986.408 L1915.56 986.408 L1915.56 960.482 L1919.84 960.482 L1919.84 964.51 Q1921.37 962.172 1923.43 961.014 Q1925.51 959.857 1928.22 959.857 Q1932.68 959.857 1934.98 962.635 Q1937.27 965.389 1937.27 970.76 Z" fill="#000000" fill-rule="nonzero" fill-opacity="1" /><path clip-path="url(#clip410)" d="M1955.81 963.468 Q1952.38 963.468 1950.39 966.153 Q1948.4 968.815 1948.4 973.468 Q1948.4 978.121 1950.37 980.806 Q1952.36 983.468 1955.81 983.468 Q1959.21 983.468 1961.2 980.783 Q1963.19 978.098 1963.19 973.468 Q1963.19 968.862 1961.2 966.176 Q1959.21 963.468 1955.81 963.468 M1955.81 959.857 Q1961.37 959.857 1964.54 963.468 Q1967.71 967.079 1967.71 973.468 Q1967.71 979.834 1964.54 983.468 Q1961.37 987.079 1955.81 987.079 Q1950.23 987.079 1947.06 983.468 Q1943.91 979.834 1943.91 973.468 Q1943.91 967.079 1947.06 963.468 Q1950.23 959.857 1955.81 959.857 Z" fill="#000000" fill-rule="nonzero" fill-opacity="1" /><path clip-path="url(#clip410)" d="M1991.3 961.246 L1991.3 965.274 Q1989.49 964.348 1987.55 963.885 Q1985.6 963.422 1983.52 963.422 Q1980.35 963.422 1978.75 964.394 Q1977.18 965.366 1977.18 967.311 Q1977.18 968.792 1978.31 969.649 Q1979.44 970.482 1982.87 971.246 L1984.33 971.57 Q1988.86 972.542 1990.76 974.325 Q1992.68 976.084 1992.68 979.255 Q1992.68 982.866 1989.81 984.973 Q1986.97 987.079 1981.97 987.079 Q1979.88 987.079 1977.62 986.662 Q1975.37 986.269 1972.87 985.459 L1972.87 981.061 Q1975.23 982.288 1977.52 982.913 Q1979.81 983.514 1982.06 983.514 Q1985.07 983.514 1986.69 982.496 Q1988.31 981.454 1988.31 979.579 Q1988.31 977.843 1987.13 976.917 Q1985.97 975.991 1982.01 975.135 L1980.53 974.788 Q1976.57 973.954 1974.81 972.241 Q1973.05 970.505 1973.05 967.496 Q1973.05 963.839 1975.65 961.848 Q1978.24 959.857 1983.01 959.857 Q1985.37 959.857 1987.45 960.204 Q1989.54 960.552 1991.3 961.246 Z" fill="#000000" fill-rule="nonzero" fill-opacity="1" /><path clip-path="url(#clip410)" d="M1999.47 960.482 L2003.73 960.482 L2003.73 986.408 L1999.47 986.408 L1999.47 960.482 M1999.47 950.39 L2003.73 950.39 L2003.73 955.783 L1999.47 955.783 L1999.47 950.39 Z" fill="#000000" fill-rule="nonzero" fill-opacity="1" /><path clip-path="url(#clip410)" d="M2029.17 961.246 L2029.17 965.274 Q2027.36 964.348 2025.42 963.885 Q2023.47 963.422 2021.39 963.422 Q2018.22 963.422 2016.62 964.394 Q2015.05 965.366 2015.05 967.311 Q2015.05 968.792 2016.18 969.649 Q2017.31 970.482 2020.74 971.246 L2022.2 971.57 Q2026.74 972.542 2028.63 974.325 Q2030.55 976.084 2030.55 979.255 Q2030.55 982.866 2027.68 984.973 Q2024.84 987.079 2019.84 987.079 Q2017.75 987.079 2015.49 986.662 Q2013.24 986.269 2010.74 985.459 L2010.74 981.061 Q2013.1 982.288 2015.39 982.913 Q2017.68 983.514 2019.93 983.514 Q2022.94 983.514 2024.56 982.496 Q2026.18 981.454 2026.18 979.579 Q2026.18 977.843 2025 976.917 Q2023.84 975.991 2019.88 975.135 L2018.4 974.788 Q2014.44 973.954 2012.68 972.241 Q2010.93 970.505 2010.93 967.496 Q2010.93 963.839 2013.52 961.848 Q2016.11 959.857 2020.88 959.857 Q2023.24 959.857 2025.32 960.204 Q2027.41 960.552 2029.17 961.246 Z" fill="#000000" fill-rule="nonzero" fill-opacity="1" /><polyline clip-path="url(#clip410)" style="stroke:#ff7e0d; stroke-linecap:round; stroke-linejoin:round; stroke-width:20; stroke-opacity:1; fill:none" points="1554.38,1020.97 1675.98,1020.97 "/>
<path clip-path="url(#clip410)" d="M1712.08 1008.29 L1705.74 1025.49 L1718.45 1025.49 L1712.08 1008.29 M1709.45 1003.69 L1714.75 1003.69 L1727.92 1038.25 L1723.06 1038.25 L1719.91 1029.38 L1704.33 1029.38 L1701.18 1038.25 L1696.25 1038.25 L1709.45 1003.69 Z" fill="#000000" fill-rule="nonzero" fill-opacity="1" /><path clip-path="url(#clip410)" d="M1732.34 1028.02 L1732.34 1012.32 L1736.6 1012.32 L1736.6 1027.85 Q1736.6 1031.53 1738.03 1033.39 Q1739.47 1035.22 1742.34 1035.22 Q1745.79 1035.22 1747.78 1033.02 Q1749.79 1030.82 1749.79 1027.02 L1749.79 1012.32 L1754.05 1012.32 L1754.05 1038.25 L1749.79 1038.25 L1749.79 1034.27 Q1748.24 1036.63 1746.18 1037.78 Q1744.14 1038.92 1741.44 1038.92 Q1736.97 1038.92 1734.65 1036.14 Q1732.34 1033.36 1732.34 1028.02 M1743.06 1011.7 L1743.06 1011.7 Z" fill="#000000" fill-rule="nonzero" fill-opacity="1" /><path clip-path="url(#clip410)" d="M1767.04 1004.96 L1767.04 1012.32 L1775.81 1012.32 L1775.81 1015.63 L1767.04 1015.63 L1767.04 1029.71 Q1767.04 1032.88 1767.89 1033.78 Q1768.77 1034.68 1771.44 1034.68 L1775.81 1034.68 L1775.81 1038.25 L1771.44 1038.25 Q1766.51 1038.25 1764.63 1036.42 Q1762.76 1034.57 1762.76 1029.71 L1762.76 1015.63 L1759.63 1015.63 L1759.63 1012.32 L1762.76 1012.32 L1762.76 1004.96 L1767.04 1004.96 Z" fill="#000000" fill-rule="nonzero" fill-opacity="1" /><path clip-path="url(#clip410)" d="M1791.46 1015.31 Q1788.03 1015.31 1786.04 1017.99 Q1784.05 1020.66 1784.05 1025.31 Q1784.05 1029.96 1786.02 1032.65 Q1788.01 1035.31 1791.46 1035.31 Q1794.86 1035.31 1796.85 1032.62 Q1798.84 1029.94 1798.84 1025.31 Q1798.84 1020.7 1796.85 1018.02 Q1794.86 1015.31 1791.46 1015.31 M1791.46 1011.7 Q1797.01 1011.7 1800.19 1015.31 Q1803.36 1018.92 1803.36 1025.31 Q1803.36 1031.67 1800.19 1035.31 Q1797.01 1038.92 1791.46 1038.92 Q1785.88 1038.92 1782.71 1035.31 Q1779.56 1031.67 1779.56 1025.31 Q1779.56 1018.92 1782.71 1015.31 Q1785.88 1011.7 1791.46 1011.7 Z" fill="#000000" fill-rule="nonzero" fill-opacity="1" /><path clip-path="url(#clip410)" d="M1834.17 1033.32 L1834.17 1024.03 L1826.53 1024.03 L1826.53 1020.19 L1838.8 1020.19 L1838.8 1035.03 Q1836.09 1036.95 1832.82 1037.95 Q1829.56 1038.92 1825.86 1038.92 Q1817.75 1038.92 1813.17 1034.2 Q1808.61 1029.45 1808.61 1021 Q1808.61 1012.53 1813.17 1007.81 Q1817.75 1003.06 1825.86 1003.06 Q1829.24 1003.06 1832.27 1003.9 Q1835.32 1004.73 1837.89 1006.35 L1837.89 1011.33 Q1835.3 1009.13 1832.38 1008.02 Q1829.47 1006.91 1826.25 1006.91 Q1819.91 1006.91 1816.71 1010.45 Q1813.54 1013.99 1813.54 1021 Q1813.54 1027.99 1816.71 1031.53 Q1819.91 1035.08 1826.25 1035.08 Q1828.73 1035.08 1830.67 1034.66 Q1832.62 1034.22 1834.17 1033.32 Z" fill="#000000" fill-rule="nonzero" fill-opacity="1" /><path clip-path="url(#clip410)" d="M1847.15 1002.23 L1851.41 1002.23 L1851.41 1038.25 L1847.15 1038.25 L1847.15 1002.23 Z" fill="#000000" fill-rule="nonzero" fill-opacity="1" /><path clip-path="url(#clip410)" d="M1859.88 1028.02 L1859.88 1012.32 L1864.14 1012.32 L1864.14 1027.85 Q1864.14 1031.53 1865.58 1033.39 Q1867.01 1035.22 1869.88 1035.22 Q1873.33 1035.22 1875.32 1033.02 Q1877.34 1030.82 1877.34 1027.02 L1877.34 1012.32 L1881.6 1012.32 L1881.6 1038.25 L1877.34 1038.25 L1877.34 1034.27 Q1875.79 1036.63 1873.73 1037.78 Q1871.69 1038.92 1868.98 1038.92 Q1864.51 1038.92 1862.2 1036.14 Q1859.88 1033.36 1859.88 1028.02 M1870.6 1011.7 L1870.6 1011.7 Z" fill="#000000" fill-rule="nonzero" fill-opacity="1" /><path clip-path="url(#clip410)" d="M1900.42 1015.31 Q1896.99 1015.31 1895 1017.99 Q1893.01 1020.66 1893.01 1025.31 Q1893.01 1029.96 1894.98 1032.65 Q1896.97 1035.31 1900.42 1035.31 Q1903.82 1035.31 1905.81 1032.62 Q1907.8 1029.94 1907.8 1025.31 Q1907.8 1020.7 1905.81 1018.02 Q1903.82 1015.31 1900.42 1015.31 M1900.42 1011.7 Q1905.97 1011.7 1909.14 1015.31 Q1912.31 1018.92 1912.31 1025.31 Q1912.31 1031.67 1909.14 1035.31 Q1905.97 1038.92 1900.42 1038.92 Q1894.84 1038.92 1891.67 1035.31 Q1888.52 1031.67 1888.52 1025.31 Q1888.52 1018.92 1891.67 1015.31 Q1894.84 1011.7 1900.42 1011.7 Z" fill="#000000" fill-rule="nonzero" fill-opacity="1" /><path clip-path="url(#clip410)" d="M1940.93 1022.6 L1940.93 1038.25 L1936.67 1038.25 L1936.67 1022.74 Q1936.67 1019.06 1935.23 1017.23 Q1933.8 1015.4 1930.93 1015.4 Q1927.48 1015.4 1925.49 1017.6 Q1923.49 1019.8 1923.49 1023.6 L1923.49 1038.25 L1919.21 1038.25 L1919.21 1012.32 L1923.49 1012.32 L1923.49 1016.35 Q1925.02 1014.01 1927.08 1012.85 Q1929.17 1011.7 1931.87 1011.7 Q1936.34 1011.7 1938.63 1014.47 Q1940.93 1017.23 1940.93 1022.6 Z" fill="#000000" fill-rule="nonzero" fill-opacity="1" /><polyline clip-path="url(#clip410)" style="stroke:#2ba02b; stroke-linecap:round; stroke-linejoin:round; stroke-width:20; stroke-opacity:1; fill:none" points="1554.38,1072.81 1675.98,1072.81 "/>
<path clip-path="url(#clip410)" d="M1696.25 1055.53 L1725.49 1055.53 L1725.49 1059.46 L1713.22 1059.46 L1713.22 1090.09 L1708.52 1090.09 L1708.52 1059.46 L1696.25 1059.46 L1696.25 1055.53 Z" fill="#000000" fill-rule="nonzero" fill-opacity="1" /><path clip-path="url(#clip410)" d="M1733.75 1077.06 Q1728.59 1077.06 1726.6 1078.24 Q1724.61 1079.42 1724.61 1082.26 Q1724.61 1084.53 1726.09 1085.87 Q1727.59 1087.19 1730.16 1087.19 Q1733.7 1087.19 1735.83 1084.69 Q1737.99 1082.17 1737.99 1078 L1737.99 1077.06 L1733.75 1077.06 M1742.25 1075.3 L1742.25 1090.09 L1737.99 1090.09 L1737.99 1086.15 Q1736.53 1088.51 1734.35 1089.65 Q1732.18 1090.76 1729.03 1090.76 Q1725.05 1090.76 1722.69 1088.54 Q1720.35 1086.29 1720.35 1082.54 Q1720.35 1078.17 1723.26 1075.94 Q1726.2 1073.72 1732.01 1073.72 L1737.99 1073.72 L1737.99 1073.31 Q1737.99 1070.37 1736.04 1068.77 Q1734.12 1067.15 1730.63 1067.15 Q1728.4 1067.15 1726.3 1067.68 Q1724.19 1068.21 1722.25 1069.28 L1722.25 1065.34 Q1724.58 1064.44 1726.78 1064 Q1728.98 1063.54 1731.07 1063.54 Q1736.69 1063.54 1739.47 1066.45 Q1742.25 1069.37 1742.25 1075.3 Z" fill="#000000" fill-rule="nonzero" fill-opacity="1" /><path clip-path="url(#clip410)" d="M1769.63 1077.15 Q1769.63 1072.45 1767.69 1069.79 Q1765.76 1067.1 1762.38 1067.1 Q1759.01 1067.1 1757.06 1069.79 Q1755.14 1072.45 1755.14 1077.15 Q1755.14 1081.85 1757.06 1084.53 Q1759.01 1087.19 1762.38 1087.19 Q1765.76 1087.19 1767.69 1084.53 Q1769.63 1081.85 1769.63 1077.15 M1755.14 1068.1 Q1756.48 1065.78 1758.52 1064.67 Q1760.58 1063.54 1763.43 1063.54 Q1768.15 1063.54 1771.09 1067.29 Q1774.05 1071.04 1774.05 1077.15 Q1774.05 1083.26 1771.09 1087.01 Q1768.15 1090.76 1763.43 1090.76 Q1760.58 1090.76 1758.52 1089.65 Q1756.48 1088.51 1755.14 1086.2 L1755.14 1090.09 L1750.86 1090.09 L1750.86 1054.07 L1755.14 1054.07 L1755.14 1068.1 Z" fill="#000000" fill-rule="nonzero" fill-opacity="1" /><path clip-path="url(#clip410)" d="M1785.97 1059.37 L1785.97 1072.36 L1791.85 1072.36 Q1795.12 1072.36 1796.9 1070.67 Q1798.68 1068.98 1798.68 1065.85 Q1798.68 1062.75 1796.9 1061.06 Q1795.12 1059.37 1791.85 1059.37 L1785.97 1059.37 M1781.3 1055.53 L1791.85 1055.53 Q1797.66 1055.53 1800.63 1058.17 Q1803.61 1060.78 1803.61 1065.85 Q1803.61 1070.97 1800.63 1073.58 Q1797.66 1076.2 1791.85 1076.2 L1785.97 1076.2 L1785.97 1090.09 L1781.3 1090.09 L1781.3 1055.53 Z" fill="#000000" fill-rule="nonzero" fill-opacity="1" /><path clip-path="url(#clip410)" d="M1809.88 1055.53 L1829.75 1055.53 L1829.75 1059.46 L1814.56 1059.46 L1814.56 1069.65 L1828.26 1069.65 L1828.26 1073.58 L1814.56 1073.58 L1814.56 1090.09 L1809.88 1090.09 L1809.88 1055.53 Z" fill="#000000" fill-rule="nonzero" fill-opacity="1" /><path clip-path="url(#clip410)" d="M1837.15 1055.53 L1843.45 1055.53 L1858.77 1084.44 L1858.77 1055.53 L1863.31 1055.53 L1863.31 1090.09 L1857.01 1090.09 L1841.69 1061.18 L1841.69 1090.09 L1837.15 1090.09 L1837.15 1055.53 Z" fill="#000000" fill-rule="nonzero" fill-opacity="1" /><polyline clip-path="url(#clip410)" style="stroke:#d52628; stroke-linecap:round; stroke-linejoin:round; stroke-width:20; stroke-opacity:1; fill:none" points="1554.38,1124.65 1675.98,1124.65 "/>
<path clip-path="url(#clip410)" d="M1696.25 1107.37 L1700.93 1107.37 L1700.93 1121.53 L1717.92 1121.53 L1717.92 1107.37 L1722.59 1107.37 L1722.59 1141.93 L1717.92 1141.93 L1717.92 1125.47 L1700.93 1125.47 L1700.93 1141.93 L1696.25 1141.93 L1696.25 1107.37 Z" fill="#000000" fill-rule="nonzero" fill-opacity="1" /><path clip-path="url(#clip410)" d="M1742.5 1144.34 Q1740.7 1148.96 1738.98 1150.38 Q1737.27 1151.79 1734.4 1151.79 L1731 1151.79 L1731 1148.22 L1733.5 1148.22 Q1735.26 1148.22 1736.23 1147.39 Q1737.2 1146.56 1738.38 1143.46 L1739.14 1141.51 L1728.66 1116 L1733.17 1116 L1741.27 1136.28 L1749.38 1116 L1753.89 1116 L1742.5 1144.34 Z" fill="#000000" fill-rule="nonzero" fill-opacity="1" /><path clip-path="url(#clip410)" d="M1763.89 1138.04 L1763.89 1151.79 L1759.61 1151.79 L1759.61 1116 L1763.89 1116 L1763.89 1119.94 Q1765.23 1117.62 1767.27 1116.51 Q1769.33 1115.38 1772.18 1115.38 Q1776.9 1115.38 1779.84 1119.13 Q1782.8 1122.88 1782.8 1128.99 Q1782.8 1135.1 1779.84 1138.85 Q1776.9 1142.6 1772.18 1142.6 Q1769.33 1142.6 1767.27 1141.49 Q1765.23 1140.35 1763.89 1138.04 M1778.38 1128.99 Q1778.38 1124.29 1776.44 1121.63 Q1774.51 1118.94 1771.13 1118.94 Q1767.76 1118.94 1765.81 1121.63 Q1763.89 1124.29 1763.89 1128.99 Q1763.89 1133.69 1765.81 1136.37 Q1767.76 1139.03 1771.13 1139.03 Q1774.51 1139.03 1776.44 1136.37 Q1778.38 1133.69 1778.38 1128.99 Z" fill="#000000" fill-rule="nonzero" fill-opacity="1" /><path clip-path="url(#clip410)" d="M1812.04 1127.9 L1812.04 1129.98 L1792.45 1129.98 Q1792.73 1134.38 1795.09 1136.7 Q1797.48 1138.99 1801.71 1138.99 Q1804.17 1138.99 1806.46 1138.39 Q1808.77 1137.78 1811.04 1136.58 L1811.04 1140.61 Q1808.75 1141.58 1806.34 1142.09 Q1803.94 1142.6 1801.46 1142.6 Q1795.25 1142.6 1791.62 1138.99 Q1788.01 1135.38 1788.01 1129.22 Q1788.01 1122.85 1791.44 1119.13 Q1794.88 1115.38 1800.72 1115.38 Q1805.95 1115.38 1808.98 1118.76 Q1812.04 1122.11 1812.04 1127.9 M1807.78 1126.65 Q1807.73 1123.15 1805.81 1121.07 Q1803.91 1118.99 1800.76 1118.99 Q1797.2 1118.99 1795.05 1121 Q1792.92 1123.02 1792.59 1126.67 L1807.78 1126.65 Z" fill="#000000" fill-rule="nonzero" fill-opacity="1" /><path clip-path="url(#clip410)" d="M1834.05 1119.98 Q1833.33 1119.57 1832.48 1119.38 Q1831.64 1119.17 1830.63 1119.17 Q1827.01 1119.17 1825.07 1121.53 Q1823.15 1123.87 1823.15 1128.27 L1823.15 1141.93 L1818.87 1141.93 L1818.87 1116 L1823.15 1116 L1823.15 1120.03 Q1824.49 1117.67 1826.64 1116.53 Q1828.8 1115.38 1831.88 1115.38 Q1832.31 1115.38 1832.85 1115.45 Q1833.38 1115.49 1834.03 1115.61 L1834.05 1119.98 Z" fill="#000000" fill-rule="nonzero" fill-opacity="1" /><path clip-path="url(#clip410)" d="M1838.7 1107.37 L1858.56 1107.37 L1858.56 1111.3 L1843.38 1111.3 L1843.38 1121.49 L1857.08 1121.49 L1857.08 1125.42 L1843.38 1125.42 L1843.38 1141.93 L1838.7 1141.93 L1838.7 1107.37 Z" fill="#000000" fill-rule="nonzero" fill-opacity="1" /><path clip-path="url(#clip410)" d="M1873.22 1128.9 Q1868.06 1128.9 1866.06 1130.08 Q1864.07 1131.26 1864.07 1134.1 Q1864.07 1136.37 1865.56 1137.71 Q1867.06 1139.03 1869.63 1139.03 Q1873.17 1139.03 1875.3 1136.53 Q1877.45 1134.01 1877.45 1129.84 L1877.45 1128.9 L1873.22 1128.9 M1881.71 1127.14 L1881.71 1141.93 L1877.45 1141.93 L1877.45 1137.99 Q1876 1140.35 1873.82 1141.49 Q1871.64 1142.6 1868.5 1142.6 Q1864.51 1142.6 1862.15 1140.38 Q1859.81 1138.13 1859.81 1134.38 Q1859.81 1130.01 1862.73 1127.78 Q1865.67 1125.56 1871.48 1125.56 L1877.45 1125.56 L1877.45 1125.15 Q1877.45 1122.21 1875.51 1120.61 Q1873.59 1118.99 1870.09 1118.99 Q1867.87 1118.99 1865.76 1119.52 Q1863.66 1120.05 1861.71 1121.12 L1861.71 1117.18 Q1864.05 1116.28 1866.25 1115.84 Q1868.45 1115.38 1870.53 1115.38 Q1876.16 1115.38 1878.94 1118.29 Q1881.71 1121.21 1881.71 1127.14 Z" fill="#000000" fill-rule="nonzero" fill-opacity="1" /><path clip-path="url(#clip410)" d="M1907.01 1116.77 L1907.01 1120.79 Q1905.21 1119.87 1903.26 1119.4 Q1901.32 1118.94 1899.24 1118.94 Q1896.06 1118.94 1894.47 1119.91 Q1892.89 1120.89 1892.89 1122.83 Q1892.89 1124.31 1894.03 1125.17 Q1895.16 1126 1898.59 1126.77 L1900.05 1127.09 Q1904.58 1128.06 1906.48 1129.84 Q1908.4 1131.6 1908.4 1134.78 Q1908.4 1138.39 1905.53 1140.49 Q1902.68 1142.6 1897.68 1142.6 Q1895.6 1142.6 1893.33 1142.18 Q1891.09 1141.79 1888.59 1140.98 L1888.59 1136.58 Q1890.95 1137.81 1893.24 1138.43 Q1895.53 1139.03 1897.78 1139.03 Q1900.79 1139.03 1902.41 1138.02 Q1904.03 1136.97 1904.03 1135.1 Q1904.03 1133.36 1902.85 1132.44 Q1901.69 1131.51 1897.73 1130.65 L1896.25 1130.31 Q1892.29 1129.47 1890.53 1127.76 Q1888.77 1126.03 1888.77 1123.02 Q1888.77 1119.36 1891.37 1117.37 Q1893.96 1115.38 1898.73 1115.38 Q1901.09 1115.38 1903.17 1115.72 Q1905.25 1116.07 1907.01 1116.77 Z" fill="#000000" fill-rule="nonzero" fill-opacity="1" /><path clip-path="url(#clip410)" d="M1919.4 1108.64 L1919.4 1116 L1928.17 1116 L1928.17 1119.31 L1919.4 1119.31 L1919.4 1133.39 Q1919.4 1136.56 1920.25 1137.46 Q1921.13 1138.36 1923.8 1138.36 L1928.17 1138.36 L1928.17 1141.93 L1923.8 1141.93 Q1918.87 1141.93 1916.99 1140.1 Q1915.12 1138.25 1915.12 1133.39 L1915.12 1119.31 L1911.99 1119.31 L1911.99 1116 L1915.12 1116 L1915.12 1108.64 L1919.4 1108.64 Z" fill="#000000" fill-rule="nonzero" fill-opacity="1" /><polyline clip-path="url(#clip410)" style="stroke:#9466bd; stroke-linecap:round; stroke-linejoin:round; stroke-width:20; stroke-opacity:1; fill:none" points="1554.38,1176.49 1675.98,1176.49 "/>
<path clip-path="url(#clip410)" d="M1696.25 1159.21 L1700.93 1159.21 L1700.93 1189.83 L1717.76 1189.83 L1717.76 1193.77 L1696.25 1193.77 L1696.25 1159.21 Z" fill="#000000" fill-rule="nonzero" fill-opacity="1" /><path clip-path="url(#clip410)" d="M1731.69 1170.83 Q1728.26 1170.83 1726.27 1173.51 Q1724.28 1176.18 1724.28 1180.83 Q1724.28 1185.48 1726.25 1188.17 Q1728.24 1190.83 1731.69 1190.83 Q1735.09 1190.83 1737.08 1188.14 Q1739.07 1185.46 1739.07 1180.83 Q1739.07 1176.22 1737.08 1173.54 Q1735.09 1170.83 1731.69 1170.83 M1731.69 1167.22 Q1737.25 1167.22 1740.42 1170.83 Q1743.59 1174.44 1743.59 1180.83 Q1743.59 1187.19 1740.42 1190.83 Q1737.25 1194.44 1731.69 1194.44 Q1726.11 1194.44 1722.94 1190.83 Q1719.79 1187.19 1719.79 1180.83 Q1719.79 1174.44 1722.94 1170.83 Q1726.11 1167.22 1731.69 1167.22 Z" fill="#000000" fill-rule="nonzero" fill-opacity="1" /><path clip-path="url(#clip410)" d="M1767.71 1180.5 Q1767.71 1175.87 1765.79 1173.33 Q1763.89 1170.78 1760.44 1170.78 Q1757.01 1170.78 1755.09 1173.33 Q1753.19 1175.87 1753.19 1180.5 Q1753.19 1185.11 1755.09 1187.66 Q1757.01 1190.2 1760.44 1190.2 Q1763.89 1190.2 1765.79 1187.66 Q1767.71 1185.11 1767.71 1180.5 M1771.97 1190.55 Q1771.97 1197.17 1769.03 1200.39 Q1766.09 1203.63 1760.02 1203.63 Q1757.78 1203.63 1755.79 1203.28 Q1753.8 1202.96 1751.92 1202.26 L1751.92 1198.12 Q1753.8 1199.14 1755.63 1199.62 Q1757.45 1200.11 1759.35 1200.11 Q1763.54 1200.11 1765.63 1197.91 Q1767.71 1195.74 1767.71 1191.31 L1767.71 1189.21 Q1766.39 1191.5 1764.33 1192.63 Q1762.27 1193.77 1759.4 1193.77 Q1754.63 1193.77 1751.71 1190.13 Q1748.8 1186.5 1748.8 1180.5 Q1748.8 1174.49 1751.71 1170.85 Q1754.63 1167.22 1759.4 1167.22 Q1762.27 1167.22 1764.33 1168.35 Q1766.39 1169.49 1767.71 1171.78 L1767.71 1167.84 L1771.97 1167.84 L1771.97 1190.55 Z" fill="#000000" fill-rule="nonzero" fill-opacity="1" /><path clip-path="url(#clip410)" d="M1780.74 1167.84 L1785 1167.84 L1785 1193.77 L1780.74 1193.77 L1780.74 1167.84 M1780.74 1157.75 L1785 1157.75 L1785 1163.14 L1780.74 1163.14 L1780.74 1157.75 Z" fill="#000000" fill-rule="nonzero" fill-opacity="1" /><path clip-path="url(#clip410)" d="M1810.44 1168.61 L1810.44 1172.63 Q1808.63 1171.71 1806.69 1171.24 Q1804.75 1170.78 1802.66 1170.78 Q1799.49 1170.78 1797.89 1171.75 Q1796.32 1172.73 1796.32 1174.67 Q1796.32 1176.15 1797.45 1177.01 Q1798.59 1177.84 1802.01 1178.61 L1803.47 1178.93 Q1808.01 1179.9 1809.91 1181.68 Q1811.83 1183.44 1811.83 1186.62 Q1811.83 1190.23 1808.96 1192.33 Q1806.11 1194.44 1801.11 1194.44 Q1799.03 1194.44 1796.76 1194.02 Q1794.51 1193.63 1792.01 1192.82 L1792.01 1188.42 Q1794.38 1189.65 1796.67 1190.27 Q1798.96 1190.87 1801.2 1190.87 Q1804.21 1190.87 1805.83 1189.86 Q1807.45 1188.81 1807.45 1186.94 Q1807.45 1185.2 1806.27 1184.28 Q1805.12 1183.35 1801.16 1182.49 L1799.68 1182.15 Q1795.72 1181.31 1793.96 1179.6 Q1792.2 1177.87 1792.2 1174.86 Q1792.2 1171.2 1794.79 1169.21 Q1797.38 1167.22 1802.15 1167.22 Q1804.51 1167.22 1806.6 1167.56 Q1808.68 1167.91 1810.44 1168.61 Z" fill="#000000" fill-rule="nonzero" fill-opacity="1" /><path clip-path="url(#clip410)" d="M1822.82 1160.48 L1822.82 1167.84 L1831.6 1167.84 L1831.6 1171.15 L1822.82 1171.15 L1822.82 1185.23 Q1822.82 1188.4 1823.68 1189.3 Q1824.56 1190.2 1827.22 1190.2 L1831.6 1190.2 L1831.6 1193.77 L1827.22 1193.77 Q1822.29 1193.77 1820.42 1191.94 Q1818.54 1190.09 1818.54 1185.23 L1818.54 1171.15 L1815.42 1171.15 L1815.42 1167.84 L1818.54 1167.84 L1818.54 1160.48 L1822.82 1160.48 Z" fill="#000000" fill-rule="nonzero" fill-opacity="1" /><path clip-path="url(#clip410)" d="M1837.2 1167.84 L1841.46 1167.84 L1841.46 1193.77 L1837.2 1193.77 L1837.2 1167.84 M1837.2 1157.75 L1841.46 1157.75 L1841.46 1163.14 L1837.2 1163.14 L1837.2 1157.75 Z" fill="#000000" fill-rule="nonzero" fill-opacity="1" /><path clip-path="url(#clip410)" d="M1869.03 1168.84 L1869.03 1172.82 Q1867.22 1171.82 1865.39 1171.34 Q1863.59 1170.83 1861.74 1170.83 Q1857.59 1170.83 1855.3 1173.47 Q1853.01 1176.08 1853.01 1180.83 Q1853.01 1185.57 1855.3 1188.21 Q1857.59 1190.83 1861.74 1190.83 Q1863.59 1190.83 1865.39 1190.34 Q1867.22 1189.83 1869.03 1188.84 L1869.03 1192.77 Q1867.25 1193.61 1865.32 1194.02 Q1863.43 1194.44 1861.27 1194.44 Q1855.42 1194.44 1851.97 1190.76 Q1848.52 1187.08 1848.52 1180.83 Q1848.52 1174.49 1851.99 1170.85 Q1855.49 1167.22 1861.55 1167.22 Q1863.52 1167.22 1865.39 1167.63 Q1867.27 1168.03 1869.03 1168.84 Z" fill="#000000" fill-rule="nonzero" fill-opacity="1" /><path clip-path="url(#clip410)" d="M1906.53 1171.82 Q1905.81 1171.41 1904.95 1171.22 Q1904.12 1171.01 1903.1 1171.01 Q1899.49 1171.01 1897.55 1173.37 Q1895.62 1175.71 1895.62 1180.11 L1895.62 1193.77 L1891.34 1193.77 L1891.34 1167.84 L1895.62 1167.84 L1895.62 1171.87 Q1896.97 1169.51 1899.12 1168.37 Q1901.27 1167.22 1904.35 1167.22 Q1904.79 1167.22 1905.32 1167.29 Q1905.86 1167.33 1906.5 1167.45 L1906.53 1171.82 Z" fill="#000000" fill-rule="nonzero" fill-opacity="1" /><path clip-path="url(#clip410)" d="M1932.13 1179.74 L1932.13 1181.82 L1912.55 1181.82 Q1912.82 1186.22 1915.18 1188.54 Q1917.57 1190.83 1921.81 1190.83 Q1924.26 1190.83 1926.55 1190.23 Q1928.87 1189.62 1931.13 1188.42 L1931.13 1192.45 Q1928.84 1193.42 1926.43 1193.93 Q1924.03 1194.44 1921.55 1194.44 Q1915.35 1194.44 1911.71 1190.83 Q1908.1 1187.22 1908.1 1181.06 Q1908.1 1174.69 1911.53 1170.97 Q1914.98 1167.22 1920.81 1167.22 Q1926.04 1167.22 1929.07 1170.6 Q1932.13 1173.95 1932.13 1179.74 M1927.87 1178.49 Q1927.82 1174.99 1925.9 1172.91 Q1924 1170.83 1920.86 1170.83 Q1917.29 1170.83 1915.14 1172.84 Q1913.01 1174.86 1912.68 1178.51 L1927.87 1178.49 Z" fill="#000000" fill-rule="nonzero" fill-opacity="1" /><path clip-path="url(#clip410)" d="M1956.18 1180.5 Q1956.18 1175.87 1954.26 1173.33 Q1952.36 1170.78 1948.91 1170.78 Q1945.49 1170.78 1943.56 1173.33 Q1941.67 1175.87 1941.67 1180.5 Q1941.67 1185.11 1943.56 1187.66 Q1945.49 1190.2 1948.91 1190.2 Q1952.36 1190.2 1954.26 1187.66 Q1956.18 1185.11 1956.18 1180.5 M1960.44 1190.55 Q1960.44 1197.17 1957.5 1200.39 Q1954.56 1203.63 1948.49 1203.63 Q1946.25 1203.63 1944.26 1203.28 Q1942.27 1202.96 1940.39 1202.26 L1940.39 1198.12 Q1942.27 1199.14 1944.1 1199.62 Q1945.93 1200.11 1947.82 1200.11 Q1952.01 1200.11 1954.1 1197.91 Q1956.18 1195.74 1956.18 1191.31 L1956.18 1189.21 Q1954.86 1191.5 1952.8 1192.63 Q1950.74 1193.77 1947.87 1193.77 Q1943.1 1193.77 1940.18 1190.13 Q1937.27 1186.5 1937.27 1180.5 Q1937.27 1174.49 1940.18 1170.85 Q1943.1 1167.22 1947.87 1167.22 Q1950.74 1167.22 1952.8 1168.35 Q1954.86 1169.49 1956.18 1171.78 L1956.18 1167.84 L1960.44 1167.84 L1960.44 1190.55 Z" fill="#000000" fill-rule="nonzero" fill-opacity="1" /><path clip-path="url(#clip410)" d="M1984.24 1171.82 Q1983.52 1171.41 1982.66 1171.22 Q1981.83 1171.01 1980.81 1171.01 Q1977.2 1171.01 1975.25 1173.37 Q1973.33 1175.71 1973.33 1180.11 L1973.33 1193.77 L1969.05 1193.77 L1969.05 1167.84 L1973.33 1167.84 L1973.33 1171.87 Q1974.68 1169.51 1976.83 1168.37 Q1978.98 1167.22 1982.06 1167.22 Q1982.5 1167.22 1983.03 1167.29 Q1983.56 1167.33 1984.21 1167.45 L1984.24 1171.82 Z" fill="#000000" fill-rule="nonzero" fill-opacity="1" /><path clip-path="url(#clip410)" d="M2009.84 1179.74 L2009.84 1181.82 L1990.25 1181.82 Q1990.53 1186.22 1992.89 1188.54 Q1995.28 1190.83 1999.51 1190.83 Q2001.97 1190.83 2004.26 1190.23 Q2006.57 1189.62 2008.84 1188.42 L2008.84 1192.45 Q2006.55 1193.42 2004.14 1193.93 Q2001.74 1194.44 1999.26 1194.44 Q1993.05 1194.44 1989.42 1190.83 Q1985.81 1187.22 1985.81 1181.06 Q1985.81 1174.69 1989.24 1170.97 Q1992.68 1167.22 1998.52 1167.22 Q2003.75 1167.22 2006.78 1170.6 Q2009.84 1173.95 2009.84 1179.74 M2005.58 1178.49 Q2005.53 1174.99 2003.61 1172.91 Q2001.71 1170.83 1998.56 1170.83 Q1995 1170.83 1992.85 1172.84 Q1990.72 1174.86 1990.39 1178.51 L2005.58 1178.49 Z" fill="#000000" fill-rule="nonzero" fill-opacity="1" /><path clip-path="url(#clip410)" d="M2033.36 1168.61 L2033.36 1172.63 Q2031.55 1171.71 2029.61 1171.24 Q2027.66 1170.78 2025.58 1170.78 Q2022.41 1170.78 2020.81 1171.75 Q2019.24 1172.73 2019.24 1174.67 Q2019.24 1176.15 2020.37 1177.01 Q2021.5 1177.84 2024.93 1178.61 L2026.39 1178.93 Q2030.92 1179.9 2032.82 1181.68 Q2034.74 1183.44 2034.74 1186.62 Q2034.74 1190.23 2031.87 1192.33 Q2029.03 1194.44 2024.03 1194.44 Q2021.94 1194.44 2019.68 1194.02 Q2017.43 1193.63 2014.93 1192.82 L2014.93 1188.42 Q2017.29 1189.65 2019.58 1190.27 Q2021.87 1190.87 2024.12 1190.87 Q2027.13 1190.87 2028.75 1189.86 Q2030.37 1188.81 2030.37 1186.94 Q2030.37 1185.2 2029.19 1184.28 Q2028.03 1183.35 2024.07 1182.49 L2022.59 1182.15 Q2018.63 1181.31 2016.87 1179.6 Q2015.11 1177.87 2015.11 1174.86 Q2015.11 1171.2 2017.71 1169.21 Q2020.3 1167.22 2025.07 1167.22 Q2027.43 1167.22 2029.51 1167.56 Q2031.6 1167.91 2033.36 1168.61 Z" fill="#000000" fill-rule="nonzero" fill-opacity="1" /><path clip-path="url(#clip410)" d="M2058.05 1168.61 L2058.05 1172.63 Q2056.25 1171.71 2054.3 1171.24 Q2052.36 1170.78 2050.28 1170.78 Q2047.11 1170.78 2045.51 1171.75 Q2043.93 1172.73 2043.93 1174.67 Q2043.93 1176.15 2045.07 1177.01 Q2046.2 1177.84 2049.63 1178.61 L2051.09 1178.93 Q2055.62 1179.9 2057.52 1181.68 Q2059.44 1183.44 2059.44 1186.62 Q2059.44 1190.23 2056.57 1192.33 Q2053.73 1194.44 2048.73 1194.44 Q2046.64 1194.44 2044.37 1194.02 Q2042.13 1193.63 2039.63 1192.82 L2039.63 1188.42 Q2041.99 1189.65 2044.28 1190.27 Q2046.57 1190.87 2048.82 1190.87 Q2051.83 1190.87 2053.45 1189.86 Q2055.07 1188.81 2055.07 1186.94 Q2055.07 1185.2 2053.89 1184.28 Q2052.73 1183.35 2048.77 1182.49 L2047.29 1182.15 Q2043.33 1181.31 2041.57 1179.6 Q2039.81 1177.87 2039.81 1174.86 Q2039.81 1171.2 2042.41 1169.21 Q2045 1167.22 2049.77 1167.22 Q2052.13 1167.22 2054.21 1167.56 Q2056.3 1167.91 2058.05 1168.61 Z" fill="#000000" fill-rule="nonzero" fill-opacity="1" /><path clip-path="url(#clip410)" d="M2066.23 1167.84 L2070.48 1167.84 L2070.48 1193.77 L2066.23 1193.77 L2066.23 1167.84 M2066.23 1157.75 L2070.48 1157.75 L2070.48 1163.14 L2066.23 1163.14 L2066.23 1157.75 Z" fill="#000000" fill-rule="nonzero" fill-opacity="1" /><path clip-path="url(#clip410)" d="M2089.44 1170.83 Q2086.02 1170.83 2084.03 1173.51 Q2082.04 1176.18 2082.04 1180.83 Q2082.04 1185.48 2084 1188.17 Q2085.99 1190.83 2089.44 1190.83 Q2092.85 1190.83 2094.84 1188.14 Q2096.83 1185.46 2096.83 1180.83 Q2096.83 1176.22 2094.84 1173.54 Q2092.85 1170.83 2089.44 1170.83 M2089.44 1167.22 Q2095 1167.22 2098.17 1170.83 Q2101.34 1174.44 2101.34 1180.83 Q2101.34 1187.19 2098.17 1190.83 Q2095 1194.44 2089.44 1194.44 Q2083.86 1194.44 2080.69 1190.83 Q2077.55 1187.19 2077.55 1180.83 Q2077.55 1174.44 2080.69 1170.83 Q2083.86 1167.22 2089.44 1167.22 Z" fill="#000000" fill-rule="nonzero" fill-opacity="1" /><path clip-path="url(#clip410)" d="M2129.95 1178.12 L2129.95 1193.77 L2125.69 1193.77 L2125.69 1178.26 Q2125.69 1174.58 2124.26 1172.75 Q2122.82 1170.92 2119.95 1170.92 Q2116.5 1170.92 2114.51 1173.12 Q2112.52 1175.32 2112.52 1179.12 L2112.52 1193.77 L2108.24 1193.77 L2108.24 1167.84 L2112.52 1167.84 L2112.52 1171.87 Q2114.05 1169.53 2116.11 1168.37 Q2118.19 1167.22 2120.9 1167.22 Q2125.37 1167.22 2127.66 1169.99 Q2129.95 1172.75 2129.95 1178.12 Z" fill="#000000" fill-rule="nonzero" fill-opacity="1" /></svg>
