<?xml version="1.0" encoding="utf-8"?>
<svg xmlns="http://www.w3.org/2000/svg" xmlns:xlink="http://www.w3.org/1999/xlink" width="600" height="400" viewBox="0 0 2400 1600">
<defs>
  <clipPath id="clip640">
    <rect x="0" y="0" width="2400" height="1600"/>
  </clipPath>
</defs>
<path clip-path="url(#clip640)" d="M0 1600 L2400 1600 L2400 0 L0 0  Z" fill="#ffffff" fill-rule="evenodd" fill-opacity="1"/>
<defs>
  <clipPath id="clip641">
    <rect x="480" y="0" width="1681" height="1600"/>
  </clipPath>
</defs>
<path clip-path="url(#clip640)" d="M265.179 1552.76 L2352.76 1552.76 L2352.76 47.2441 L265.179 47.2441  Z" fill="#ffffff" fill-rule="evenodd" fill-opacity="1"/>
<defs>
  <clipPath id="clip642">
    <rect x="265" y="47" width="2089" height="1507"/>
  </clipPath>
</defs>
<polyline clip-path="url(#clip640)" style="stroke:#000000; stroke-linecap:round; stroke-linejoin:round; stroke-width:4; stroke-opacity:1; fill:none" points="265.179,1552.76 2352.76,1552.76 "/>
<polyline clip-path="url(#clip642)" style="stroke:#000000; stroke-linecap:round; stroke-linejoin:round; stroke-width:2; stroke-opacity:0.1; fill:none" points="265.179,1552.76 2352.76,1552.76 "/>
<polyline clip-path="url(#clip642)" style="stroke:#000000; stroke-linecap:round; stroke-linejoin:round; stroke-width:2; stroke-opacity:0.1; fill:none" points="265.179,1251.65 2352.76,1251.65 "/>
<polyline clip-path="url(#clip642)" style="stroke:#000000; stroke-linecap:round; stroke-linejoin:round; stroke-width:2; stroke-opacity:0.1; fill:none" points="265.179,950.551 2352.76,950.551 "/>
<polyline clip-path="url(#clip642)" style="stroke:#000000; stroke-linecap:round; stroke-linejoin:round; stroke-width:2; stroke-opacity:0.1; fill:none" points="265.179,649.449 2352.76,649.449 "/>
<polyline clip-path="url(#clip642)" style="stroke:#000000; stroke-linecap:round; stroke-linejoin:round; stroke-width:2; stroke-opacity:0.1; fill:none" points="265.179,348.346 2352.76,348.346 "/>
<polyline clip-path="url(#clip642)" style="stroke:#000000; stroke-linecap:round; stroke-linejoin:round; stroke-width:2; stroke-opacity:0.1; fill:none" points="265.179,47.2441 2352.76,47.2441 "/>
<polyline clip-path="url(#clip640)" style="stroke:#000000; stroke-linecap:round; stroke-linejoin:round; stroke-width:4; stroke-opacity:1; fill:none" points="265.179,1552.76 265.179,47.2441 "/>
<polyline clip-path="url(#clip640)" style="stroke:#000000; stroke-linecap:round; stroke-linejoin:round; stroke-width:4; stroke-opacity:1; fill:none" points="265.179,1552.76 284.076,1552.76 "/>
<polyline clip-path="url(#clip640)" style="stroke:#000000; stroke-linecap:round; stroke-linejoin:round; stroke-width:4; stroke-opacity:1; fill:none" points="265.179,1251.65 284.076,1251.65 "/>
<polyline clip-path="url(#clip640)" style="stroke:#000000; stroke-linecap:round; stroke-linejoin:round; stroke-width:4; stroke-opacity:1; fill:none" points="265.179,950.551 284.076,950.551 "/>
<polyline clip-path="url(#clip640)" style="stroke:#000000; stroke-linecap:round; stroke-linejoin:round; stroke-width:4; stroke-opacity:1; fill:none" points="265.179,649.449 284.076,649.449 "/>
<polyline clip-path="url(#clip640)" style="stroke:#000000; stroke-linecap:round; stroke-linejoin:round; stroke-width:4; stroke-opacity:1; fill:none" points="265.179,348.346 284.076,348.346 "/>
<polyline clip-path="url(#clip640)" style="stroke:#000000; stroke-linecap:round; stroke-linejoin:round; stroke-width:4; stroke-opacity:1; fill:none" points="265.179,47.2441 284.076,47.2441 "/>
<path clip-path="url(#clip640)" d="M214.248 1535 Q209.734 1535 207.448 1539.46 Q205.191 1543.89 205.191 1552.8 Q205.191 1561.68 207.448 1566.14 Q209.734 1570.57 214.248 1570.57 Q218.791 1570.57 221.048 1566.14 Q223.334 1561.68 223.334 1552.8 Q223.334 1543.89 221.048 1539.46 Q218.791 1535 214.248 1535 M214.248 1530.37 Q221.511 1530.37 225.33 1536.13 Q229.179 1541.86 229.179 1552.8 Q229.179 1563.71 225.33 1569.47 Q221.511 1575.2 214.248 1575.2 Q206.985 1575.2 203.137 1569.47 Q199.318 1563.71 199.318 1552.8 Q199.318 1541.86 203.137 1536.13 Q206.985 1530.37 214.248 1530.37 Z" fill="#000000" fill-rule="nonzero" fill-opacity="1" /><path clip-path="url(#clip640)" d="M127.356 1268.33 L136.905 1268.33 L136.905 1235.38 L126.517 1237.46 L126.517 1232.14 L136.847 1230.05 L142.692 1230.05 L142.692 1268.33 L152.24 1268.33 L152.24 1273.25 L127.356 1273.25 L127.356 1268.33 Z" fill="#000000" fill-rule="nonzero" fill-opacity="1" /><path clip-path="url(#clip640)" d="M176.546 1233.9 Q172.032 1233.9 169.746 1238.36 Q167.489 1242.78 167.489 1251.7 Q167.489 1260.58 169.746 1265.04 Q172.032 1269.46 176.546 1269.46 Q181.089 1269.46 183.345 1265.04 Q185.631 1260.58 185.631 1251.7 Q185.631 1242.78 183.345 1238.36 Q181.089 1233.9 176.546 1233.9 M176.546 1229.27 Q183.808 1229.27 187.628 1235.03 Q191.476 1240.76 191.476 1251.7 Q191.476 1262.61 187.628 1268.36 Q183.808 1274.09 176.546 1274.09 Q169.283 1274.09 165.435 1268.36 Q161.615 1262.61 161.615 1251.7 Q161.615 1240.76 165.435 1235.03 Q169.283 1229.27 176.546 1229.27 Z" fill="#000000" fill-rule="nonzero" fill-opacity="1" /><path clip-path="url(#clip640)" d="M214.248 1233.9 Q209.734 1233.9 207.448 1238.36 Q205.191 1242.78 205.191 1251.7 Q205.191 1260.58 207.448 1265.04 Q209.734 1269.46 214.248 1269.46 Q218.791 1269.46 221.048 1265.04 Q223.334 1260.58 223.334 1251.7 Q223.334 1242.78 221.048 1238.36 Q218.791 1233.9 214.248 1233.9 M214.248 1229.27 Q221.511 1229.27 225.33 1235.03 Q229.179 1240.76 229.179 1251.7 Q229.179 1262.61 225.33 1268.36 Q221.511 1274.09 214.248 1274.09 Q206.985 1274.09 203.137 1268.36 Q199.318 1262.61 199.318 1251.7 Q199.318 1240.76 203.137 1235.03 Q206.985 1229.27 214.248 1229.27 Z" fill="#000000" fill-rule="nonzero" fill-opacity="1" /><path clip-path="url(#clip640)" d="M131.378 967.232 L151.777 967.232 L151.777 972.151 L124.347 972.151 L124.347 967.232 Q127.674 963.789 133.404 958.002 Q139.162 952.186 140.637 950.508 Q143.444 947.354 144.544 945.184 Q145.672 942.985 145.672 940.872 Q145.672 937.429 143.241 935.259 Q140.84 933.089 136.963 933.089 Q134.214 933.089 131.147 934.044 Q128.108 934.999 124.636 936.937 L124.636 931.035 Q128.166 929.617 131.233 928.893 Q134.301 928.17 136.847 928.17 Q143.56 928.17 147.553 931.526 Q151.546 934.883 151.546 940.496 Q151.546 943.158 150.533 945.56 Q149.549 947.933 146.916 951.173 Q146.193 952.012 142.316 956.034 Q138.438 960.027 131.378 967.232 Z" fill="#000000" fill-rule="nonzero" fill-opacity="1" /><path clip-path="url(#clip640)" d="M176.546 932.8 Q172.032 932.8 169.746 937.256 Q167.489 941.683 167.489 950.595 Q167.489 959.478 169.746 963.934 Q172.032 968.361 176.546 968.361 Q181.089 968.361 183.345 963.934 Q185.631 959.478 185.631 950.595 Q185.631 941.683 183.345 937.256 Q181.089 932.8 176.546 932.8 M176.546 928.17 Q183.808 928.17 187.628 933.928 Q191.476 939.657 191.476 950.595 Q191.476 961.503 187.628 967.261 Q183.808 972.99 176.546 972.99 Q169.283 972.99 165.435 967.261 Q161.615 961.503 161.615 950.595 Q161.615 939.657 165.435 933.928 Q169.283 928.17 176.546 928.17 Z" fill="#000000" fill-rule="nonzero" fill-opacity="1" /><path clip-path="url(#clip640)" d="M214.248 932.8 Q209.734 932.8 207.448 937.256 Q205.191 941.683 205.191 950.595 Q205.191 959.478 207.448 963.934 Q209.734 968.361 214.248 968.361 Q218.791 968.361 221.048 963.934 Q223.334 959.478 223.334 950.595 Q223.334 941.683 221.048 937.256 Q218.791 932.8 214.248 932.8 M214.248 928.17 Q221.511 928.17 225.33 933.928 Q229.179 939.657 229.179 950.595 Q229.179 961.503 225.33 967.261 Q221.511 972.99 214.248 972.99 Q206.985 972.99 203.137 967.261 Q199.318 961.503 199.318 950.595 Q199.318 939.657 203.137 933.928 Q206.985 928.17 214.248 928.17 Z" fill="#000000" fill-rule="nonzero" fill-opacity="1" /><path clip-path="url(#clip640)" d="M144.052 647.756 Q148.247 648.653 150.591 651.489 Q152.964 654.324 152.964 658.491 Q152.964 664.886 148.566 668.387 Q144.167 671.888 136.066 671.888 Q133.346 671.888 130.452 671.338 Q127.588 670.817 124.521 669.747 L124.521 664.104 Q126.951 665.522 129.845 666.246 Q132.738 666.969 135.892 666.969 Q141.39 666.969 144.254 664.799 Q147.148 662.629 147.148 658.491 Q147.148 654.672 144.457 652.53 Q141.795 650.36 137.02 650.36 L131.986 650.36 L131.986 645.557 L137.252 645.557 Q141.563 645.557 143.849 643.85 Q146.135 642.114 146.135 638.873 Q146.135 635.546 143.762 633.781 Q141.419 631.987 137.02 631.987 Q134.619 631.987 131.87 632.507 Q129.121 633.028 125.823 634.128 L125.823 628.919 Q129.15 627.993 132.044 627.531 Q134.966 627.068 137.541 627.068 Q144.196 627.068 148.074 630.106 Q151.951 633.115 151.951 638.265 Q151.951 641.853 149.897 644.342 Q147.842 646.801 144.052 647.756 Z" fill="#000000" fill-rule="nonzero" fill-opacity="1" /><path clip-path="url(#clip640)" d="M176.546 631.697 Q172.032 631.697 169.746 636.153 Q167.489 640.58 167.489 649.492 Q167.489 658.375 169.746 662.831 Q172.032 667.258 176.546 667.258 Q181.089 667.258 183.345 662.831 Q185.631 658.375 185.631 649.492 Q185.631 640.58 183.345 636.153 Q181.089 631.697 176.546 631.697 M176.546 627.068 Q183.808 627.068 187.628 632.826 Q191.476 638.555 191.476 649.492 Q191.476 660.401 187.628 666.159 Q183.808 671.888 176.546 671.888 Q169.283 671.888 165.435 666.159 Q161.615 660.401 161.615 649.492 Q161.615 638.555 165.435 632.826 Q169.283 627.068 176.546 627.068 Z" fill="#000000" fill-rule="nonzero" fill-opacity="1" /><path clip-path="url(#clip640)" d="M214.248 631.697 Q209.734 631.697 207.448 636.153 Q205.191 640.58 205.191 649.492 Q205.191 658.375 207.448 662.831 Q209.734 667.258 214.248 667.258 Q218.791 667.258 221.048 662.831 Q223.334 658.375 223.334 649.492 Q223.334 640.58 221.048 636.153 Q218.791 631.697 214.248 631.697 M214.248 627.068 Q221.511 627.068 225.33 632.826 Q229.179 638.555 229.179 649.492 Q229.179 660.401 225.33 666.159 Q221.511 671.888 214.248 671.888 Q206.985 671.888 203.137 666.159 Q199.318 660.401 199.318 649.492 Q199.318 638.555 203.137 632.826 Q206.985 627.068 214.248 627.068 Z" fill="#000000" fill-rule="nonzero" fill-opacity="1" /><path clip-path="url(#clip640)" d="M142.402 331.839 L127.646 354.9 L142.402 354.9 L142.402 331.839 M140.869 326.746 L148.218 326.746 L148.218 354.9 L154.381 354.9 L154.381 359.761 L148.218 359.761 L148.218 369.946 L142.402 369.946 L142.402 359.761 L122.9 359.761 L122.9 354.119 L140.869 326.746 Z" fill="#000000" fill-rule="nonzero" fill-opacity="1" /><path clip-path="url(#clip640)" d="M176.546 330.595 Q172.032 330.595 169.746 335.051 Q167.489 339.478 167.489 348.39 Q167.489 357.273 169.746 361.729 Q172.032 366.156 176.546 366.156 Q181.089 366.156 183.345 361.729 Q185.631 357.273 185.631 348.39 Q185.631 339.478 183.345 335.051 Q181.089 330.595 176.546 330.595 M176.546 325.965 Q183.808 325.965 187.628 331.723 Q191.476 337.452 191.476 348.39 Q191.476 359.298 187.628 365.056 Q183.808 370.786 176.546 370.786 Q169.283 370.786 165.435 365.056 Q161.615 359.298 161.615 348.39 Q161.615 337.452 165.435 331.723 Q169.283 325.965 176.546 325.965 Z" fill="#000000" fill-rule="nonzero" fill-opacity="1" /><path clip-path="url(#clip640)" d="M214.248 330.595 Q209.734 330.595 207.448 335.051 Q205.191 339.478 205.191 348.39 Q205.191 357.273 207.448 361.729 Q209.734 366.156 214.248 366.156 Q218.791 366.156 221.048 361.729 Q223.334 357.273 223.334 348.39 Q223.334 339.478 221.048 335.051 Q218.791 330.595 214.248 330.595 M214.248 325.965 Q221.511 325.965 225.33 331.723 Q229.179 337.452 229.179 348.39 Q229.179 359.298 225.33 365.056 Q221.511 370.786 214.248 370.786 Q206.985 370.786 203.137 365.056 Q199.318 359.298 199.318 348.39 Q199.318 337.452 203.137 331.723 Q206.985 325.965 214.248 325.965 Z" fill="#000000" fill-rule="nonzero" fill-opacity="1" /><path clip-path="url(#clip640)" d="M126.401 25.6441 L149.347 25.6441 L149.347 30.563 L131.754 30.563 L131.754 41.1533 Q133.027 40.7192 134.301 40.5167 Q135.574 40.2852 136.847 40.2852 Q144.081 40.2852 148.305 44.2493 Q152.53 48.2134 152.53 54.9842 Q152.53 61.9576 148.189 65.8349 Q143.849 69.6832 135.95 69.6832 Q133.23 69.6832 130.394 69.2202 Q127.588 68.7573 124.578 67.8314 L124.578 61.9576 Q127.183 63.3754 129.96 64.0698 Q132.738 64.7643 135.834 64.7643 Q140.84 64.7643 143.762 62.1312 Q146.685 59.4981 146.685 54.9842 Q146.685 50.4704 143.762 47.8373 Q140.84 45.2042 135.834 45.2042 Q133.49 45.2042 131.147 45.725 Q128.832 46.2458 126.401 47.3454 L126.401 25.6441 Z" fill="#000000" fill-rule="nonzero" fill-opacity="1" /><path clip-path="url(#clip640)" d="M176.546 29.4925 Q172.032 29.4925 169.746 33.9484 Q167.489 38.3755 167.489 47.2875 Q167.489 56.1706 169.746 60.6265 Q172.032 65.0536 176.546 65.0536 Q181.089 65.0536 183.345 60.6265 Q185.631 56.1706 185.631 47.2875 Q185.631 38.3755 183.345 33.9484 Q181.089 29.4925 176.546 29.4925 M176.546 24.8628 Q183.808 24.8628 187.628 30.6209 Q191.476 36.3501 191.476 47.2875 Q191.476 58.196 187.628 63.9541 Q183.808 69.6832 176.546 69.6832 Q169.283 69.6832 165.435 63.9541 Q161.615 58.196 161.615 47.2875 Q161.615 36.3501 165.435 30.6209 Q169.283 24.8628 176.546 24.8628 Z" fill="#000000" fill-rule="nonzero" fill-opacity="1" /><path clip-path="url(#clip640)" d="M214.248 29.4925 Q209.734 29.4925 207.448 33.9484 Q205.191 38.3755 205.191 47.2875 Q205.191 56.1706 207.448 60.6265 Q209.734 65.0536 214.248 65.0536 Q218.791 65.0536 221.048 60.6265 Q223.334 56.1706 223.334 47.2875 Q223.334 38.3755 221.048 33.9484 Q218.791 29.4925 214.248 29.4925 M214.248 24.8628 Q221.511 24.8628 225.33 30.6209 Q229.179 36.3501 229.179 47.2875 Q229.179 58.196 225.33 63.9541 Q221.511 69.6832 214.248 69.6832 Q206.985 69.6832 203.137 63.9541 Q199.318 58.196 199.318 47.2875 Q199.318 36.3501 203.137 30.6209 Q206.985 24.8628 214.248 24.8628 Z" fill="#000000" fill-rule="nonzero" fill-opacity="1" /><path clip-path="url(#clip640)" d="M15.7353 990.617 L23.1456 990.617 Q21.0767 994.943 20.0611 998.779 Q19.0455 1002.62 19.0455 1006.19 Q19.0455 1012.4 21.4529 1015.78 Q23.8603 1019.13 28.2989 1019.13 Q32.0228 1019.13 33.9412 1016.91 Q35.822 1014.65 36.9881 1008.41 L37.9285 1003.82 Q39.546 995.319 43.646 991.294 Q47.7085 987.231 54.5546 987.231 Q62.7171 987.231 66.9301 992.723 Q71.143 998.177 71.143 1008.75 Q71.143 1012.73 70.2402 1017.25 Q69.3375 1021.72 67.5695 1026.54 L59.7455 1026.54 Q62.341 1021.91 63.6575 1017.47 Q64.9741 1013.04 64.9741 1008.75 Q64.9741 1002.24 62.4162 998.704 Q59.8583 995.168 55.1188 995.168 Q50.9811 995.168 48.6489 997.726 Q46.3168 1000.25 45.1507 1006.04 L44.2479 1010.67 Q42.5552 1019.17 38.9441 1022.97 Q35.333 1026.77 28.9008 1026.77 Q21.4529 1026.77 17.1647 1021.54 Q12.8765 1016.27 12.8765 1007.05 Q12.8765 1003.11 13.5912 999.005 Q14.3059 994.905 15.7353 990.617 Z" fill="#000000" fill-rule="nonzero" fill-opacity="1" /><path clip-path="url(#clip640)" d="M48.8746 956.537 Q48.8746 964.925 50.793 968.16 Q52.7114 971.395 57.3381 971.395 Q61.0244 971.395 63.2061 968.988 Q65.3502 966.543 65.3502 962.367 Q65.3502 956.612 61.2877 953.152 Q57.1876 949.653 50.4168 949.653 L48.8746 949.653 L48.8746 956.537 M46.0158 942.732 L70.0522 942.732 L70.0522 949.653 L63.6575 949.653 Q67.4943 952.023 69.3375 955.559 Q71.143 959.095 71.143 964.211 Q71.143 970.681 67.5319 974.517 Q63.8832 978.316 57.7895 978.316 Q50.6802 978.316 47.0691 973.577 Q43.458 968.8 43.458 959.358 L43.458 949.653 L42.7809 949.653 Q38.0037 949.653 35.4082 952.813 Q32.7752 955.935 32.7752 961.615 Q32.7752 965.226 33.6403 968.649 Q34.5055 972.072 36.2358 975.232 L29.8411 975.232 Q28.3741 971.433 27.6594 967.859 Q26.9071 964.286 26.9071 960.9 Q26.9071 951.76 31.6467 947.246 Q36.3862 942.732 46.0158 942.732 Z" fill="#000000" fill-rule="nonzero" fill-opacity="1" /><path clip-path="url(#clip640)" d="M36.0101 895.675 Q31.3458 893.08 29.1265 889.469 Q26.9071 885.857 26.9071 880.967 Q26.9071 874.385 31.5338 870.811 Q36.1229 867.238 44.6241 867.238 L70.0522 867.238 L70.0522 874.197 L44.8497 874.197 Q38.7936 874.197 35.8596 876.341 Q32.9256 878.485 32.9256 882.886 Q32.9256 888.265 36.4991 891.387 Q40.0726 894.509 46.2415 894.509 L70.0522 894.509 L70.0522 901.468 L44.8497 901.468 Q38.756 901.468 35.8596 903.612 Q32.9256 905.756 32.9256 910.232 Q32.9256 915.536 36.5367 918.658 Q40.1102 921.78 46.2415 921.78 L70.0522 921.78 L70.0522 928.739 L27.9228 928.739 L27.9228 921.78 L34.4679 921.78 Q30.5935 919.411 28.7503 916.1 Q26.9071 912.79 26.9071 908.239 Q26.9071 903.65 29.2393 900.452 Q31.5715 897.217 36.0101 895.675 Z" fill="#000000" fill-rule="nonzero" fill-opacity="1" /><path clip-path="url(#clip640)" d="M63.7327 846.737 L86.0764 846.737 L86.0764 853.696 L27.9228 853.696 L27.9228 846.737 L34.3174 846.737 Q30.5558 844.556 28.7503 841.245 Q26.9071 837.898 26.9071 833.271 Q26.9071 825.597 33.0009 820.82 Q39.0946 816.005 49.0251 816.005 Q58.9556 816.005 65.0493 820.82 Q71.143 825.597 71.143 833.271 Q71.143 837.898 69.3375 841.245 Q67.4943 844.556 63.7327 846.737 M49.0251 823.19 Q41.3891 823.19 37.0633 826.35 Q32.6999 829.472 32.6999 834.964 Q32.6999 840.456 37.0633 843.615 Q41.3891 846.737 49.0251 846.737 Q56.661 846.737 61.0244 843.615 Q65.3502 840.456 65.3502 834.964 Q65.3502 829.472 61.0244 826.35 Q56.661 823.19 49.0251 823.19 Z" fill="#000000" fill-rule="nonzero" fill-opacity="1" /><path clip-path="url(#clip640)" d="M11.5224 804.533 L11.5224 797.611 L70.0522 797.611 L70.0522 804.533 L11.5224 804.533 Z" fill="#000000" fill-rule="nonzero" fill-opacity="1" /><path clip-path="url(#clip640)" d="M47.2571 747.094 L50.6425 747.094 L50.6425 778.916 Q57.7895 778.465 61.551 774.628 Q65.275 770.754 65.275 763.87 Q65.275 759.883 64.297 756.159 Q63.319 752.398 61.363 748.711 L67.9081 748.711 Q69.4879 752.435 70.3155 756.347 Q71.143 760.259 71.143 764.284 Q71.143 774.365 65.275 780.271 Q59.407 786.139 49.4012 786.139 Q39.057 786.139 33.0009 780.572 Q26.9071 774.967 26.9071 765.488 Q26.9071 756.987 32.399 752.059 Q37.8533 747.094 47.2571 747.094 M45.2259 754.015 Q39.546 754.09 36.1606 757.212 Q32.7752 760.297 32.7752 765.413 Q32.7752 771.205 36.0477 774.704 Q39.3203 778.164 45.2635 778.691 L45.2259 754.015 Z" fill="#000000" fill-rule="nonzero" fill-opacity="1" /><path clip-path="url(#clip640)" d="M29.1641 684.389 L35.7092 684.389 Q34.2045 687.323 33.4522 690.482 Q32.6999 693.642 32.6999 697.027 Q32.6999 702.181 34.2798 704.776 Q35.8596 707.334 39.0193 707.334 Q41.4267 707.334 42.8185 705.491 Q44.1727 703.648 45.414 698.081 L45.9406 695.711 Q47.5204 688.338 50.4168 685.254 Q53.2756 682.132 58.429 682.132 Q64.297 682.132 67.72 686.796 Q71.143 691.423 71.143 699.548 Q71.143 702.933 70.4659 706.619 Q69.8265 710.268 68.5099 714.331 L61.363 714.331 Q63.3566 710.494 64.3722 706.77 Q65.3502 703.046 65.3502 699.397 Q65.3502 694.507 63.6951 691.874 Q62.0024 689.241 58.9556 689.241 Q56.1344 689.241 54.6298 691.159 Q53.1252 693.04 51.7334 699.472 L51.1692 701.88 Q49.815 708.312 47.0314 711.171 Q44.2103 714.03 39.3203 714.03 Q33.377 714.03 30.1421 709.817 Q26.9071 705.604 26.9071 697.855 Q26.9071 694.018 27.4714 690.633 Q28.0356 687.247 29.1641 684.389 Z" fill="#000000" fill-rule="nonzero" fill-opacity="1" /><path clip-path="url(#clip640)" d="M27.9228 671.11 L27.9228 664.189 L70.0522 664.189 L70.0522 671.11 L27.9228 671.11 M11.5224 671.11 L11.5224 664.189 L20.2868 664.189 L20.2868 671.11 L11.5224 671.11 Z" fill="#000000" fill-rule="nonzero" fill-opacity="1" /><path clip-path="url(#clip640)" d="M27.9228 652.716 L27.9228 619.84 L34.2422 619.84 L64.5227 645.87 L64.5227 619.84 L70.0522 619.84 L70.0522 653.657 L63.7327 653.657 L33.4522 627.627 L33.4522 652.716 L27.9228 652.716 Z" fill="#000000" fill-rule="nonzero" fill-opacity="1" /><path clip-path="url(#clip640)" d="M47.2571 573.235 L50.6425 573.235 L50.6425 605.057 Q57.7895 604.606 61.551 600.769 Q65.275 596.895 65.275 590.011 Q65.275 586.024 64.297 582.3 Q63.319 578.539 61.363 574.852 L67.9081 574.852 Q69.4879 578.576 70.3155 582.488 Q71.143 586.4 71.143 590.425 Q71.143 600.506 65.275 606.412 Q59.407 612.28 49.4012 612.28 Q39.057 612.28 33.0009 606.713 Q26.9071 601.108 26.9071 591.629 Q26.9071 583.128 32.399 578.2 Q37.8533 573.235 47.2571 573.235 M45.2259 580.156 Q39.546 580.231 36.1606 583.353 Q32.7752 586.438 32.7752 591.553 Q32.7752 597.346 36.0477 600.845 Q39.3203 604.305 45.2635 604.832 L45.2259 580.156 Z" fill="#000000" fill-rule="nonzero" fill-opacity="1" /><path clip-path="url(#clip642)" d="M1308.97 1456.4 L816.614 1456.4 L1801.32 1456.4 L1308.97 1456.4 L1308.97 1253.91 L1308.97 1456.4  Z" fill="#1f77b4" fill-rule="evenodd" fill-opacity="1"/>
<polyline clip-path="url(#clip642)" style="stroke:#000000; stroke-linecap:round; stroke-linejoin:round; stroke-width:4; stroke-opacity:1; fill:none" points="1308.97,1456.4 816.614,1456.4 1801.32,1456.4 1308.97,1456.4 1308.97,1253.91 1308.97,1456.4 "/>
<path clip-path="url(#clip642)" d="M2293.67 1253.91 L2293.67 938.507 L324.261 938.507 L324.261 1253.91 L2293.67 1253.91 L2293.67 938.507 L2293.67 1253.91  Z" fill="#1f77b4" fill-rule="evenodd" fill-opacity="1"/>
<polyline clip-path="url(#clip642)" style="stroke:#000000; stroke-linecap:round; stroke-linejoin:round; stroke-width:4; stroke-opacity:1; fill:none" points="2293.67,1253.91 2293.67,938.507 324.261,938.507 324.261,1253.91 2293.67,1253.91 2293.67,938.507 2293.67,1253.91 "/>
<path clip-path="url(#clip642)" d="M2293.67 638.157 L324.261 638.157 L324.261 938.507 L2293.67 938.507 L2293.67 638.157 L1308.97 638.157 L2293.67 638.157  Z" fill="#1f77b4" fill-rule="evenodd" fill-opacity="1"/>
<polyline clip-path="url(#clip642)" style="stroke:#000000; stroke-linecap:round; stroke-linejoin:round; stroke-width:4; stroke-opacity:1; fill:none" points="2293.67,638.157 324.261,638.157 324.261,938.507 2293.67,938.507 2293.67,638.157 1308.97,638.157 2293.67,638.157 "/>
<path clip-path="url(#clip642)" d="M1308.97 47.2441 L816.614 47.2441 L1801.32 47.2441 L1308.97 47.2441 L1308.97 638.157 L1308.97 47.2441  Z" fill="#1f77b4" fill-rule="evenodd" fill-opacity="1"/>
<polyline clip-path="url(#clip642)" style="stroke:#000000; stroke-linecap:round; stroke-linejoin:round; stroke-width:4; stroke-opacity:1; fill:none" points="1308.97,47.2441 816.614,47.2441 1801.32,47.2441 1308.97,47.2441 1308.97,638.157 1308.97,47.2441 "/>
<polyline clip-path="url(#clip642)" style="stroke:#1f77b4; stroke-linecap:round; stroke-linejoin:round; stroke-width:0; stroke-opacity:1; fill:none" points="1308.97,1456.4 816.614,1456.4 1801.32,1456.4 1308.97,1456.4 1308.97,1253.91 "/>
<polyline clip-path="url(#clip642)" style="stroke:#1f77b4; stroke-linecap:round; stroke-linejoin:round; stroke-width:0; stroke-opacity:1; fill:none" points="2293.67,1253.91 2293.67,938.507 324.261,938.507 324.261,1253.91 2293.67,1253.91 2293.67,938.507 "/>
<polyline clip-path="url(#clip642)" style="stroke:#1f77b4; stroke-linecap:round; stroke-linejoin:round; stroke-width:0; stroke-opacity:1; fill:none" points="2293.67,638.157 324.261,638.157 324.261,938.507 2293.67,938.507 2293.67,638.157 1308.97,638.157 "/>
<polyline clip-path="url(#clip642)" style="stroke:#1f77b4; stroke-linecap:round; stroke-linejoin:round; stroke-width:0; stroke-opacity:1; fill:none" points="1308.97,47.2441 816.614,47.2441 1801.32,47.2441 1308.97,47.2441 1308.97,638.157 "/>
</svg>
