<?xml version="1.0" encoding="utf-8"?>
<svg xmlns="http://www.w3.org/2000/svg" xmlns:xlink="http://www.w3.org/1999/xlink" width="600" height="400" viewBox="0 0 2400 1600">
<defs>
  <clipPath id="clip480">
    <rect x="0" y="0" width="2400" height="1600"/>
  </clipPath>
</defs>
<path clip-path="url(#clip480)" d="M0 1600 L2400 1600 L2400 0 L0 0  Z" fill="#ffffff" fill-rule="evenodd" fill-opacity="1"/>
<defs>
  <clipPath id="clip481">
    <rect x="480" y="0" width="1681" height="1600"/>
  </clipPath>
</defs>
<path clip-path="url(#clip480)" d="M254.151 1384.3 L2352.76 1384.3 L2352.76 47.2441 L254.151 47.2441  Z" fill="#ffffff" fill-rule="evenodd" fill-opacity="1"/>
<defs>
  <clipPath id="clip482">
    <rect x="254" y="47" width="2100" height="1338"/>
  </clipPath>
</defs>
<polyline clip-path="url(#clip482)" style="stroke:#000000; stroke-linecap:round; stroke-linejoin:round; stroke-width:2; stroke-opacity:0.1; fill:none" points="601.211,1384.3 601.211,47.2441 "/>
<polyline clip-path="url(#clip482)" style="stroke:#000000; stroke-linecap:round; stroke-linejoin:round; stroke-width:2; stroke-opacity:0.1; fill:none" points="1024.25,1384.3 1024.25,47.2441 "/>
<polyline clip-path="url(#clip482)" style="stroke:#000000; stroke-linecap:round; stroke-linejoin:round; stroke-width:2; stroke-opacity:0.1; fill:none" points="1447.29,1384.3 1447.29,47.2441 "/>
<polyline clip-path="url(#clip482)" style="stroke:#000000; stroke-linecap:round; stroke-linejoin:round; stroke-width:2; stroke-opacity:0.1; fill:none" points="1870.32,1384.3 1870.32,47.2441 "/>
<polyline clip-path="url(#clip482)" style="stroke:#000000; stroke-linecap:round; stroke-linejoin:round; stroke-width:2; stroke-opacity:0.1; fill:none" points="2293.36,1384.3 2293.36,47.2441 "/>
<polyline clip-path="url(#clip480)" style="stroke:#000000; stroke-linecap:round; stroke-linejoin:round; stroke-width:4; stroke-opacity:1; fill:none" points="254.151,1384.3 2352.76,1384.3 "/>
<polyline clip-path="url(#clip480)" style="stroke:#000000; stroke-linecap:round; stroke-linejoin:round; stroke-width:4; stroke-opacity:1; fill:none" points="601.211,1384.3 601.211,1365.4 "/>
<polyline clip-path="url(#clip480)" style="stroke:#000000; stroke-linecap:round; stroke-linejoin:round; stroke-width:4; stroke-opacity:1; fill:none" points="1024.25,1384.3 1024.25,1365.4 "/>
<polyline clip-path="url(#clip480)" style="stroke:#000000; stroke-linecap:round; stroke-linejoin:round; stroke-width:4; stroke-opacity:1; fill:none" points="1447.29,1384.3 1447.29,1365.4 "/>
<polyline clip-path="url(#clip480)" style="stroke:#000000; stroke-linecap:round; stroke-linejoin:round; stroke-width:4; stroke-opacity:1; fill:none" points="1870.32,1384.3 1870.32,1365.4 "/>
<polyline clip-path="url(#clip480)" style="stroke:#000000; stroke-linecap:round; stroke-linejoin:round; stroke-width:4; stroke-opacity:1; fill:none" points="2293.36,1384.3 2293.36,1365.4 "/>
<path clip-path="url(#clip480)" d="M540.621 1462.4 L552.08 1462.4 L552.08 1422.85 L539.614 1425.35 L539.614 1418.96 L552.01 1416.46 L559.024 1416.46 L559.024 1462.4 L570.482 1462.4 L570.482 1468.3 L540.621 1468.3 L540.621 1462.4 Z" fill="#000000" fill-rule="nonzero" fill-opacity="1" /><path clip-path="url(#clip480)" d="M599.649 1421.08 Q594.232 1421.08 591.489 1426.43 Q588.781 1431.74 588.781 1442.43 Q588.781 1453.09 591.489 1458.44 Q594.232 1463.75 599.649 1463.75 Q605.1 1463.75 607.809 1458.44 Q610.552 1453.09 610.552 1442.43 Q610.552 1431.74 607.809 1426.43 Q605.1 1421.08 599.649 1421.08 M599.649 1415.52 Q608.364 1415.52 612.947 1422.43 Q617.565 1429.31 617.565 1442.43 Q617.565 1455.52 612.947 1462.43 Q608.364 1469.31 599.649 1469.31 Q590.934 1469.31 586.316 1462.43 Q581.732 1455.52 581.732 1442.43 Q581.732 1429.31 586.316 1422.43 Q590.934 1415.52 599.649 1415.52 Z" fill="#000000" fill-rule="nonzero" fill-opacity="1" /><path clip-path="url(#clip480)" d="M644.892 1421.08 Q639.475 1421.08 636.732 1426.43 Q634.024 1431.74 634.024 1442.43 Q634.024 1453.09 636.732 1458.44 Q639.475 1463.75 644.892 1463.75 Q650.343 1463.75 653.051 1458.44 Q655.794 1453.09 655.794 1442.43 Q655.794 1431.74 653.051 1426.43 Q650.343 1421.08 644.892 1421.08 M644.892 1415.52 Q653.607 1415.52 658.19 1422.43 Q662.808 1429.31 662.808 1442.43 Q662.808 1455.52 658.19 1462.43 Q653.607 1469.31 644.892 1469.31 Q636.176 1469.31 631.558 1462.43 Q626.975 1455.52 626.975 1442.43 Q626.975 1429.31 631.558 1422.43 Q636.176 1415.52 644.892 1415.52 Z" fill="#000000" fill-rule="nonzero" fill-opacity="1" /><path clip-path="url(#clip480)" d="M969.787 1462.4 L994.266 1462.4 L994.266 1468.3 L961.35 1468.3 L961.35 1462.4 Q965.343 1458.27 972.218 1451.32 Q979.128 1444.34 980.898 1442.33 Q984.266 1438.54 985.586 1435.94 Q986.94 1433.3 986.94 1430.77 Q986.94 1426.63 984.023 1424.03 Q981.141 1421.43 976.489 1421.43 Q973.19 1421.43 969.51 1422.57 Q965.864 1423.72 961.697 1426.04 L961.697 1418.96 Q965.933 1417.26 969.614 1416.39 Q973.294 1415.52 976.35 1415.52 Q984.405 1415.52 989.197 1419.55 Q993.989 1423.58 993.989 1430.31 Q993.989 1433.51 992.773 1436.39 Q991.593 1439.24 988.433 1443.13 Q987.565 1444.13 982.912 1448.96 Q978.26 1453.75 969.787 1462.4 Z" fill="#000000" fill-rule="nonzero" fill-opacity="1" /><path clip-path="url(#clip480)" d="M1023.99 1421.08 Q1018.57 1421.08 1015.83 1426.43 Q1013.12 1431.74 1013.12 1442.43 Q1013.12 1453.09 1015.83 1458.44 Q1018.57 1463.75 1023.99 1463.75 Q1029.44 1463.75 1032.15 1458.44 Q1034.89 1453.09 1034.89 1442.43 Q1034.89 1431.74 1032.15 1426.43 Q1029.44 1421.08 1023.99 1421.08 M1023.99 1415.52 Q1032.7 1415.52 1037.29 1422.43 Q1041.91 1429.31 1041.91 1442.43 Q1041.91 1455.52 1037.29 1462.43 Q1032.7 1469.31 1023.99 1469.31 Q1015.27 1469.31 1010.66 1462.43 Q1006.07 1455.52 1006.07 1442.43 Q1006.07 1429.31 1010.66 1422.43 Q1015.27 1415.52 1023.99 1415.52 Z" fill="#000000" fill-rule="nonzero" fill-opacity="1" /><path clip-path="url(#clip480)" d="M1069.23 1421.08 Q1063.81 1421.08 1061.07 1426.43 Q1058.36 1431.74 1058.36 1442.43 Q1058.36 1453.09 1061.07 1458.44 Q1063.81 1463.75 1069.23 1463.75 Q1074.68 1463.75 1077.39 1458.44 Q1080.13 1453.09 1080.13 1442.43 Q1080.13 1431.74 1077.39 1426.43 Q1074.68 1421.08 1069.23 1421.08 M1069.23 1415.52 Q1077.95 1415.52 1082.53 1422.43 Q1087.15 1429.31 1087.15 1442.43 Q1087.15 1455.52 1082.53 1462.43 Q1077.95 1469.31 1069.23 1469.31 Q1060.52 1469.31 1055.9 1462.43 Q1051.31 1455.52 1051.31 1442.43 Q1051.31 1429.31 1055.9 1422.43 Q1060.52 1415.52 1069.23 1415.52 Z" fill="#000000" fill-rule="nonzero" fill-opacity="1" /><path clip-path="url(#clip480)" d="M1407.93 1440.35 Q1412.96 1441.42 1415.78 1444.83 Q1418.62 1448.23 1418.62 1453.23 Q1418.62 1460.9 1413.35 1465.11 Q1408.07 1469.31 1398.35 1469.31 Q1395.08 1469.31 1391.61 1468.65 Q1388.17 1468.02 1384.49 1466.74 L1384.49 1459.97 Q1387.41 1461.67 1390.88 1462.54 Q1394.35 1463.4 1398.14 1463.4 Q1404.73 1463.4 1408.17 1460.8 Q1411.64 1458.2 1411.64 1453.23 Q1411.64 1448.65 1408.42 1446.08 Q1405.22 1443.47 1399.49 1443.47 L1393.45 1443.47 L1393.45 1437.71 L1399.77 1437.71 Q1404.94 1437.71 1407.69 1435.66 Q1410.43 1433.58 1410.43 1429.69 Q1410.43 1425.7 1407.58 1423.58 Q1404.77 1421.43 1399.49 1421.43 Q1396.61 1421.43 1393.31 1422.05 Q1390.01 1422.68 1386.05 1423.99 L1386.05 1417.74 Q1390.05 1416.63 1393.52 1416.08 Q1397.03 1415.52 1400.12 1415.52 Q1408.1 1415.52 1412.76 1419.17 Q1417.41 1422.78 1417.41 1428.96 Q1417.41 1433.27 1414.94 1436.25 Q1412.48 1439.2 1407.93 1440.35 Z" fill="#000000" fill-rule="nonzero" fill-opacity="1" /><path clip-path="url(#clip480)" d="M1446.92 1421.08 Q1441.51 1421.08 1438.76 1426.43 Q1436.05 1431.74 1436.05 1442.43 Q1436.05 1453.09 1438.76 1458.44 Q1441.51 1463.75 1446.92 1463.75 Q1452.37 1463.75 1455.08 1458.44 Q1457.82 1453.09 1457.82 1442.43 Q1457.82 1431.74 1455.08 1426.43 Q1452.37 1421.08 1446.92 1421.08 M1446.92 1415.52 Q1455.64 1415.52 1460.22 1422.43 Q1464.84 1429.31 1464.84 1442.43 Q1464.84 1455.52 1460.22 1462.43 Q1455.64 1469.31 1446.92 1469.31 Q1438.21 1469.31 1433.59 1462.43 Q1429.01 1455.52 1429.01 1442.43 Q1429.01 1429.31 1433.59 1422.43 Q1438.21 1415.52 1446.92 1415.52 Z" fill="#000000" fill-rule="nonzero" fill-opacity="1" /><path clip-path="url(#clip480)" d="M1492.16 1421.08 Q1486.75 1421.08 1484 1426.43 Q1481.3 1431.74 1481.3 1442.43 Q1481.3 1453.09 1484 1458.44 Q1486.75 1463.75 1492.16 1463.75 Q1497.62 1463.75 1500.32 1458.44 Q1503.07 1453.09 1503.07 1442.43 Q1503.07 1431.74 1500.32 1426.43 Q1497.62 1421.08 1492.16 1421.08 M1492.16 1415.52 Q1500.88 1415.52 1505.46 1422.43 Q1510.08 1429.31 1510.08 1442.43 Q1510.08 1455.52 1505.46 1462.43 Q1500.88 1469.31 1492.16 1469.31 Q1483.45 1469.31 1478.83 1462.43 Q1474.25 1455.52 1474.25 1442.43 Q1474.25 1429.31 1478.83 1422.43 Q1483.45 1415.52 1492.16 1415.52 Z" fill="#000000" fill-rule="nonzero" fill-opacity="1" /><path clip-path="url(#clip480)" d="M1829.96 1422.57 L1812.25 1450.24 L1829.96 1450.24 L1829.96 1422.57 M1828.12 1416.46 L1836.94 1416.46 L1836.94 1450.24 L1844.33 1450.24 L1844.33 1456.08 L1836.94 1456.08 L1836.94 1468.3 L1829.96 1468.3 L1829.96 1456.08 L1806.56 1456.08 L1806.56 1449.31 L1828.12 1416.46 Z" fill="#000000" fill-rule="nonzero" fill-opacity="1" /><path clip-path="url(#clip480)" d="M1870.93 1421.08 Q1865.51 1421.08 1862.77 1426.43 Q1860.06 1431.74 1860.06 1442.43 Q1860.06 1453.09 1862.77 1458.44 Q1865.51 1463.75 1870.93 1463.75 Q1876.38 1463.75 1879.09 1458.44 Q1881.83 1453.09 1881.83 1442.43 Q1881.83 1431.74 1879.09 1426.43 Q1876.38 1421.08 1870.93 1421.08 M1870.93 1415.52 Q1879.65 1415.52 1884.23 1422.43 Q1888.85 1429.31 1888.85 1442.43 Q1888.85 1455.52 1884.23 1462.43 Q1879.65 1469.31 1870.93 1469.31 Q1862.22 1469.31 1857.6 1462.43 Q1853.01 1455.52 1853.01 1442.43 Q1853.01 1429.31 1857.6 1422.43 Q1862.22 1415.52 1870.93 1415.52 Z" fill="#000000" fill-rule="nonzero" fill-opacity="1" /><path clip-path="url(#clip480)" d="M1916.17 1421.08 Q1910.76 1421.08 1908.01 1426.43 Q1905.31 1431.74 1905.31 1442.43 Q1905.31 1453.09 1908.01 1458.44 Q1910.76 1463.75 1916.17 1463.75 Q1921.63 1463.75 1924.33 1458.44 Q1927.08 1453.09 1927.08 1442.43 Q1927.08 1431.74 1924.33 1426.43 Q1921.63 1421.08 1916.17 1421.08 M1916.17 1415.52 Q1924.89 1415.52 1929.47 1422.43 Q1934.09 1429.31 1934.09 1442.43 Q1934.09 1455.52 1929.47 1462.43 Q1924.89 1469.31 1916.17 1469.31 Q1907.46 1469.31 1902.84 1462.43 Q1898.26 1455.52 1898.26 1442.43 Q1898.26 1429.31 1902.84 1422.43 Q1907.46 1415.52 1916.17 1415.52 Z" fill="#000000" fill-rule="nonzero" fill-opacity="1" /><path clip-path="url(#clip480)" d="M2232.79 1416.46 L2260.32 1416.46 L2260.32 1422.36 L2239.21 1422.36 L2239.21 1435.07 Q2240.74 1434.55 2242.27 1434.31 Q2243.8 1434.03 2245.32 1434.03 Q2254 1434.03 2259.07 1438.79 Q2264.14 1443.54 2264.14 1451.67 Q2264.14 1460.04 2258.93 1464.69 Q2253.73 1469.31 2244.25 1469.31 Q2240.98 1469.31 2237.58 1468.75 Q2234.21 1468.2 2230.6 1467.08 L2230.6 1460.04 Q2233.73 1461.74 2237.06 1462.57 Q2240.39 1463.4 2244.11 1463.4 Q2250.12 1463.4 2253.62 1460.24 Q2257.13 1457.08 2257.13 1451.67 Q2257.13 1446.25 2253.62 1443.09 Q2250.12 1439.93 2244.11 1439.93 Q2241.3 1439.93 2238.48 1440.56 Q2235.71 1441.18 2232.79 1442.5 L2232.79 1416.46 Z" fill="#000000" fill-rule="nonzero" fill-opacity="1" /><path clip-path="url(#clip480)" d="M2292.96 1421.08 Q2287.55 1421.08 2284.8 1426.43 Q2282.09 1431.74 2282.09 1442.43 Q2282.09 1453.09 2284.8 1458.44 Q2287.55 1463.75 2292.96 1463.75 Q2298.41 1463.75 2301.12 1458.44 Q2303.86 1453.09 2303.86 1442.43 Q2303.86 1431.74 2301.12 1426.43 Q2298.41 1421.08 2292.96 1421.08 M2292.96 1415.52 Q2301.68 1415.52 2306.26 1422.43 Q2310.88 1429.31 2310.88 1442.43 Q2310.88 1455.52 2306.26 1462.43 Q2301.68 1469.31 2292.96 1469.31 Q2284.25 1469.31 2279.63 1462.43 Q2275.05 1455.52 2275.05 1442.43 Q2275.05 1429.31 2279.63 1422.43 Q2284.25 1415.52 2292.96 1415.52 Z" fill="#000000" fill-rule="nonzero" fill-opacity="1" /><path clip-path="url(#clip480)" d="M2338.2 1421.08 Q2332.79 1421.08 2330.05 1426.43 Q2327.34 1431.74 2327.34 1442.43 Q2327.34 1453.09 2330.05 1458.44 Q2332.79 1463.75 2338.2 1463.75 Q2343.66 1463.75 2346.36 1458.44 Q2349.11 1453.09 2349.11 1442.43 Q2349.11 1431.74 2346.36 1426.43 Q2343.66 1421.08 2338.2 1421.08 M2338.2 1415.52 Q2346.92 1415.52 2351.5 1422.43 Q2356.12 1429.31 2356.12 1442.43 Q2356.12 1455.52 2351.5 1462.43 Q2346.92 1469.31 2338.2 1469.31 Q2329.49 1469.31 2324.87 1462.43 Q2320.29 1455.52 2320.29 1442.43 Q2320.29 1429.31 2324.87 1422.43 Q2329.49 1415.52 2338.2 1415.52 Z" fill="#000000" fill-rule="nonzero" fill-opacity="1" /><path clip-path="url(#clip480)" d="M1068.85 1514.15 L1068.85 1523.27 Q1063.52 1520.73 1058.8 1519.48 Q1054.08 1518.23 1049.68 1518.23 Q1042.04 1518.23 1037.88 1521.19 Q1033.76 1524.15 1033.76 1529.62 Q1033.76 1534.2 1036.49 1536.56 Q1039.27 1538.87 1046.95 1540.31 L1052.6 1541.47 Q1063.06 1543.46 1068.02 1548.5 Q1073.02 1553.5 1073.02 1561.93 Q1073.02 1571.98 1066.26 1577.16 Q1059.54 1582.35 1046.53 1582.35 Q1041.63 1582.35 1036.07 1581.24 Q1030.56 1580.12 1024.64 1577.95 L1024.64 1568.32 Q1030.33 1571.51 1035.79 1573.13 Q1041.26 1574.75 1046.53 1574.75 Q1054.54 1574.75 1058.89 1571.61 Q1063.25 1568.46 1063.25 1562.62 Q1063.25 1557.53 1060.1 1554.66 Q1057 1551.79 1049.87 1550.36 L1044.17 1549.24 Q1033.71 1547.16 1029.03 1542.72 Q1024.36 1538.27 1024.36 1530.36 Q1024.36 1521.19 1030.79 1515.91 Q1037.27 1510.63 1048.62 1510.63 Q1053.48 1510.63 1058.52 1511.51 Q1063.57 1512.39 1068.85 1514.15 Z" fill="#000000" fill-rule="nonzero" fill-opacity="1" /><path clip-path="url(#clip480)" d="M1110.79 1554.94 Q1100.47 1554.94 1096.49 1557.3 Q1092.51 1559.66 1092.51 1565.36 Q1092.51 1569.89 1095.47 1572.58 Q1098.48 1575.22 1103.62 1575.22 Q1110.7 1575.22 1114.96 1570.22 Q1119.26 1565.17 1119.26 1556.84 L1119.26 1554.94 L1110.79 1554.94 M1127.78 1551.42 L1127.78 1581 L1119.26 1581 L1119.26 1573.13 Q1116.35 1577.86 1112 1580.12 Q1107.64 1582.35 1101.35 1582.35 Q1093.39 1582.35 1088.66 1577.9 Q1083.99 1573.41 1083.99 1565.91 Q1083.99 1557.16 1089.82 1552.72 Q1095.7 1548.27 1107.32 1548.27 L1119.26 1548.27 L1119.26 1547.44 Q1119.26 1541.56 1115.38 1538.37 Q1111.53 1535.12 1104.54 1535.12 Q1100.1 1535.12 1095.89 1536.19 Q1091.67 1537.25 1087.78 1539.38 L1087.78 1531.51 Q1092.46 1529.71 1096.86 1528.83 Q1101.26 1527.9 1105.42 1527.9 Q1116.67 1527.9 1122.23 1533.74 Q1127.78 1539.57 1127.78 1551.42 Z" fill="#000000" fill-rule="nonzero" fill-opacity="1" /><path clip-path="url(#clip480)" d="M1185.7 1539.11 Q1188.89 1533.37 1193.34 1530.63 Q1197.78 1527.9 1203.8 1527.9 Q1211.9 1527.9 1216.3 1533.6 Q1220.7 1539.24 1220.7 1549.71 L1220.7 1581 L1212.13 1581 L1212.13 1549.99 Q1212.13 1542.53 1209.5 1538.92 Q1206.86 1535.31 1201.44 1535.31 Q1194.82 1535.31 1190.98 1539.71 Q1187.13 1544.11 1187.13 1551.7 L1187.13 1581 L1178.57 1581 L1178.57 1549.99 Q1178.57 1542.49 1175.93 1538.92 Q1173.29 1535.31 1167.78 1535.31 Q1161.26 1535.31 1157.41 1539.75 Q1153.57 1544.15 1153.57 1551.7 L1153.57 1581 L1145.01 1581 L1145.01 1529.15 L1153.57 1529.15 L1153.57 1537.21 Q1156.49 1532.44 1160.56 1530.17 Q1164.63 1527.9 1170.24 1527.9 Q1175.88 1527.9 1179.82 1530.77 Q1183.8 1533.64 1185.7 1539.11 Z" fill="#000000" fill-rule="nonzero" fill-opacity="1" /><path clip-path="url(#clip480)" d="M1245.93 1573.23 L1245.93 1600.73 L1237.37 1600.73 L1237.37 1529.15 L1245.93 1529.15 L1245.93 1537.02 Q1248.62 1532.39 1252.69 1530.17 Q1256.81 1527.9 1262.5 1527.9 Q1271.95 1527.9 1277.83 1535.4 Q1283.75 1542.9 1283.75 1555.12 Q1283.75 1567.35 1277.83 1574.85 Q1271.95 1582.35 1262.5 1582.35 Q1256.81 1582.35 1252.69 1580.12 Q1248.62 1577.86 1245.93 1573.23 M1274.91 1555.12 Q1274.91 1545.73 1271.02 1540.4 Q1267.18 1535.03 1260.42 1535.03 Q1253.66 1535.03 1249.77 1540.4 Q1245.93 1545.73 1245.93 1555.12 Q1245.93 1564.52 1249.77 1569.89 Q1253.66 1575.22 1260.42 1575.22 Q1267.18 1575.22 1271.02 1569.89 Q1274.91 1564.52 1274.91 1555.12 Z" fill="#000000" fill-rule="nonzero" fill-opacity="1" /><path clip-path="url(#clip480)" d="M1297.87 1508.97 L1306.39 1508.97 L1306.39 1581 L1297.87 1581 L1297.87 1508.97 Z" fill="#000000" fill-rule="nonzero" fill-opacity="1" /><path clip-path="url(#clip480)" d="M1368.57 1552.95 L1368.57 1557.12 L1329.4 1557.12 Q1329.96 1565.91 1334.68 1570.54 Q1339.45 1575.12 1347.92 1575.12 Q1352.83 1575.12 1357.41 1573.92 Q1362.04 1572.72 1366.58 1570.31 L1366.58 1578.36 Q1361.99 1580.31 1357.18 1581.33 Q1352.37 1582.35 1347.41 1582.35 Q1335 1582.35 1327.74 1575.12 Q1320.51 1567.9 1320.51 1555.59 Q1320.51 1542.86 1327.37 1535.4 Q1334.26 1527.9 1345.93 1527.9 Q1356.39 1527.9 1362.46 1534.66 Q1368.57 1541.37 1368.57 1552.95 M1360.05 1550.45 Q1359.96 1543.46 1356.12 1539.29 Q1352.32 1535.12 1346.02 1535.12 Q1338.89 1535.12 1334.59 1539.15 Q1330.33 1543.18 1329.68 1550.49 L1360.05 1550.45 Z" fill="#000000" fill-rule="nonzero" fill-opacity="1" /><path clip-path="url(#clip480)" d="M1445.74 1530.68 L1445.74 1538.74 Q1442.13 1536.88 1438.24 1535.96 Q1434.36 1535.03 1430.19 1535.03 Q1423.85 1535.03 1420.65 1536.98 Q1417.5 1538.92 1417.5 1542.81 Q1417.5 1545.77 1419.77 1547.49 Q1422.04 1549.15 1428.89 1550.68 L1431.81 1551.33 Q1440.88 1553.27 1444.68 1556.84 Q1448.52 1560.36 1448.52 1566.7 Q1448.52 1573.92 1442.78 1578.13 Q1437.09 1582.35 1427.09 1582.35 Q1422.92 1582.35 1418.38 1581.51 Q1413.89 1580.73 1408.89 1579.11 L1408.89 1570.31 Q1413.62 1572.76 1418.2 1574.01 Q1422.78 1575.22 1427.27 1575.22 Q1433.29 1575.22 1436.53 1573.18 Q1439.77 1571.1 1439.77 1567.35 Q1439.77 1563.87 1437.41 1562.02 Q1435.1 1560.17 1427.18 1558.46 L1424.22 1557.76 Q1416.3 1556.1 1412.78 1552.67 Q1409.26 1549.2 1409.26 1543.18 Q1409.26 1535.87 1414.45 1531.88 Q1419.63 1527.9 1429.17 1527.9 Q1433.89 1527.9 1438.06 1528.6 Q1442.23 1529.29 1445.74 1530.68 Z" fill="#000000" fill-rule="nonzero" fill-opacity="1" /><path clip-path="url(#clip480)" d="M1462.09 1529.15 L1470.61 1529.15 L1470.61 1581 L1462.09 1581 L1462.09 1529.15 M1462.09 1508.97 L1470.61 1508.97 L1470.61 1519.75 L1462.09 1519.75 L1462.09 1508.97 Z" fill="#000000" fill-rule="nonzero" fill-opacity="1" /><path clip-path="url(#clip480)" d="M1484.73 1529.15 L1525.19 1529.15 L1525.19 1536.93 L1493.15 1574.2 L1525.19 1574.2 L1525.19 1581 L1483.57 1581 L1483.57 1573.23 L1515.61 1535.96 L1484.73 1535.96 L1484.73 1529.15 Z" fill="#000000" fill-rule="nonzero" fill-opacity="1" /><path clip-path="url(#clip480)" d="M1582.55 1552.95 L1582.55 1557.12 L1543.38 1557.12 Q1543.94 1565.91 1548.66 1570.54 Q1553.43 1575.12 1561.9 1575.12 Q1566.81 1575.12 1571.39 1573.92 Q1576.02 1572.72 1580.56 1570.31 L1580.56 1578.36 Q1575.98 1580.31 1571.16 1581.33 Q1566.35 1582.35 1561.39 1582.35 Q1548.98 1582.35 1541.72 1575.12 Q1534.49 1567.9 1534.49 1555.59 Q1534.49 1542.86 1541.35 1535.4 Q1548.24 1527.9 1559.91 1527.9 Q1570.37 1527.9 1576.44 1534.66 Q1582.55 1541.37 1582.55 1552.95 M1574.03 1550.45 Q1573.94 1543.46 1570.1 1539.29 Q1566.3 1535.12 1560 1535.12 Q1552.87 1535.12 1548.57 1539.15 Q1544.31 1543.18 1543.66 1550.49 L1574.03 1550.45 Z" fill="#000000" fill-rule="nonzero" fill-opacity="1" /><polyline clip-path="url(#clip482)" style="stroke:#000000; stroke-linecap:round; stroke-linejoin:round; stroke-width:2; stroke-opacity:0.1; fill:none" points="254.151,1384.3 2352.76,1384.3 "/>
<polyline clip-path="url(#clip482)" style="stroke:#000000; stroke-linecap:round; stroke-linejoin:round; stroke-width:2; stroke-opacity:0.1; fill:none" points="254.151,1193.29 2352.76,1193.29 "/>
<polyline clip-path="url(#clip482)" style="stroke:#000000; stroke-linecap:round; stroke-linejoin:round; stroke-width:2; stroke-opacity:0.1; fill:none" points="254.151,1002.28 2352.76,1002.28 "/>
<polyline clip-path="url(#clip482)" style="stroke:#000000; stroke-linecap:round; stroke-linejoin:round; stroke-width:2; stroke-opacity:0.1; fill:none" points="254.151,811.276 2352.76,811.276 "/>
<polyline clip-path="url(#clip482)" style="stroke:#000000; stroke-linecap:round; stroke-linejoin:round; stroke-width:2; stroke-opacity:0.1; fill:none" points="254.151,620.268 2352.76,620.268 "/>
<polyline clip-path="url(#clip482)" style="stroke:#000000; stroke-linecap:round; stroke-linejoin:round; stroke-width:2; stroke-opacity:0.1; fill:none" points="254.151,429.26 2352.76,429.26 "/>
<polyline clip-path="url(#clip482)" style="stroke:#000000; stroke-linecap:round; stroke-linejoin:round; stroke-width:2; stroke-opacity:0.1; fill:none" points="254.151,238.252 2352.76,238.252 "/>
<polyline clip-path="url(#clip482)" style="stroke:#000000; stroke-linecap:round; stroke-linejoin:round; stroke-width:2; stroke-opacity:0.1; fill:none" points="254.151,47.2441 2352.76,47.2441 "/>
<polyline clip-path="url(#clip480)" style="stroke:#000000; stroke-linecap:round; stroke-linejoin:round; stroke-width:4; stroke-opacity:1; fill:none" points="254.151,1384.3 254.151,47.2441 "/>
<polyline clip-path="url(#clip480)" style="stroke:#000000; stroke-linecap:round; stroke-linejoin:round; stroke-width:4; stroke-opacity:1; fill:none" points="254.151,1384.3 273.049,1384.3 "/>
<polyline clip-path="url(#clip480)" style="stroke:#000000; stroke-linecap:round; stroke-linejoin:round; stroke-width:4; stroke-opacity:1; fill:none" points="254.151,1193.29 273.049,1193.29 "/>
<polyline clip-path="url(#clip480)" style="stroke:#000000; stroke-linecap:round; stroke-linejoin:round; stroke-width:4; stroke-opacity:1; fill:none" points="254.151,1002.28 273.049,1002.28 "/>
<polyline clip-path="url(#clip480)" style="stroke:#000000; stroke-linecap:round; stroke-linejoin:round; stroke-width:4; stroke-opacity:1; fill:none" points="254.151,811.276 273.049,811.276 "/>
<polyline clip-path="url(#clip480)" style="stroke:#000000; stroke-linecap:round; stroke-linejoin:round; stroke-width:4; stroke-opacity:1; fill:none" points="254.151,620.268 273.049,620.268 "/>
<polyline clip-path="url(#clip480)" style="stroke:#000000; stroke-linecap:round; stroke-linejoin:round; stroke-width:4; stroke-opacity:1; fill:none" points="254.151,429.26 273.049,429.26 "/>
<polyline clip-path="url(#clip480)" style="stroke:#000000; stroke-linecap:round; stroke-linejoin:round; stroke-width:4; stroke-opacity:1; fill:none" points="254.151,238.252 273.049,238.252 "/>
<polyline clip-path="url(#clip480)" style="stroke:#000000; stroke-linecap:round; stroke-linejoin:round; stroke-width:4; stroke-opacity:1; fill:none" points="254.151,47.2441 273.049,47.2441 "/>
<path clip-path="url(#clip480)" d="M200.235 1363 Q194.818 1363 192.075 1368.35 Q189.367 1373.66 189.367 1384.35 Q189.367 1395.01 192.075 1400.36 Q194.818 1405.67 200.235 1405.67 Q205.686 1405.67 208.394 1400.36 Q211.138 1395.01 211.138 1384.35 Q211.138 1373.66 208.394 1368.35 Q205.686 1363 200.235 1363 M200.235 1357.44 Q208.95 1357.44 213.533 1364.35 Q218.151 1371.23 218.151 1384.35 Q218.151 1397.44 213.533 1404.35 Q208.95 1411.23 200.235 1411.23 Q191.52 1411.23 186.902 1404.35 Q182.318 1397.44 182.318 1384.35 Q182.318 1371.23 186.902 1364.35 Q191.52 1357.44 200.235 1357.44 Z" fill="#000000" fill-rule="nonzero" fill-opacity="1" /><path clip-path="url(#clip480)" d="M141.207 1213.31 L152.666 1213.31 L152.666 1173.76 L140.2 1176.26 L140.2 1169.87 L152.596 1167.37 L159.61 1167.37 L159.61 1213.31 L171.068 1213.31 L171.068 1219.21 L141.207 1219.21 L141.207 1213.31 Z" fill="#000000" fill-rule="nonzero" fill-opacity="1" /><path clip-path="url(#clip480)" d="M200.235 1171.99 Q194.818 1171.99 192.075 1177.34 Q189.367 1182.65 189.367 1193.34 Q189.367 1204 192.075 1209.35 Q194.818 1214.66 200.235 1214.66 Q205.686 1214.66 208.394 1209.35 Q211.138 1204 211.138 1193.34 Q211.138 1182.65 208.394 1177.34 Q205.686 1171.99 200.235 1171.99 M200.235 1166.43 Q208.95 1166.43 213.533 1173.34 Q218.151 1180.22 218.151 1193.34 Q218.151 1206.43 213.533 1213.34 Q208.95 1220.22 200.235 1220.22 Q191.52 1220.22 186.902 1213.34 Q182.318 1206.43 182.318 1193.34 Q182.318 1180.22 186.902 1173.34 Q191.52 1166.43 200.235 1166.43 Z" fill="#000000" fill-rule="nonzero" fill-opacity="1" /><path clip-path="url(#clip480)" d="M146.034 1022.3 L170.513 1022.3 L170.513 1028.2 L137.596 1028.2 L137.596 1022.3 Q141.589 1018.17 148.464 1011.22 Q155.374 1004.25 157.145 1002.23 Q160.513 998.447 161.832 995.843 Q163.186 993.204 163.186 990.669 Q163.186 986.537 160.27 983.933 Q157.388 981.329 152.735 981.329 Q149.436 981.329 145.756 982.475 Q142.11 983.621 137.943 985.947 L137.943 978.864 Q142.18 977.163 145.86 976.294 Q149.541 975.426 152.596 975.426 Q160.652 975.426 165.443 979.454 Q170.235 983.482 170.235 990.218 Q170.235 993.412 169.02 996.294 Q167.839 999.142 164.679 1003.03 Q163.811 1004.04 159.159 1008.86 Q154.506 1013.66 146.034 1022.3 Z" fill="#000000" fill-rule="nonzero" fill-opacity="1" /><path clip-path="url(#clip480)" d="M200.235 980.982 Q194.818 980.982 192.075 986.329 Q189.367 991.642 189.367 1002.34 Q189.367 1013 192.075 1018.34 Q194.818 1023.66 200.235 1023.66 Q205.686 1023.66 208.394 1018.34 Q211.138 1013 211.138 1002.34 Q211.138 991.642 208.394 986.329 Q205.686 980.982 200.235 980.982 M200.235 975.426 Q208.95 975.426 213.533 982.336 Q218.151 989.211 218.151 1002.34 Q218.151 1015.43 213.533 1022.34 Q208.95 1029.21 200.235 1029.21 Q191.52 1029.21 186.902 1022.34 Q182.318 1015.43 182.318 1002.34 Q182.318 989.211 186.902 982.336 Q191.52 975.426 200.235 975.426 Z" fill="#000000" fill-rule="nonzero" fill-opacity="1" /><path clip-path="url(#clip480)" d="M161.242 809.245 Q166.277 810.321 169.089 813.724 Q171.936 817.127 171.936 822.127 Q171.936 829.8 166.659 834.002 Q161.381 838.203 151.659 838.203 Q148.395 838.203 144.923 837.543 Q141.485 836.918 137.805 835.633 L137.805 828.863 Q140.721 830.564 144.193 831.432 Q147.666 832.3 151.45 832.3 Q158.048 832.3 161.485 829.696 Q164.957 827.092 164.957 822.127 Q164.957 817.543 161.728 814.974 Q158.534 812.37 152.805 812.37 L146.763 812.37 L146.763 806.606 L153.082 806.606 Q158.256 806.606 160.999 804.557 Q163.742 802.474 163.742 798.585 Q163.742 794.592 160.895 792.474 Q158.082 790.321 152.805 790.321 Q149.923 790.321 146.624 790.946 Q143.325 791.571 139.367 792.891 L139.367 786.641 Q143.36 785.53 146.832 784.974 Q150.339 784.418 153.43 784.418 Q161.416 784.418 166.068 788.064 Q170.721 791.675 170.721 797.856 Q170.721 802.161 168.256 805.148 Q165.791 808.099 161.242 809.245 Z" fill="#000000" fill-rule="nonzero" fill-opacity="1" /><path clip-path="url(#clip480)" d="M200.235 789.974 Q194.818 789.974 192.075 795.321 Q189.367 800.634 189.367 811.328 Q189.367 821.988 192.075 827.335 Q194.818 832.647 200.235 832.647 Q205.686 832.647 208.394 827.335 Q211.138 821.988 211.138 811.328 Q211.138 800.634 208.394 795.321 Q205.686 789.974 200.235 789.974 M200.235 784.418 Q208.95 784.418 213.533 791.328 Q218.151 798.203 218.151 811.328 Q218.151 824.418 213.533 831.328 Q208.95 838.203 200.235 838.203 Q191.52 838.203 186.902 831.328 Q182.318 824.418 182.318 811.328 Q182.318 798.203 186.902 791.328 Q191.52 784.418 200.235 784.418 Z" fill="#000000" fill-rule="nonzero" fill-opacity="1" /><path clip-path="url(#clip480)" d="M159.263 600.459 L141.555 628.133 L159.263 628.133 L159.263 600.459 M157.423 594.348 L166.242 594.348 L166.242 628.133 L173.638 628.133 L173.638 633.966 L166.242 633.966 L166.242 646.188 L159.263 646.188 L159.263 633.966 L135.86 633.966 L135.86 627.195 L157.423 594.348 Z" fill="#000000" fill-rule="nonzero" fill-opacity="1" /><path clip-path="url(#clip480)" d="M200.235 598.966 Q194.818 598.966 192.075 604.313 Q189.367 609.626 189.367 620.32 Q189.367 630.98 192.075 636.327 Q194.818 641.639 200.235 641.639 Q205.686 641.639 208.394 636.327 Q211.138 630.98 211.138 620.32 Q211.138 609.626 208.394 604.313 Q205.686 598.966 200.235 598.966 M200.235 593.41 Q208.95 593.41 213.533 600.32 Q218.151 607.195 218.151 620.32 Q218.151 633.41 213.533 640.32 Q208.95 647.195 200.235 647.195 Q191.52 647.195 186.902 640.32 Q182.318 633.41 182.318 620.32 Q182.318 607.195 186.902 600.32 Q191.52 593.41 200.235 593.41 Z" fill="#000000" fill-rule="nonzero" fill-opacity="1" /><path clip-path="url(#clip480)" d="M140.062 403.34 L167.596 403.34 L167.596 409.243 L146.485 409.243 L146.485 421.951 Q148.013 421.43 149.541 421.187 Q151.068 420.909 152.596 420.909 Q161.277 420.909 166.346 425.666 Q171.416 430.423 171.416 438.548 Q171.416 446.916 166.207 451.569 Q160.999 456.187 151.52 456.187 Q148.256 456.187 144.853 455.631 Q141.485 455.076 137.874 453.965 L137.874 446.916 Q140.999 448.618 144.332 449.451 Q147.666 450.284 151.381 450.284 Q157.388 450.284 160.895 447.125 Q164.402 443.965 164.402 438.548 Q164.402 433.132 160.895 429.972 Q157.388 426.812 151.381 426.812 Q148.568 426.812 145.756 427.437 Q142.978 428.062 140.062 429.382 L140.062 403.34 Z" fill="#000000" fill-rule="nonzero" fill-opacity="1" /><path clip-path="url(#clip480)" d="M200.235 407.958 Q194.818 407.958 192.075 413.305 Q189.367 418.618 189.367 429.312 Q189.367 439.972 192.075 445.319 Q194.818 450.631 200.235 450.631 Q205.686 450.631 208.394 445.319 Q211.138 439.972 211.138 429.312 Q211.138 418.618 208.394 413.305 Q205.686 407.958 200.235 407.958 M200.235 402.403 Q208.95 402.403 213.533 409.312 Q218.151 416.187 218.151 429.312 Q218.151 442.402 213.533 449.312 Q208.95 456.187 200.235 456.187 Q191.52 456.187 186.902 449.312 Q182.318 442.402 182.318 429.312 Q182.318 416.187 186.902 409.312 Q191.52 402.403 200.235 402.403 Z" fill="#000000" fill-rule="nonzero" fill-opacity="1" /><path clip-path="url(#clip480)" d="M155.86 235.457 Q151.138 235.457 148.36 238.686 Q145.617 241.915 145.617 247.54 Q145.617 253.13 148.36 256.394 Q151.138 259.623 155.86 259.623 Q160.582 259.623 163.325 256.394 Q166.103 253.13 166.103 247.54 Q166.103 241.915 163.325 238.686 Q160.582 235.457 155.86 235.457 M169.784 213.478 L169.784 219.867 Q167.145 218.617 164.436 217.957 Q161.763 217.297 159.124 217.297 Q152.18 217.297 148.499 221.985 Q144.853 226.672 144.332 236.151 Q146.381 233.131 149.471 231.533 Q152.561 229.901 156.277 229.901 Q164.089 229.901 168.603 234.658 Q173.152 239.381 173.152 247.54 Q173.152 255.526 168.429 260.353 Q163.707 265.179 155.86 265.179 Q146.867 265.179 142.11 258.304 Q137.353 251.394 137.353 238.304 Q137.353 226.013 143.187 218.721 Q149.02 211.395 158.846 211.395 Q161.485 211.395 164.159 211.915 Q166.867 212.436 169.784 213.478 Z" fill="#000000" fill-rule="nonzero" fill-opacity="1" /><path clip-path="url(#clip480)" d="M200.235 216.95 Q194.818 216.95 192.075 222.297 Q189.367 227.61 189.367 238.304 Q189.367 248.964 192.075 254.311 Q194.818 259.623 200.235 259.623 Q205.686 259.623 208.394 254.311 Q211.138 248.964 211.138 238.304 Q211.138 227.61 208.394 222.297 Q205.686 216.95 200.235 216.95 M200.235 211.395 Q208.95 211.395 213.533 218.304 Q218.151 225.179 218.151 238.304 Q218.151 251.394 213.533 258.304 Q208.95 265.179 200.235 265.179 Q191.52 265.179 186.902 258.304 Q182.318 251.394 182.318 238.304 Q182.318 225.179 186.902 218.304 Q191.52 211.395 200.235 211.395 Z" fill="#000000" fill-rule="nonzero" fill-opacity="1" /><path clip-path="url(#clip480)" d="M138.221 21.3241 L171.554 21.3241 L171.554 24.3102 L152.735 73.1641 L145.409 73.1641 L163.117 27.2268 L138.221 27.2268 L138.221 21.3241 Z" fill="#000000" fill-rule="nonzero" fill-opacity="1" /><path clip-path="url(#clip480)" d="M200.235 25.9421 Q194.818 25.9421 192.075 31.2893 Q189.367 36.6018 189.367 47.2962 Q189.367 57.9558 192.075 63.303 Q194.818 68.6155 200.235 68.6155 Q205.686 68.6155 208.394 63.303 Q211.138 57.9558 211.138 47.2962 Q211.138 36.6018 208.394 31.2893 Q205.686 25.9421 200.235 25.9421 M200.235 20.3866 Q208.95 20.3866 213.533 27.2963 Q218.151 34.1712 218.151 47.2962 Q218.151 60.3864 213.533 67.2961 Q208.95 74.171 200.235 74.171 Q191.52 74.171 186.902 67.2961 Q182.318 60.3864 182.318 47.2962 Q182.318 34.1712 186.902 27.2963 Q191.52 20.3866 200.235 20.3866 Z" fill="#000000" fill-rule="nonzero" fill-opacity="1" /><path clip-path="url(#clip480)" d="M10.0042 1082.25 L10.0042 1042.53 L17.8745 1042.53 L17.8745 1072.9 L38.2447 1072.9 L38.2447 1045.49 L46.1151 1045.49 L46.1151 1072.9 L79.1242 1072.9 L79.1242 1082.25 L10.0042 1082.25 Z" fill="#000000" fill-rule="nonzero" fill-opacity="1" /><path clip-path="url(#clip480)" d="M51.0688 988.919 L55.2354 988.919 L55.2354 1028.09 Q64.0316 1027.53 68.6613 1022.81 Q73.2446 1018.04 73.2446 1009.57 Q73.2446 1004.66 72.0409 1000.08 Q70.8372 995.446 68.4298 990.909 L76.4853 990.909 Q78.4297 995.493 79.4482 1000.31 Q80.4667 1005.12 80.4667 1010.08 Q80.4667 1022.48 73.2446 1029.75 Q66.0224 1036.97 53.7076 1036.97 Q40.9762 1036.97 33.5225 1030.12 Q26.0226 1023.22 26.0226 1011.56 Q26.0226 1001.09 32.7818 995.03 Q39.4947 988.919 51.0688 988.919 M48.5688 997.437 Q41.5781 997.53 37.4114 1001.37 Q33.2448 1005.17 33.2448 1011.46 Q33.2448 1018.59 37.2725 1022.9 Q41.3003 1027.16 48.6151 1027.81 L48.5688 997.437 Z" fill="#000000" fill-rule="nonzero" fill-opacity="1" /><path clip-path="url(#clip480)" d="M53.0595 951.373 Q53.0595 961.697 55.4206 965.678 Q57.7817 969.659 63.4761 969.659 Q68.0131 969.659 70.6983 966.697 Q73.3372 963.687 73.3372 958.548 Q73.3372 951.465 68.3372 947.206 Q63.2909 942.9 54.9576 942.9 L53.0595 942.9 L53.0595 951.373 M49.541 934.382 L79.1242 934.382 L79.1242 942.9 L71.2538 942.9 Q75.976 945.817 78.2445 950.169 Q80.4667 954.521 80.4667 960.817 Q80.4667 968.78 76.0223 973.502 Q71.5316 978.178 64.0316 978.178 Q55.2817 978.178 50.8373 972.345 Q46.3929 966.465 46.3929 954.845 L46.3929 942.9 L45.5595 942.9 Q39.6799 942.9 36.4855 946.789 Q33.2448 950.632 33.2448 957.623 Q33.2448 962.067 34.3096 966.28 Q35.3744 970.493 37.504 974.382 L29.6337 974.382 Q27.8281 969.706 26.9485 965.308 Q26.0226 960.91 26.0226 956.743 Q26.0226 945.493 31.8559 939.937 Q37.6892 934.382 49.541 934.382 Z" fill="#000000" fill-rule="nonzero" fill-opacity="1" /><path clip-path="url(#clip480)" d="M12.5504 908.41 L27.2726 908.41 L27.2726 890.864 L33.8929 890.864 L33.8929 908.41 L62.0409 908.41 Q68.3835 908.41 70.189 906.697 Q71.9946 904.938 71.9946 899.614 L71.9946 890.864 L79.1242 890.864 L79.1242 899.614 Q79.1242 909.475 75.4668 913.225 Q71.7631 916.975 62.0409 916.975 L33.8929 916.975 L33.8929 923.225 L27.2726 923.225 L27.2726 916.975 L12.5504 916.975 L12.5504 908.41 Z" fill="#000000" fill-rule="nonzero" fill-opacity="1" /><path clip-path="url(#clip480)" d="M58.6613 880.54 L27.2726 880.54 L27.2726 872.021 L58.3372 872.021 Q65.6983 872.021 69.402 869.151 Q73.0594 866.28 73.0594 860.54 Q73.0594 853.642 68.6613 849.66 Q64.2631 845.632 56.6706 845.632 L27.2726 845.632 L27.2726 837.114 L79.1242 837.114 L79.1242 845.632 L71.1612 845.632 Q75.8834 848.734 78.1982 852.855 Q80.4667 856.929 80.4667 862.345 Q80.4667 871.28 74.9112 875.91 Q69.3557 880.54 58.6613 880.54 M26.0226 859.105 L26.0226 859.105 Z" fill="#000000" fill-rule="nonzero" fill-opacity="1" /><path clip-path="url(#clip480)" d="M35.2355 789.522 Q34.4022 790.957 34.0318 792.67 Q33.6151 794.336 33.6151 796.373 Q33.6151 803.596 38.3373 807.484 Q43.0132 811.327 51.8095 811.327 L79.1242 811.327 L79.1242 819.892 L27.2726 819.892 L27.2726 811.327 L35.3281 811.327 Q30.6059 808.642 28.3374 804.336 Q26.0226 800.031 26.0226 793.873 Q26.0226 792.994 26.1615 791.929 Q26.2541 790.864 26.4856 789.568 L35.2355 789.522 Z" fill="#000000" fill-rule="nonzero" fill-opacity="1" /><path clip-path="url(#clip480)" d="M51.0688 738.318 L55.2354 738.318 L55.2354 777.485 Q64.0316 776.929 68.6613 772.207 Q73.2446 767.438 73.2446 758.966 Q73.2446 754.059 72.0409 749.475 Q70.8372 744.846 68.4298 740.309 L76.4853 740.309 Q78.4297 744.892 79.4482 749.707 Q80.4667 754.522 80.4667 759.475 Q80.4667 771.883 73.2446 779.151 Q66.0224 786.373 53.7076 786.373 Q40.9762 786.373 33.5225 779.522 Q26.0226 772.624 26.0226 760.957 Q26.0226 750.494 32.7818 744.429 Q39.4947 738.318 51.0688 738.318 M48.5688 746.837 Q41.5781 746.929 37.4114 750.772 Q33.2448 754.568 33.2448 760.864 Q33.2448 767.994 37.2725 772.299 Q41.3003 776.559 48.6151 777.207 L48.5688 746.837 Z" fill="#000000" fill-rule="nonzero" fill-opacity="1" /><path clip-path="url(#clip480)" d="M28.8004 661.143 L36.8559 661.143 Q35.004 664.754 34.0781 668.643 Q33.1522 672.531 33.1522 676.698 Q33.1522 683.041 35.0966 686.235 Q37.041 689.383 40.9299 689.383 Q43.8929 689.383 45.6058 687.115 Q47.2725 684.846 48.8002 677.994 L49.4484 675.078 Q51.3928 666.004 54.9576 662.207 Q58.4761 658.365 64.8187 658.365 Q72.0409 658.365 76.2538 664.106 Q80.4667 669.8 80.4667 679.8 Q80.4667 683.967 79.6334 688.504 Q78.8464 692.994 77.226 697.994 L68.4298 697.994 Q70.8835 693.272 72.1335 688.689 Q73.3372 684.105 73.3372 679.615 Q73.3372 673.596 71.3001 670.356 Q69.2168 667.115 65.4668 667.115 Q61.9946 667.115 60.1428 669.476 Q58.2909 671.791 56.578 679.707 L55.8835 682.67 Q54.2169 690.587 50.791 694.105 Q47.3188 697.624 41.3003 697.624 Q33.9855 697.624 30.0041 692.439 Q26.0226 687.254 26.0226 677.717 Q26.0226 672.994 26.717 668.828 Q27.4115 664.661 28.8004 661.143 Z" fill="#000000" fill-rule="nonzero" fill-opacity="1" /><path clip-path="url(#clip480)" d="M51.0688 600.449 L55.2354 600.449 L55.2354 639.615 Q64.0316 639.059 68.6613 634.337 Q73.2446 629.569 73.2446 621.097 Q73.2446 616.189 72.0409 611.606 Q70.8372 606.976 68.4298 602.439 L76.4853 602.439 Q78.4297 607.023 79.4482 611.837 Q80.4667 616.652 80.4667 621.606 Q80.4667 634.013 73.2446 641.282 Q66.0224 648.504 53.7076 648.504 Q40.9762 648.504 33.5225 641.652 Q26.0226 634.754 26.0226 623.087 Q26.0226 612.624 32.7818 606.56 Q39.4947 600.449 51.0688 600.449 M48.5688 608.967 Q41.5781 609.06 37.4114 612.902 Q33.2448 616.698 33.2448 622.995 Q33.2448 630.124 37.2725 634.43 Q41.3003 638.689 48.6151 639.337 L48.5688 608.967 Z" fill="#000000" fill-rule="nonzero" fill-opacity="1" /><path clip-path="url(#clip480)" d="M12.5504 578.041 L27.2726 578.041 L27.2726 560.495 L33.8929 560.495 L33.8929 578.041 L62.0409 578.041 Q68.3835 578.041 70.189 576.328 Q71.9946 574.569 71.9946 569.245 L71.9946 560.495 L79.1242 560.495 L79.1242 569.245 Q79.1242 579.106 75.4668 582.856 Q71.7631 586.606 62.0409 586.606 L33.8929 586.606 L33.8929 592.856 L27.2726 592.856 L27.2726 586.606 L12.5504 586.606 L12.5504 578.041 Z" fill="#000000" fill-rule="nonzero" fill-opacity="1" /><path clip-path="url(#clip480)" d="M28.8004 486.097 L36.8559 486.097 Q35.004 489.708 34.0781 493.597 Q33.1522 497.486 33.1522 501.653 Q33.1522 507.995 35.0966 511.19 Q37.041 514.338 40.9299 514.338 Q43.8929 514.338 45.6058 512.069 Q47.2725 509.801 48.8002 502.949 L49.4484 500.032 Q51.3928 490.958 54.9576 487.162 Q58.4761 483.32 64.8187 483.32 Q72.0409 483.32 76.2538 489.06 Q80.4667 494.755 80.4667 504.755 Q80.4667 508.921 79.6334 513.458 Q78.8464 517.949 77.226 522.949 L68.4298 522.949 Q70.8835 518.227 72.1335 513.643 Q73.3372 509.06 73.3372 504.569 Q73.3372 498.551 71.3001 495.31 Q69.2168 492.069 65.4668 492.069 Q61.9946 492.069 60.1428 494.431 Q58.2909 496.745 56.578 504.662 L55.8835 507.625 Q54.2169 515.542 50.791 519.06 Q47.3188 522.579 41.3003 522.579 Q33.9855 522.579 30.0041 517.393 Q26.0226 512.208 26.0226 502.671 Q26.0226 497.949 26.717 493.782 Q27.4115 489.616 28.8004 486.097 Z" fill="#000000" fill-rule="nonzero" fill-opacity="1" /><path clip-path="url(#clip480)" d="M27.2726 469.755 L27.2726 461.236 L79.1242 461.236 L79.1242 469.755 L27.2726 469.755 M7.08751 469.755 L7.08751 461.236 L17.8745 461.236 L17.8745 469.755 L7.08751 469.755 Z" fill="#000000" fill-rule="nonzero" fill-opacity="1" /><path clip-path="url(#clip480)" d="M27.2726 447.116 L27.2726 406.653 L35.0503 406.653 L72.3186 438.69 L72.3186 406.653 L79.1242 406.653 L79.1242 448.273 L71.3464 448.273 L34.0781 416.237 L34.0781 447.116 L27.2726 447.116 Z" fill="#000000" fill-rule="nonzero" fill-opacity="1" /><path clip-path="url(#clip480)" d="M51.0688 349.292 L55.2354 349.292 L55.2354 388.459 Q64.0316 387.903 68.6613 383.181 Q73.2446 378.413 73.2446 369.94 Q73.2446 365.033 72.0409 360.45 Q70.8372 355.82 68.4298 351.283 L76.4853 351.283 Q78.4297 355.866 79.4482 360.681 Q80.4667 365.496 80.4667 370.45 Q80.4667 382.857 73.2446 390.126 Q66.0224 397.348 53.7076 397.348 Q40.9762 397.348 33.5225 390.496 Q26.0226 383.598 26.0226 371.931 Q26.0226 361.468 32.7818 355.404 Q39.4947 349.292 51.0688 349.292 M48.5688 357.811 Q41.5781 357.904 37.4114 361.746 Q33.2448 365.542 33.2448 371.839 Q33.2448 378.968 37.2725 383.274 Q41.3003 387.533 48.6151 388.181 L48.5688 357.811 Z" fill="#000000" fill-rule="nonzero" fill-opacity="1" /><circle clip-path="url(#clip482)" cx="389.693" cy="1307.9" r="36" fill="#1f77b4" fill-rule="evenodd" fill-opacity="1" stroke="none"/>
<circle clip-path="url(#clip482)" cx="529.295" cy="1327" r="36" fill="#1f77b4" fill-rule="evenodd" fill-opacity="1" stroke="none"/>
<circle clip-path="url(#clip482)" cx="389.693" cy="1269.7" r="36" fill="#1f77b4" fill-rule="evenodd" fill-opacity="1" stroke="none"/>
<circle clip-path="url(#clip482)" cx="601.211" cy="1269.7" r="36" fill="#1f77b4" fill-rule="evenodd" fill-opacity="1" stroke="none"/>
<circle clip-path="url(#clip482)" cx="588.52" cy="1193.29" r="36" fill="#1f77b4" fill-rule="evenodd" fill-opacity="1" stroke="none"/>
<circle clip-path="url(#clip482)" cx="567.368" cy="1193.29" r="36" fill="#1f77b4" fill-rule="evenodd" fill-opacity="1" stroke="none"/>
<circle clip-path="url(#clip482)" cx="355.85" cy="1174.19" r="36" fill="#1f77b4" fill-rule="evenodd" fill-opacity="1" stroke="none"/>
<circle clip-path="url(#clip482)" cx="398.153" cy="1212.39" r="36" fill="#1f77b4" fill-rule="evenodd" fill-opacity="1" stroke="none"/>
<circle clip-path="url(#clip482)" cx="419.305" cy="1078.69" r="36" fill="#1f77b4" fill-rule="evenodd" fill-opacity="1" stroke="none"/>
<circle clip-path="url(#clip482)" cx="546.216" cy="1327" r="36" fill="#1f77b4" fill-rule="evenodd" fill-opacity="1" stroke="none"/>
<circle clip-path="url(#clip482)" cx="313.546" cy="1288.8" r="36" fill="#1f77b4" fill-rule="evenodd" fill-opacity="1" stroke="none"/>
<circle clip-path="url(#clip482)" cx="550.447" cy="1231.49" r="36" fill="#1f77b4" fill-rule="evenodd" fill-opacity="1" stroke="none"/>
<circle clip-path="url(#clip482)" cx="685.819" cy="1327" r="36" fill="#1f77b4" fill-rule="evenodd" fill-opacity="1" stroke="none"/>
<circle clip-path="url(#clip482)" cx="736.583" cy="1327" r="36" fill="#1f77b4" fill-rule="evenodd" fill-opacity="1" stroke="none"/>
<circle clip-path="url(#clip482)" cx="626.594" cy="1250.59" r="36" fill="#1f77b4" fill-rule="evenodd" fill-opacity="1" stroke="none"/>
<circle clip-path="url(#clip482)" cx="939.641" cy="773.074" r="36" fill="#1f77b4" fill-rule="evenodd" fill-opacity="1" stroke="none"/>
<circle clip-path="url(#clip482)" cx="855.034" cy="1269.7" r="36" fill="#1f77b4" fill-rule="evenodd" fill-opacity="1" stroke="none"/>
<circle clip-path="url(#clip482)" cx="867.725" cy="1212.39" r="36" fill="#1f77b4" fill-rule="evenodd" fill-opacity="1" stroke="none"/>
<circle clip-path="url(#clip482)" cx="833.882" cy="1021.38" r="36" fill="#1f77b4" fill-rule="evenodd" fill-opacity="1" stroke="none"/>
<circle clip-path="url(#clip482)" cx="626.594" cy="295.554" r="36" fill="#1f77b4" fill-rule="evenodd" fill-opacity="1" stroke="none"/>
<circle clip-path="url(#clip482)" cx="719.662" cy="1269.7" r="36" fill="#1f77b4" fill-rule="evenodd" fill-opacity="1" stroke="none"/>
<circle clip-path="url(#clip482)" cx="1024.25" cy="1250.59" r="36" fill="#1f77b4" fill-rule="evenodd" fill-opacity="1" stroke="none"/>
<circle clip-path="url(#clip482)" cx="1294.99" cy="1307.9" r="36" fill="#1f77b4" fill-rule="evenodd" fill-opacity="1" stroke="none"/>
<circle clip-path="url(#clip482)" cx="1062.32" cy="1231.49" r="36" fill="#1f77b4" fill-rule="evenodd" fill-opacity="1" stroke="none"/>
<circle clip-path="url(#clip482)" cx="1388.06" cy="1212.39" r="36" fill="#1f77b4" fill-rule="evenodd" fill-opacity="1" stroke="none"/>
<circle clip-path="url(#clip482)" cx="1421.9" cy="1135.99" r="36" fill="#1f77b4" fill-rule="evenodd" fill-opacity="1" stroke="none"/>
<circle clip-path="url(#clip482)" cx="1320.38" cy="1135.99" r="36" fill="#1f77b4" fill-rule="evenodd" fill-opacity="1" stroke="none"/>
<circle clip-path="url(#clip482)" cx="1421.9" cy="1135.99" r="36" fill="#1f77b4" fill-rule="evenodd" fill-opacity="1" stroke="none"/>
<circle clip-path="url(#clip482)" cx="1235.77" cy="1346.1" r="36" fill="#1f77b4" fill-rule="evenodd" fill-opacity="1" stroke="none"/>
<circle clip-path="url(#clip482)" cx="1058.09" cy="238.252" r="36" fill="#1f77b4" fill-rule="evenodd" fill-opacity="1" stroke="none"/>
<circle clip-path="url(#clip482)" cx="1307.68" cy="964.082" r="36" fill="#1f77b4" fill-rule="evenodd" fill-opacity="1" stroke="none"/>
<circle clip-path="url(#clip482)" cx="1637.65" cy="1288.8" r="36" fill="#1f77b4" fill-rule="evenodd" fill-opacity="1" stroke="none"/>
<circle clip-path="url(#clip482)" cx="1459.98" cy="1135.99" r="36" fill="#1f77b4" fill-rule="evenodd" fill-opacity="1" stroke="none"/>
<circle clip-path="url(#clip482)" cx="1734.95" cy="964.082" r="36" fill="#1f77b4" fill-rule="evenodd" fill-opacity="1" stroke="none"/>
<circle clip-path="url(#clip482)" cx="1472.67" cy="1327" r="36" fill="#1f77b4" fill-rule="evenodd" fill-opacity="1" stroke="none"/>
<circle clip-path="url(#clip482)" cx="1459.98" cy="1135.99" r="36" fill="#1f77b4" fill-rule="evenodd" fill-opacity="1" stroke="none"/>
<circle clip-path="url(#clip482)" cx="1734.95" cy="964.082" r="36" fill="#1f77b4" fill-rule="evenodd" fill-opacity="1" stroke="none"/>
<circle clip-path="url(#clip482)" cx="1663.04" cy="734.873" r="36" fill="#1f77b4" fill-rule="evenodd" fill-opacity="1" stroke="none"/>
<circle clip-path="url(#clip482)" cx="1654.57" cy="543.865" r="36" fill="#1f77b4" fill-rule="evenodd" fill-opacity="1" stroke="none"/>
<circle clip-path="url(#clip482)" cx="2018.39" cy="1078.69" r="36" fill="#1f77b4" fill-rule="evenodd" fill-opacity="1" stroke="none"/>
<circle clip-path="url(#clip482)" cx="2293.36" cy="1288.8" r="36" fill="#1f77b4" fill-rule="evenodd" fill-opacity="1" stroke="none"/>
<circle clip-path="url(#clip482)" cx="2132.61" cy="1212.39" r="36" fill="#1f77b4" fill-rule="evenodd" fill-opacity="1" stroke="none"/>
<circle clip-path="url(#clip482)" cx="2018.39" cy="1078.69" r="36" fill="#1f77b4" fill-rule="evenodd" fill-opacity="1" stroke="none"/>
</svg>
